{
.appVersion = "3134";
.formatVersion = 3;
axes = (
{
name = Weight;
tag = wght;
}
);
customParameters = (
{
name = vendorID;
value = " ";
},
{
name = panose;
value = (
0,
0,
0,
0,
0,
0,
0,
0,
0,
0
);
},
{
name = unicodeRanges;
value = (
0,
1,
2,
5,
6,
7,
31,
32
);
},
{
name = codePageRanges;
value = (
"1252",
"1250",
"1253",
"1254",
"1257"
);
},
{
name = fsType;
value = (
);
},
{
name = glyphOrder;
value = (
.notdef,
.null,
uni000D,
space,
exclam,
quotedbl,
numbersign,
dollar,
percent,
ampersand,
quotesingle,
parenleft,
parenright,
asterisk,
plus,
comma,
hyphen,
period,
slash,
zero,
one,
two,
three,
four,
five,
six,
seven,
eight,
nine,
colon,
semicolon,
less,
equal,
greater,
question,
at,
A,
B,
C,
D,
E,
F,
G,
H,
J,
K,
L,
M,
N,
O,
P,
Q,
R,
S,
T,
U,
V,
W,
X,
Y,
Z,
bracketleft,
backslash,
bracketright,
asciicircum,
underscore,
grave,
a,
b,
c,
d,
e,
f,
g,
h,
i,
j,
k,
l,
m,
n,
o,
p,
q,
r,
s,
t,
u,
v,
w,
x,
y,
z,
braceleft,
bar,
braceright,
asciitilde,
uni00A0,
exclamdown,
cent,
sterling,
currency,
yen,
brokenbar,
section,
dieresis,
copyright,
ordfeminine,
guillemotleft,
logicalnot,
uni00AD,
registered,
degree,
plusminus,
twosuperior,
threesuperior,
acute,
uni03BC,
paragraph,
periodcentered,
cedilla,
onesuperior,
ordmasculine,
guillemotright,
onequarter,
onehalf,
threequarters,
questiondown,
Agrave,
Aacute,
Acircumflex,
Atilde,
Adieresis,
Aring,
AE,
Egrave,
Eacute,
Ecircumflex,
Edieresis,
Eth,
Ntilde,
Ograve,
Oacute,
Ocircumflex,
Otilde,
Odieresis,
multiply,
Oslash,
Ugrave,
Uacute,
Ucircumflex,
Udieresis,
Yacute,
Thorn,
germandbls,
agrave,
aacute,
acircumflex,
atilde,
adieresis,
aring,
ae,
ccedilla,
egrave,
eacute,
ecircumflex,
edieresis,
igrave,
iacute,
idieresis,
eth,
ntilde,
ograve,
oacute,
ocircumflex,
otilde,
odieresis,
divide,
oslash,
ugrave,
uacute,
ucircumflex,
udieresis,
yacute,
thorn,
ydieresis,
Amacron,
amacron,
Abreve,
abreve,
Aogonek,
aogonek,
Cacute,
cacute,
Ccircumflex,
ccircumflex,
cdotaccent,
Ccaron,
ccaron,
Dcaron,
dcaron,
Dcroat,
dcroat,
Emacron,

glyphs = (
{
color = 5;
glyphname = .notdef;
layers = (
{
layerId = "EE0A04B7-467B-4BD9-A2DD-E8921F00673F";
shapes = (
{
closed = 1;
nodes = (
(645,720,l),
(518,0,l),
(-11,0,l),
(116,720,l)
);
},
{
closed = 1;
nodes = (
(208,663,l),
(328,421,l),
(532,663,l)
);
},
{
closed = 1;
nodes = (
(553,593,l),
(356,360,l),
(471,128,l)
);
},
{
closed = 1;
nodes = (
(307,300,l),
(101,57,l),
(425,57,l)
);
},
{
closed = 1;
nodes = (
(277,360,l),
(164,594,l),
(82,128,l)
);
}
);
width = 600;
},
{
layerId = "179DD43A-A894-42A9-B4B6-A7F9368B08A7";
shapes = (
{
closed = 1;
nodes = (
(608,720,l),
(481,0,l),
(-45,0,l),
(82,720,l)
);
},
{
closed = 1;
nodes = (
(170,663,l),
(292,419,l),
(499,663,l)
);
},
{
closed = 1;
nodes = (
(520,598,l),
(319,360,l),
(437,124,l)
);
},
{
closed = 1;
nodes = (
(271,303,l),
(63,57,l),
(392,57,l)
);
},
{
closed = 1;
nodes = (
(243,360,l),
(127,599,l),
(43,124,l)
);
}
);
width = 529;
},
{
layerId = "7F84CDEE-FC45-41A5-88A7-11DFAD5E6C3A";
shapes = (
{
closed = 1;
nodes = (
(600,720,l),
(473,0,l),
(-52,0,l),
(75,720,l)
);
},
{
closed = 1;
nodes = (
(162,663,l),
(284,419,l),
(492,663,l)
);
},
{
closed = 1;
nodes = (
(514,599,l),
(311,360,l),
(430,123,l)
);
},
{
closed = 1;
nodes = (
(263,303,l),
(55,57,l),
(385,57,l)
);
},
{
closed = 1;
nodes = (
(236,360,l),
(119,600,l),
(35,123,l)
);
}
);
width = 515;
}
);
},
{
color = 5;
glyphname = exclam;
layers = (
{
layerId = "EE0A04B7-467B-4BD9-A2DD-E8921F00673F";
shapes = (
{
closed = 1;
nodes = (
(340,615,l),
(214,228,l),
(114,228,l),
(124,615,l),
(139,700,l),
(355,700,l)
);
},
{
closed = 1;
nodes = (
(215,180,o),
(257,148,o),
(246,84,cs),
(235,20,o),
(181,-13,o),
(121,-13,cs),
(61,-13,o),
(18,20,o),
(31,84,cs),
(46,156,o),
(108,180,o),
(155,180,cs)
);
}
);
width = 341;
},
{
layerId = "179DD43A-A894-42A9-B4B6-A7F9368B08A7";
shapes = (
{
closed = 1;
nodes = (
(268,620,l),
(171,207,l),
(109,207,l),
(157,620,l),
(169,704,l),
(286,704,l)
);
},
{
closed = 1;
nodes = (
(164,121,o),
(187,92,o),
(181,56,cs),
(174,15,o),
(141,-11,o),
(102,-11,cs),
(65,-11,o),
(40,15,o),
(46,56,cs),
(55,111,o),
(100,121,o),
(125,121,cs)
);
}
);
width = 299;
},
{
layerId = "7F84CDEE-FC45-41A5-88A7-11DFAD5E6C3A";
shapes = (
{
closed = 1;
nodes = (
(252,621,l),
(162,203,l),
(107,203,l),
(162,621,l),
(173,705,l),
(271,705,l)
);
},
{
closed = 1;
nodes = (
(151,109,o),
(172,81,o),
(167,50,cs),
(160,14,o),
(130,-10,o),
(97,-10,cs),
(64,-10,o),
(42,14,o),
(48,50,cs),
(55,96,o),
(95,109,o),
(118,109,cs)
);
}
);
width = 290;
}
);
unicode = 33;
},
{
color = 5;
glyphname = quotedbl;
layers = (
{
layerId = "EE0A04B7-467B-4BD9-A2DD-E8921F00673F";
shapes = (
{
closed = 1;
nodes = (
(194,700,l),
(398,700,l),
(398,699,l),
(398,697,l),
(208,341,l),
(109,341,l)
);
},
{
closed = 1;
nodes = (
(655,700,l),
(655,699,l),
(655,697,l),
(465,341,l),
(365,341,l),
(451,700,l)
);
}
);
width = 660;
},
{
layerId = "179DD43A-A894-42A9-B4B6-A7F9368B08A7";
shapes = (
{
closed = 1;
nodes = (
(194,707,l),
(304,707,l),
(304,707,l),
(286,662,l),
(181,426,l),
(119,426,l)
);
},
{
closed = 1;
nodes = (
(496,707,l),
(496,707,l),
(478,662,l),
(373,426,l),
(311,426,l),
(386,707,l)
);
}
);
width = 474;
},
{
layerId = "7F84CDEE-FC45-41A5-88A7-11DFAD5E6C3A";
shapes = (
{
closed = 1;
nodes = (
(192,708,l),
(283,708,l),
(283,708,l),
(261,655,l),
(174,443,l),
(119,443,l)
);
},
{
closed = 1;
nodes = (
(462,708,l),
(462,708,l),
(440,655,l),
(353,443,l),
(298,443,l),
(371,708,l)
);
}
);
width = 437;
}
);
unicode = 34;
},
{
color = 5;
glyphname = numbersign;
layers = (
{
layerId = "EE0A04B7-467B-4BD9-A2DD-E8921F00673F";
shapes = (
{
closed = 1;
nodes = (
(11,135,l),
(39,296,l),
(145,296,l),
(184,408,l),
(92,408,l),
(120,569,l),
(240,569,l),
(285,700,l),
(430,700,l),
(384,569,l),
(511,569,l),
(556,700,l),
(701,700,l),
(656,569,l),
(734,569,l),
(706,408,l),
(600,408,l),
(561,296,l),
(653,296,l),
(625,135,l),
(506,135,l),
(458,0,l),
(313,0,l),
(361,135,l),
(234,135,l),
(187,0,l),
(42,0,l),
(89,135,l)
);
},
{
closed = 1;
nodes = (
(284,292,l),
(418,292,l),
(460,412,l),
(327,412,l)
);
}
);
width = 712;
},
{
layerId = "179DD43A-A894-42A9-B4B6-A7F9368B08A7";
shapes = (
{
closed = 1;
nodes = (
(13,185,l),
(28,271,l),
(142,271,l),
(199,440,l),
(91,440,l),
(106,527,l),
(227,527,l),
(285,705,l),
(370,705,l),
(312,527,l),
(469,527,l),
(526,705,l),
(611,705,l),
(554,527,l),
(650,527,l),
(635,440,l),
(525,440,l),
(468,271,l),
(572,271,l),
(556,184,l),
(438,184,l),
(379,0,l),
(294,0,l),
(353,184,l),
(196,184,l),
(136,0,l),
(51,0,l),
(113,185,l)
);
},
{
closed = 1;
nodes = (
(225,270,l),
(384,270,l),
(441,440,l),
(282,440,l)
);
}
);
width = 625;
},
{
layerId = "7F84CDEE-FC45-41A5-88A7-11DFAD5E6C3A";
shapes = (
{
closed = 1;
nodes = (
(12,195,l),
(25,266,l),
(141,266,l),
(201,446,l),
(90,446,l),
(102,518,l),
(223,518,l),
(285,706,l),
(357,706,l),
(297,518,l),
(460,518,l),
(520,706,l),
(592,706,l),
(533,518,l),
(632,518,l),
(620,446,l),
(510,446,l),
(449,266,l),
(555,266,l),
(542,194,l),
(425,194,l),
(363,0,l),
(290,0,l),
(352,194,l),
(189,194,l),
(126,0,l),
(53,0,l),
(117,195,l)
);
},
{
closed = 1;
nodes = (
(213,266,l),
(376,266,l),
(437,446,l),
(273,446,l)
);
}
);
width = 608;
}
);
unicode = 35;
},
{
color = 5;
glyphname = dollar;
layers = (
{
layerId = "EE0A04B7-467B-4BD9-A2DD-E8921F00673F";
shapes = (
{
closed = 1;
nodes = (
(233,2,l),
(144,2,o),
(56,39,o),
(-7,115,c),
(125,234,l),
(156,186,o),
(210,152,o),
(265,145,c),
(287,272,l),
(133,309,o),
(61,366,o),
(82,490,cs),
(103,607,o),
(205,690,o),
(359,701,c),
(369,758,l),
(473,758,l),
(462,698,l),
(544,689,o),
(611,652,o),
(650,599,c),
(534,491,l),
(508,530,o),
(474,547,o),
(432,555,c),
(410,430,l),
(562,393,o),
(632,335,o),
(610,212,cs),
(589,89,o),
(480,13,o),
(337,0,c),
(320,-98,l),
(216,-98,l)
);
},
{
closed = 1;
nodes = (
(359,146,l),
(407,151,o),
(430,172,o),
(435,199,cs),
(441,230,o),
(412,245,o),
(378,256,c)
);
},
{
closed = 1;
nodes = (
(338,555,l),
(288,551,o),
(265,530,o),
(261,505,cs),
(256,475,o),
(292,454,o),
(319,447,c)
);
}
);
width = 646;
},
{
layerId = "179DD43A-A894-42A9-B4B6-A7F9368B08A7";
shapes = (
{
closed = 1;
nodes = (
(212,-3,l),
(116,-3,o),
(47,41,o),
(2,101,c),
(71,165,l),
(106,120,o),
(157,83,o),
(228,78,c),
(269,314,l),
(149,357,o),
(85,414,o),
(104,519,cs),
(122,625,o),
(220,698,o),
(338,709,c),
(349,774,l),
(421,774,l),
(410,709,l),
(497,701,o),
(542,661,o),
(566,620,c),
(497,559,l),
(478,594,o),
(440,619,o),
(393,624,c),
(353,396,l),
(488,349,o),
(542,292,o),
(525,195,cs),
(506,87,o),
(407,10,o),
(284,-3,c),
(268,-96,l),
(196,-96,l)
);
},
{
closed = 1;
nodes = (
(298,79,l),
(376,90,o),
(417,130,o),
(425,182,cs),
(433,233,o),
(402,271,o),
(336,294,c)
);
},
{
closed = 1;
nodes = (
(324,626,l),
(254,619,o),
(213,581,o),
(203,529,cs),
(188,449,o),
(257,432,o),
(288,418,c)
);
}
);
width = 578;
},
{
layerId = "7F84CDEE-FC45-41A5-88A7-11DFAD5E6C3A";
shapes = (
{
closed = 1;
nodes = (
(205,-4,l),
(109,-4,o),
(41,42,o),
(0,98,c),
(58,151,l),
(93,107,o),
(142,69,o),
(217,65,c),
(263,322,l),
(150,365,o),
(87,424,o),
(105,525,cs),
(123,628,o),
(220,699,o),
(331,710,c),
(343,777,l),
(408,777,l),
(396,711,l),
(483,703,o),
(525,663,o),
(546,624,c),
(486,572,l),
(468,607,o),
(430,633,o),
(382,638,c),
(339,389,l),
(469,340,o),
(521,283,o),
(505,192,cs),
(486,86,o),
(389,9,o),
(270,-4,c),
(254,-95,l),
(189,-95,l)
);
},
{
closed = 1;
nodes = (
(283,66,l),
(366,78,o),
(411,122,o),
(421,179,cs),
(432,238,o),
(393,278,o),
(324,302,c)
);
},
{
closed = 1;
nodes = (
(319,640,l),
(244,632,o),
(196,591,o),
(188,534,cs),
(177,460,o),
(247,427,o),
(279,412,c)
);
}
);
width = 564;
}
);
unicode = 36;
},
{
color = 5;
glyphname = percent;
layers = (
{
layerId = "EE0A04B7-467B-4BD9-A2DD-E8921F00673F";
shapes = (
{
closed = 1;
nodes = (
(122,333,o),
(65,419,o),
(83,522,cs),
(101,625,o),
(188,710,o),
(297,710,cs),
(405,710,o),
(460,624,o),
(444,523,cs),
(428,427,o),
(357,333,o),
(230,333,cs)
);
},
{
closed = 1;
nodes = (
(242,600,o),
(213,567,o),
(205,523,cs),
(197,478,o),
(217,443,o),
(250,443,cs),
(285,443,o),
(315,478,o),
(322,522,cs),
(329,563,o),
(311,600,o),
(277,600,cs)
);
},
{
closed = 1;
nodes = (
(529,-10,o),
(473,77,o),
(491,179,cs),
(509,282,o),
(596,367,o),
(705,367,cs),
(813,367,o),
(868,284,o),
(852,180,cs),
(838,87,o),
(762,-10,o),
(638,-10,cs)
);
},
{
closed = 1;
nodes = (
(648,257,o),
(621,225,o),
(613,180,cs),
(605,136,o),
(625,100,o),
(658,100,cs),
(693,100,o),
(721,135,o),
(730,179,cs),
(739,226,o),
(719,257,o),
(684,257,cs)
);
},
{
closed = 1;
nodes = (
(68,0,l),
(731,700,l),
(866,700,l),
(203,0,l)
);
}
);
width = 904;
},
{
layerId = "179DD43A-A894-42A9-B4B6-A7F9368B08A7";
shapes = (
{
closed = 1;
nodes = (
(127,356,o),
(73,437,o),
(91,540,cs),
(109,640,o),
(193,721,o),
(292,721,cs),
(393,721,o),
(442,641,o),
(427,541,cs),
(413,453,o),
(347,356,o),
(227,356,cs)
);
},
{
closed = 1;
nodes = (
(223,653,o),
(179,605,o),
(167,540,cs),
(155,471,o),
(184,425,o),
(240,425,cs),
(299,425,o),
(340,472,o),
(351,536,cs),
(365,624,o),
(322,653,o),
(279,653,cs)
);
},
{
closed = 1;
nodes = (
(488,-11,o),
(436,70,o),
(454,170,cs),
(472,271,o),
(556,351,o),
(654,351,cs),
(754,351,o),
(806,272,o),
(789,171,cs),
(773,81,o),
(703,-11,o),
(589,-11,cs)
);
},
{
closed = 1;
nodes = (
(585,283,o),
(542,238,o),
(530,170,cs),
(517,99,o),
(550,58,o),
(602,58,cs),
(658,58,o),
(701,106,o),
(713,170,cs),
(729,255,o),
(685,283,o),
(641,283,cs)
);
},
{
closed = 1;
nodes = (
(90,-3,l),
(709,719,l),
(795,719,l),
(177,-3,l)
);
}
);
width = 849;
},
{
layerId = "7F84CDEE-FC45-41A5-88A7-11DFAD5E6C3A";
shapes = (
{
closed = 1;
nodes = (
(128,361,o),
(75,441,o),
(93,543,cs),
(110,643,o),
(194,723,o),
(290,723,cs),
(390,723,o),
(440,644,o),
(424,544,cs),
(410,459,o),
(345,361,o),
(226,361,cs)
);
},
{
closed = 1;
nodes = (
(219,663,o),
(172,612,o),
(160,543,cs),
(147,470,o),
(177,421,o),
(237,421,cs),
(301,421,o),
(346,471,o),
(356,539,cs),
(369,624,o),
(307,663,o),
(279,663,cs)
);
},
{
closed = 1;
nodes = (
(479,-11,o),
(429,69,o),
(447,168,cs),
(464,269,o),
(548,348,o),
(643,348,cs),
(742,348,o),
(794,269,o),
(777,169,cs),
(764,89,o),
(697,-11,o),
(579,-11,cs)
);
},
{
closed = 1;
nodes = (
(572,288,o),
(526,240,o),
(514,168,cs),
(500,92,o),
(535,49,o),
(591,49,cs),
(652,49,o),
(697,100,o),
(710,168,cs),
(725,242,o),
(690,288,o),
(632,288,cs)
);
},
{
closed = 1;
nodes = (
(94,-4,l),
(704,723,l),
(780,723,l),
(171,-4,l)
);
}
);
width = 838;
}
);
unicode = 37;
},
{
color = 5;
glyphname = ampersand;
layers = (
{
layerId = "EE0A04B7-467B-4BD9-A2DD-E8921F00673F";
shapes = (
{
closed = 1;
nodes = (
(288,278,l),
(249,257,o),
(230,231,o),
(224,200,cs),
(217,159,o),
(246,131,o),
(294,131,cs),
(322,131,o),
(352,142,o),
(382,161,c)
);
},
{
closed = 1;
nodes = (
(721,341,l),
(683,288,o),
(633,218,o),
(593,173,c),
(694,34,l),
(512,-5,l),
(463,59,l),
(395,14,o),
(324,-12,o),
(243,-12,cs),
(100,-12,o),
(6,63,o),
(29,192,cs),
(44,280,o),
(102,345,o),
(205,388,c),
(182,435,o),
(176,482,o),
(184,529,cs),
(202,630,o),
(301,719,o),
(438,719,cs),
(566,719,o),
(632,641,o),
(614,537,cs),
(599,452,o),
(534,394,o),
(445,355,c),
(508,274,l),
(537,307,o),
(566,345,o),
(594,385,c)
);
},
{
closed = 1;
nodes = (
(342,495,o),
(350,473,o),
(369,442,c),
(424,467,o),
(452,495,o),
(458,530,cs),
(465,565,o),
(446,586,o),
(414,586,cs),
(368,586,o),
(351,545,o),
(347,522,cs)
);
}
);
width = 748;
},
{
layerId = "179DD43A-A894-42A9-B4B6-A7F9368B08A7";
shapes = (
{
closed = 1;
nodes = (
(283,340,l),
(205,307,o),
(157,262,o),
(146,197,cs),
(133,126,o),
(176,69,o),
(253,69,cs),
(314,69,o),
(369,105,o),
(418,152,c)
);
},
{
closed = 1;
nodes = (
(676,346,l),
(634,281,o),
(586,217,o),
(537,161,c),
(644,16,l),
(534,-5,l),
(462,86,l),
(390,25,o),
(319,-11,o),
(231,-11,cs),
(103,-11,o),
(18,67,o),
(40,192,cs),
(58,293,o),
(130,363,o),
(242,403,c),
(212,454,o),
(194,500,o),
(204,556,cs),
(221,652,o),
(308,719,o),
(415,719,cs),
(519,719,o),
(578,648,o),
(563,563,cs),
(548,475,o),
(476,422,o),
(378,383,c),
(492,227,l),
(531,275,o),
(564,320,o),
(598,373,c)
);
},
{
closed = 1;
nodes = (
(291,518,o),
(308,483,o),
(337,439,c),
(407,464,o),
(461,506,o),
(470,558,cs),
(479,609,o),
(448,640,o),
(400,640,cs),
(362,640,o),
(308,618,o),
(298,555,c)
);
}
);
width = 695;
},
{
layerId = "7F84CDEE-FC45-41A5-88A7-11DFAD5E6C3A";
shapes = (
{
closed = 1;
nodes = (
(278,352,l),
(192,317,o),
(138,268,o),
(126,196,cs),
(112,119,o),
(157,57,o),
(241,57,cs),
(309,57,o),
(368,97,o),
(420,150,c)
);
},
{
closed = 1;
nodes = (
(663,347,l),
(619,279,o),
(572,218,o),
(522,158,c),
(629,12,l),
(534,-5,l),
(458,91,l),
(386,27,o),
(313,-11,o),
(224,-11,cs),
(99,-11,o),
(16,68,o),
(38,192,cs),
(56,296,o),
(131,366,o),
(246,406,c),
(214,457,o),
(194,505,o),
(204,561,cs),
(221,656,o),
(307,719,o),
(406,719,cs),
(506,719,o),
(564,651,o),
(549,568,cs),
(533,479,o),
(460,427,o),
(360,388,c),
(484,217,l),
(526,268,o),
(561,315,o),
(594,371,c)
);
},
{
closed = 1;
nodes = (
(277,523,o),
(296,485,o),
(327,438,c),
(400,463,o),
(458,507,o),
(468,563,cs),
(478,616,o),
(444,651,o),
(393,651,cs),
(326,651,o),
(291,602,o),
(284,562,cs)
);
}
);
width = 684;
}
);
unicode = 38;
},
{
color = 5;
glyphname = quotesingle;
layers = (
{
layerId = "EE0A04B7-467B-4BD9-A2DD-E8921F00673F";
shapes = (
{
closed = 1;
nodes = (
(442.41,700,l),
(442.234,699,l),
(441.881,697,l),
(252.118,341,l),
(149.118,341,l),
(234.41,700,l)
);
}
);
width = 408;
},
{
layerId = "179DD43A-A894-42A9-B4B6-A7F9368B08A7";
shapes = (
{
closed = 1;
nodes = (
(288,707,l),
(288,707,l),
(270,662,l),
(165,426,l),
(102,426,l),
(177,707,l)
);
}
);
width = 284;
},
{
layerId = "7F84CDEE-FC45-41A5-88A7-11DFAD5E6C3A";
shapes = (
{
closed = 1;
nodes = (
(266,708,l),
(266,708,l),
(244,655,l),
(157,443,l),
(102,443,l),
(174,708,l)
);
}
);
width = 259;
}
);
unicode = 39;
},
{
color = 5;
glyphname = parenleft;
layers = (
{
layerId = "EE0A04B7-467B-4BD9-A2DD-E8921F00673F";
shapes = (
{
closed = 1;
nodes = (
(271,-130,l),
(116,-42,o),
(37,83,o),
(73,287,cs),
(109,491,o),
(241,613,o),
(422,706,c),
(498,597,l),
(354,508,o),
(281,418,o),
(259,287,cs),
(240,170,o),
(258,81,o),
(389,-23,c)
);
}
);
width = 474;
},
{
layerId = "179DD43A-A894-42A9-B4B6-A7F9368B08A7";
shapes = (
{
closed = 1;
nodes = (
(235,-158,l),
(107,-49,o),
(45,98,o),
(78,285,cs),
(111,470,o),
(220,609,o),
(391,732,c),
(432,671,l),
(287,556,o),
(206,431,o),
(177,285,cs),
(148,139,o),
(168,41,o),
(296,-99,c)
);
}
);
width = 409;
},
{
layerId = "7F84CDEE-FC45-41A5-88A7-11DFAD5E6C3A";
shapes = (
{
closed = 1;
nodes = (
(227,-164,l),
(106,-49,o),
(47,101,o),
(79,284,cs),
(111,464,o),
(214,609,o),
(384,737,c),
(419,686,l),
(273,565,o),
(189,435,o),
(161,284,cs),
(133,133,o),
(151,33,o),
(277,-114,c)
);
}
);
width = 396;
}
);
unicode = 40;
},
{
color = 5;
glyphname = parenright;
layers = (
{
layerId = "EE0A04B7-467B-4BD9-A2DD-E8921F00673F";
shapes = (
{
closed = 1;
nodes = (
(205,706,l),
(364,613,o),
(443,488,o),
(408,287,cs),
(372,84,o),
(253,-40,o),
(62,-130,c),
(-18,-23,l),
(127,66,o),
(198,156,o),
(222,287,cs),
(244,406,o),
(223,493,o),
(91,597,c)
);
}
);
width = 474;
},
{
layerId = "179DD43A-A894-42A9-B4B6-A7F9368B08A7";
shapes = (
{
closed = 1;
nodes = (
(184,732,l),
(313,607,o),
(371,467,o),
(339,285,cs),
(307,101,o),
(194,-44,o),
(26,-158,c),
(-15,-99,l),
(136,17,o),
(218,144,o),
(240,285,cs),
(263,435,o),
(254,536,o),
(119,671,c)
);
}
);
width = 411;
},
{
layerId = "7F84CDEE-FC45-41A5-88A7-11DFAD5E6C3A";
shapes = (
{
closed = 1;
nodes = (
(179,737,l),
(304,606,o),
(356,462,o),
(325,284,cs),
(293,103,o),
(182,-43,o),
(19,-164,c),
(-15,-114,l),
(137,7,o),
(215,131,o),
(243,284,cs),
(268,419,o),
(258,541,o),
(125,686,c)
);
}
);
width = 398;
}
);
unicode = 41;
},
{
color = 5;
glyphname = asterisk;
layers = (
{
layerId = "EE0A04B7-467B-4BD9-A2DD-E8921F00673F";
shapes = (
{
closed = 1;
nodes = (
(210,710,l),
(268,602,l),
(364,710,l),
(422,663,l),
(327,552,l),
(443,510,l),
(405,435,l),
(288,476,l),
(264,340,l),
(182,340,l),
(206,478,l),
(72,435,l),
(61,510,l),
(195,554,l),
(136,663,l)
);
}
);
width = 417;
},
{
layerId = "179DD43A-A894-42A9-B4B6-A7F9368B08A7";
shapes = (
{
closed = 1;
nodes = (
(198,723,l),
(248,637,l),
(327,723,l),
(374,688,l),
(294,598,l),
(390,563,l),
(360,502,l),
(263,536,l),
(243,423,l),
(179,423,l),
(199,537,l),
(89,502,l),
(78,563,l),
(190,599,l),
(139,686,l)
);
}
);
width = 364;
},
{
layerId = "7F84CDEE-FC45-41A5-88A7-11DFAD5E6C3A";
shapes = (
{
closed = 1;
nodes = (
(196,725,l),
(245,644,l),
(320,725,l),
(364,693,l),
(288,607,l),
(379,573,l),
(350,515,l),
(258,548,l),
(239,440,l),
(178,440,l),
(197,549,l),
(92,515,l),
(82,573,l),
(188,608,l),
(140,690,l)
);
}
);
width = 353;
}
);
unicode = 42;
},
{
color = 5;
glyphname = plus;
layers = (
{
layerId = "EE0A04B7-467B-4BD9-A2DD-E8921F00673F";
shapes = (
{
closed = 1;
nodes = (
(623,436,l),
(593,268,l),
(424,268,l),
(394,96,l),
(220,96,l),
(250,268,l),
(81,268,l),
(111,436,l),
(280,436,l),
(310,608,l),
(484,608,l),
(454,436,l)
);
}
);
width = 674;
},
{
layerId = "179DD43A-A894-42A9-B4B6-A7F9368B08A7";
shapes = (
{
closed = 1;
nodes = (
(569,391,l),
(553,301,l),
(352,301,l),
(316,99,l),
(223,99,l),
(259,301,l),
(59,301,l),
(75,391,l),
(275,391,l),
(310,592,l),
(403,592,l),
(368,391,l)
);
}
);
width = 600;
},
{
layerId = "7F84CDEE-FC45-41A5-88A7-11DFAD5E6C3A";
shapes = (
{
closed = 1;
nodes = (
(558,382,l),
(545,308,l),
(337,308,l),
(301,100,l),
(224,100,l),
(260,308,l),
(54,308,l),
(67,382,l),
(273,382,l),
(310,589,l),
(387,589,l),
(350,382,l)
);
}
);
width = 585;
}
);
unicode = 43;
},
{
color = 5;
glyphname = comma;
layers = (
{
layerId = "EE0A04B7-467B-4BD9-A2DD-E8921F00673F";
shapes = (
{
closed = 1;
nodes = (
(-57,-164,l),
(69,197,l),
(240,197,l),
(73,-164,l)
);
}
);
width = 280;
},
{
layerId = "179DD43A-A894-42A9-B4B6-A7F9368B08A7";
shapes = (
{
closed = 1;
nodes = (
(-32,-143,l),
(63,133,l),
(174,133,l),
(48,-143,l)
);
}
);
width = 257;
},
{
layerId = "7F84CDEE-FC45-41A5-88A7-11DFAD5E6C3A";
shapes = (
{
closed = 1;
nodes = (
(-27,-139,l),
(63,120,l),
(162,120,l),
(42,-139,l)
);
}
);
width = 252;
}
);
unicode = 44;
},
{
color = 5;
glyphname = hyphen;
layers = (
{
layerId = "EE0A04B7-467B-4BD9-A2DD-E8921F00673F";
shapes = (
{
closed = 1;
nodes = (
(8,189,l),
(38,356,l),
(366,356,l),
(336,189,l)
);
}
);
width = 371;
},
{
layerId = "179DD43A-A894-42A9-B4B6-A7F9368B08A7";
shapes = (
{
closed = 1;
nodes = (
(23,227,l),
(39,319,l),
(319,319,l),
(303,227,l)
);
}
);
width = 339;
},
{
layerId = "7F84CDEE-FC45-41A5-88A7-11DFAD5E6C3A";
shapes = (
{
closed = 1;
nodes = (
(25,234,l),
(39,311,l),
(310,311,l),
(296,234,l)
);
}
);
width = 333;
}
);
unicode = 45;
},
{
color = 5;
glyphname = period;
layers = (
{
layerId = "EE0A04B7-467B-4BD9-A2DD-E8921F00673F";
shapes = (
{
closed = 1;
nodes = (
(228,206,o),
(271,169,o),
(258,97,cs),
(245,25,o),
(190,-13,o),
(126,-13,cs),
(62,-13,o),
(20,25,o),
(33,97,cs),
(45,164,o),
(95,206,o),
(164,206,cs)
);
}
);
width = 350;
},
{
layerId = "179DD43A-A894-42A9-B4B6-A7F9368B08A7";
shapes = (
{
closed = 1;
nodes = (
(163,126,o),
(189,97,o),
(182,58,cs),
(175,19,o),
(139,-11,o),
(102,-11,cs),
(63,-11,o),
(39,19,o),
(45,58,cs),
(53,108,o),
(97,126,o),
(126,126,cs)
);
}
);
width = 300;
},
{
layerId = "7F84CDEE-FC45-41A5-88A7-11DFAD5E6C3A";
shapes = (
{
closed = 1;
nodes = (
(150,110,o),
(173,83,o),
(167,51,cs),
(161,18,o),
(129,-10,o),
(97,-10,cs),
(64,-10,o),
(42,18,o),
(48,51,cs),
(55,91,o),
(91,110,o),
(118,110,cs)
);
}
);
width = 290;
}
);
unicode = 46;
},
{
color = 5;
glyphname = slash;
layers = (
{
layerId = "EE0A04B7-467B-4BD9-A2DD-E8921F00673F";
shapes = (
{
closed = 1;
nodes = (
(-72,-128,l),
(535,798,l),
(689,798,l),
(82,-128,l)
);
}
);
width = 595;
},
{
layerId = "179DD43A-A894-42A9-B4B6-A7F9368B08A7";
shapes = (
{
closed = 1;
nodes = (
(-68,-86,l),
(517,786,l),
(606,786,l),
(19,-86,l)
);
}
);
width = 518;
},
{
layerId = "7F84CDEE-FC45-41A5-88A7-11DFAD5E6C3A";
shapes = (
{
closed = 1;
nodes = (
(-63,-77,l),
(518,783,l),
(594,783,l),
(12,-77,l)
);
}
);
width = 502;
}
);
unicode = 47;
},
{
color = 5;
glyphname = zero;
layers = (
{
layerId = "EE0A04B7-467B-4BD9-A2DD-E8921F00673F";
shapes = (
{
closed = 1;
nodes = (
(227,240,o),
(266,158,o),
(343,158,cs),
(421,158,o),
(485,239,o),
(505,350,cs),
(524,461,o),
(486,542,o),
(409,542,cs),
(324,542,o),
(266,459,o),
(247,352,cs)
);
},
{
closed = 1;
nodes = (
(665,155,o),
(511,-14,o),
(311,-14,cs),
(111,-14,o),
(17,152,o),
(52,350,cs),
(87,548,o),
(242,714,o),
(441,714,cs),
(648,714,o),
(741,580,o),
(700,352,cs)
);
}
);
width = 723;
},
{
layerId = "179DD43A-A894-42A9-B4B6-A7F9368B08A7";
shapes = (
{
closed = 1;
nodes = (
(134,188,o),
(176,78,o),
(287,78,cs),
(395,78,o),
(476,193,o),
(504,352,cs),
(533,515,o),
(489,626,o),
(381,626,cs),
(255,626,o),
(190,503,o),
(164,356,cs)
);
},
{
closed = 1;
nodes = (
(572,141,o),
(449,-14,o),
(269,-14,cs),
(91,-14,o),
(20,134,o),
(58,353,cs),
(95,564,o),
(220,718,o),
(399,718,cs),
(579,718,o),
(647,565,o),
(609,352,cs)
);
}
);
width = 636;
},
{
layerId = "7F84CDEE-FC45-41A5-88A7-11DFAD5E6C3A";
shapes = (
{
closed = 1;
nodes = (
(115,178,o),
(158,62,o),
(275,62,cs),
(389,62,o),
(474,184,o),
(504,352,cs),
(535,527,o),
(490,640,o),
(376,640,cs),
(242,640,o),
(174,510,o),
(147,357,cs)
);
},
{
closed = 1;
nodes = (
(554,139,o),
(436,-14,o),
(260,-14,cs),
(87,-14,o),
(20,130,o),
(59,354,cs),
(97,567,o),
(216,719,o),
(390,719,cs),
(580,719,o),
(628,561,o),
(591,352,cs)
);
}
);
width = 619;
}
);
unicode = 48;
},
{
color = 5;
glyphname = one;
layers = (
{
layerId = "EE0A04B7-467B-4BD9-A2DD-E8921F00673F";
shapes = (
{
closed = 1;
nodes = (
(122,0,l),
(214,524,l),
(59,524,l),
(91,705,l),
(437,705,l),
(313,0,l)
);
}
);
width = 435;
},
{
layerId = "179DD43A-A894-42A9-B4B6-A7F9368B08A7";
shapes = (
{
closed = 1;
nodes = (
(78,0,l),
(186,612,l),
(70,612,l),
(87,708,l),
(305,708,l),
(180,0,l)
);
}
);
width = 330;
},
{
layerId = "7F84CDEE-FC45-41A5-88A7-11DFAD5E6C3A";
shapes = (
{
closed = 1;
nodes = (
(69,0,l),
(180,630,l),
(72,630,l),
(86,708,l),
(278,708,l),
(153,0,l)
);
}
);
width = 309;
}
);
unicode = 49;
},
{
color = 5;
glyphname = two;
layers = (
{
layerId = "EE0A04B7-467B-4BD9-A2DD-E8921F00673F";
shapes = (
{
closed = 1;
nodes = (
(579,406,o),
(526,343,o),
(432,242,cs),
(354,158,l),
(542,158,l),
(514,0,l),
(-40,0,l),
(298,328,ls),
(361,389,o),
(389,437,o),
(395,472,cs),
(403,516,o),
(376,543,o),
(330,543,cs),
(285,543,o),
(232,517,o),
(221,453,c),
(44,453,l),
(74,622,o),
(219,712,o),
(365,712,cs),
(489,712,o),
(623,659,o),
(593,489,cs)
);
}
);
width = 595;
},
{
layerId = "179DD43A-A894-42A9-B4B6-A7F9368B08A7";
shapes = (
{
closed = 1;
nodes = (
(538,448,o),
(484,379,o),
(366,262,cs),
(193,90,l),
(488,90,l),
(472,0,l),
(-18,0,l),
(296,313,ls),
(393,409,o),
(436,473,o),
(446,525,cs),
(455,577,o),
(430,626,o),
(346,626,cs),
(269,626,o),
(213,577,o),
(189,503,c),
(82,503,l),
(129,650,o),
(228,717,o),
(362,717,cs),
(475,717,o),
(576,663,o),
(551,522,cs)
);
}
);
width = 586;
},
{
layerId = "7F84CDEE-FC45-41A5-88A7-11DFAD5E6C3A";
shapes = (
{
closed = 1;
nodes = (
(532,458,o),
(477,386,o),
(355,266,cs),
(162,76,l),
(478,76,l),
(465,0,l),
(-12,0,l),
(297,310,ls),
(399,414,o),
(447,480,o),
(457,536,cs),
(466,589,o),
(443,642,o),
(351,642,cs),
(267,642,o),
(210,589,o),
(183,513,c),
(90,513,l),
(139,654,o),
(233,720,o),
(363,720,cs),
(468,720,o),
(569,663,o),
(544,528,cs)
);
}
);
width = 584;
}
);
unicode = 50;
},
{
color = 5;
glyphname = three;
layers = (
{
layerId = "EE0A04B7-467B-4BD9-A2DD-E8921F00673F";
shapes = (
{
closed = 1;
nodes = (
(447,418,l),
(543,397,o),
(614,340,o),
(593,221,cs),
(568,80,o),
(444,-14,o),
(279,-14,cs),
(151,-14,o),
(60,34,o),
(5,110,c),
(160,219,l),
(197,175,o),
(246,152,o),
(297,152,cs),
(356,152,o),
(397,182,o),
(405,225,cs),
(413,270,o),
(376,297,o),
(303,297,cs),
(290,297,o),
(236,297,o),
(221,297,c),
(211,398,l),
(398,543,l),
(130,543,l),
(157,700,l),
(663,700,l),
(639,561,l)
);
}
);
width = 642;
},
{
layerId = "179DD43A-A894-42A9-B4B6-A7F9368B08A7";
shapes = (
{
closed = 1;
nodes = (
(361,438,l),
(483,433,o),
(564,357,o),
(540,224,cs),
(517,92,o),
(395,-13,o),
(252,-13,cs),
(129,-13,o),
(56,52,o),
(30,148,c),
(121,208,l),
(141,124,o),
(183,78,o),
(267,78,cs),
(350,78,o),
(421,133,o),
(437,222,cs),
(455,323,o),
(391,364,o),
(294,364,cs),
(273,364,o),
(242,363,o),
(220,358,c),
(216,412,l),
(456,626,l),
(157,626,l),
(173,715,l),
(600,715,l),
(585,630,l)
);
}
);
width = 615;
},
{
layerId = "7F84CDEE-FC45-41A5-88A7-11DFAD5E6C3A";
shapes = (
{
closed = 1;
nodes = (
(343,442,l),
(470,439,o),
(552,360,o),
(529,225,cs),
(505,93,o),
(384,-13,o),
(245,-13,cs),
(124,-13,o),
(53,56,o),
(35,156,c),
(112,206,l),
(127,114,o),
(170,63,o),
(259,63,cs),
(347,63,o),
(426,123,o),
(443,221,cs),
(463,334,o),
(391,377,o),
(291,377,cs),
(267,377,o),
(243,375,o),
(218,370,c),
(215,415,l),
(467,642,l),
(161,642,l),
(175,718,l),
(587,718,l),
(574,644,l)
);
}
);
width = 609;
}
);
unicode = 51;
},
{
color = 5;
glyphname = four;
layers = (
{
layerId = "EE0A04B7-467B-4BD9-A2DD-E8921F00673F";
shapes = (
{
closed = 1;
nodes = (
(585,281,l),
(674,281,l),
(648,136,l),
(559,136,l),
(535,0,l),
(347,0,l),
(371,136,l),
(32,136,l),
(24,274,l),
(463,705,l),
(659,705,l)
);
},
{
closed = 1;
nodes = (
(230,281,l),
(397,281,l),
(432,481,l)
);
}
);
width = 695;
},
{
layerId = "179DD43A-A894-42A9-B4B6-A7F9368B08A7";
shapes = (
{
closed = 1;
nodes = (
(500,235,l),
(597,235,l),
(582,150,l),
(485,150,l),
(459,0,l),
(359,0,l),
(385,150,l),
(17,150,l),
(15,237,l),
(446,711,l),
(584,711,l)
);
},
{
closed = 1;
nodes = (
(128,235,l),
(400,235,l),
(466,609,l)
);
}
);
width = 632;
},
{
layerId = "7F84CDEE-FC45-41A5-88A7-11DFAD5E6C3A";
shapes = (
{
closed = 1;
nodes = (
(484,226,l),
(582,226,l),
(569,153,l),
(471,153,l),
(444,0,l),
(362,0,l),
(389,153,l),
(15,153,l),
(12,229,l),
(443,712,l),
(570,712,l)
);
},
{
closed = 1;
nodes = (
(109,226,l),
(402,226,l),
(474,635,l)
);
}
);
width = 619;
}
);
unicode = 52;
},
{
color = 5;
glyphname = five;
layers = (
{
layerId = "EE0A04B7-467B-4BD9-A2DD-E8921F00673F";
shapes = (
{
closed = 1;
nodes = (
(176,700,l),
(644,700,l),
(616,540,l),
(301,540,l),
(277,434,l),
(311,449,o),
(346,459,o),
(393,459,cs),
(518,459,o),
(621,389,o),
(594,237,cs),
(566,81,o),
(432,-14,o),
(261,-14,cs),
(136,-14,o),
(57,29,o),
(-4,97,c),
(130,227,l),
(179,179,o),
(227,151,o),
(287,151,cs),
(351,151,o),
(395,184,o),
(404,235,cs),
(413,286,o),
(377,316,o),
(316,316,cs),
(273,316,o),
(234,301,o),
(198,281,c),
(94,345,l)
);
}
);
width = 635;
},
{
layerId = "179DD43A-A894-42A9-B4B6-A7F9368B08A7";
shapes = (
{
closed = 1;
nodes = (
(180,704,l),
(568,704,l),
(546,615,l),
(247,615,l),
(194,426,l),
(235,438,o),
(267,447,o),
(306,447,cs),
(438,447,o),
(532,363,o),
(508,225,cs),
(482,81,o),
(363,-13,o),
(208,-13,cs),
(107,-13,o),
(48,24,o),
(-8,85,c),
(64,154,l),
(107,106,o),
(156,77,o),
(223,77,cs),
(322,77,o),
(390,136,o),
(405,221,cs),
(420,304,o),
(357,360,o),
(263,360,cs),
(227,360,o),
(194,352,o),
(160,339,c),
(92,375,l)
);
}
);
width = 574;
},
{
layerId = "7F84CDEE-FC45-41A5-88A7-11DFAD5E6C3A";
shapes = (
{
closed = 1;
nodes = (
(179,705,l),
(550,705,l),
(530,630,l),
(234,630,l),
(176,424,l),
(217,436,o),
(249,444,o),
(286,444,cs),
(419,444,o),
(512,358,o),
(488,222,cs),
(463,81,o),
(347,-13,o),
(195,-13,cs),
(99,-13,o),
(43,23,o),
(-10,83,c),
(49,139,l),
(89,91,o),
(140,62,o),
(208,62,cs),
(312,62,o),
(386,126,o),
(402,218,cs),
(418,306,o),
(352,369,o),
(251,369,cs),
(216,369,o),
(184,362,o),
(150,350,c),
(90,381,l)
);
}
);
width = 562;
}
);
unicode = 53;
},
{
color = 5;
glyphname = six;
layers = (
{
layerId = "EE0A04B7-467B-4BD9-A2DD-E8921F00673F";
shapes = (
{
closed = 1;
nodes = (
(311,414,l),
(351,441,o),
(389,458,o),
(448,458,cs),
(571,458,o),
(635,380,o),
(610,240,cs),
(583,83,o),
(444,-14,o),
(284,-14,cs),
(99,-14,o),
(2,84,o),
(26,222,cs),
(39,297,o),
(80,363,o),
(208,515,cs),
(369,706,l),
(572,706,l)
);
},
{
closed = 1;
nodes = (
(367,137,o),
(410,177,o),
(419,229,cs),
(428,280,o),
(397,319,o),
(336,319,cs),
(275,319,o),
(233,280,o),
(224,230,cs),
(213,172,o),
(240,137,o),
(306,137,cs)
);
}
);
width = 649;
},
{
layerId = "179DD43A-A894-42A9-B4B6-A7F9368B08A7";
shapes = (
{
closed = 1;
nodes = (
(243,402,l),
(285,429,o),
(336,433,o),
(361,433,cs),
(484,433,o),
(566,352,o),
(543,219,cs),
(518,82,o),
(394,-14,o),
(253,-14,cs),
(109,-14,o),
(14,77,o),
(39,224,cs),
(52,295,o),
(95,354,o),
(183,458,cs),
(390,706,l),
(503,706,l)
);
},
{
closed = 1;
nodes = (
(355,71,o),
(424,131,o),
(439,216,cs),
(453,295,o),
(404,353,o),
(315,353,cs),
(224,353,o),
(156,290,o),
(142,213,cs),
(126,128,o),
(169,71,o),
(267,71,cs)
);
}
);
width = 600;
},
{
layerId = "7F84CDEE-FC45-41A5-88A7-11DFAD5E6C3A";
shapes = (
{
closed = 1;
nodes = (
(229,399,l),
(272,426,o),
(324,428,o),
(343,428,cs),
(466,428,o),
(552,346,o),
(529,215,cs),
(505,82,o),
(384,-14,o),
(247,-14,cs),
(111,-14,o),
(15,75,o),
(41,224,cs),
(54,295,o),
(98,352,o),
(178,447,cs),
(394,706,l),
(489,706,l)
);
},
{
closed = 1;
nodes = (
(350,58,o),
(427,122,o),
(443,213,cs),
(458,298,o),
(404,360,o),
(311,360,cs),
(215,360,o),
(140,292,o),
(125,209,cs),
(108,120,o),
(155,58,o),
(258,58,cs)
);
}
);
width = 590;
}
);
unicode = 54;
},
{
color = 5;
glyphname = seven;
layers = (
{
layerId = "EE0A04B7-467B-4BD9-A2DD-E8921F00673F";
shapes = (
{
closed = 1;
nodes = (
(-2,0,l),
(401,537,l),
(77,537,l),
(105,700,l),
(644,700,l),
(619,554,l),
(212,0,l)
);
}
);
width = 558;
},
{
layerId = "179DD43A-A894-42A9-B4B6-A7F9368B08A7";
shapes = (
{
closed = 1;
nodes = (
(15,0,l),
(461,615,l),
(82,615,l),
(98,704,l),
(587,704,l),
(572,617,l),
(128,0,l)
);
}
);
width = 521;
},
{
layerId = "7F84CDEE-FC45-41A5-88A7-11DFAD5E6C3A";
shapes = (
{
closed = 1;
nodes = (
(19,0,l),
(474,630,l),
(84,630,l),
(97,705,l),
(576,705,l),
(563,629,l),
(112,0,l)
);
}
);
width = 513;
}
);
unicode = 55;
},
{
color = 5;
glyphname = eight;
layers = (
{
layerId = "EE0A04B7-467B-4BD9-A2DD-E8921F00673F";
shapes = (
{
closed = 1;
nodes = (
(580,330,o),
(618,272,o),
(605,196,cs),
(583,71,o),
(448,-12,o),
(280,-12,cs),
(112,-12,o),
(7,72,o),
(28,195,cs),
(42,275,o),
(96,331,o),
(178,363,c),
(127,394,o),
(96,440,o),
(109,516,cs),
(129,628,o),
(251,712,o),
(408,712,cs),
(565,712,o),
(660,628,o),
(637,516,cs),
(623,448,o),
(575,392,o),
(514,363,c)
);
},
{
closed = 1;
nodes = (
(407,416,o),
(448,453,o),
(455,493,cs),
(462,533,o),
(435,567,o),
(382,567,cs),
(329,567,o),
(291,534,o),
(283,494,cs),
(273,446,o),
(301,416,o),
(355,416,cs)
);
},
{
closed = 1;
nodes = (
(370,133,o),
(413,172,o),
(421,214,cs),
(429,259,o),
(392,290,o),
(333,290,cs),
(274,290,o),
(228,259,o),
(219,214,cs),
(210,166,o),
(244,133,o),
(305,133,cs)
);
}
);
width = 658;
},
{
layerId = "179DD43A-A894-42A9-B4B6-A7F9368B08A7";
shapes = (
{
closed = 1;
nodes = (
(537,335,o),
(577,276,o),
(562,193,cs),
(540,69,o),
(416,-12,o),
(272,-12,cs),
(128,-12,o),
(33,75,o),
(54,191,cs),
(68,275,o),
(128,333,o),
(219,369,c),
(157,401,o),
(126,456,o),
(139,529,cs),
(158,638,o),
(275,717,o),
(400,717,cs),
(524,717,o),
(617,638,o),
(596,526,cs),
(581,443,o),
(526,400,o),
(458,368,c)
);
},
{
closed = 1;
nodes = (
(418,405,o),
(484,453,o),
(496,521,cs),
(507,585,o),
(460,633,o),
(386,633,cs),
(313,633,o),
(249,585,o),
(237,520,cs),
(225,457,o),
(263,405,o),
(345,405,cs)
);
},
{
closed = 1;
nodes = (
(378,72,o),
(449,130,o),
(461,199,cs),
(474,271,o),
(419,324,o),
(331,324,cs),
(243,324,o),
(170,271,o),
(158,199,cs),
(145,122,o),
(193,72,o),
(287,72,cs)
);
}
);
width = 642;
},
{
layerId = "7F84CDEE-FC45-41A5-88A7-11DFAD5E6C3A";
shapes = (
{
closed = 1;
nodes = (
(529,336,o),
(569,276,o),
(554,192,cs),
(532,69,o),
(410,-12,o),
(270,-12,cs),
(130,-12,o),
(38,75,o),
(59,190,cs),
(73,274,o),
(133,333,o),
(227,370,c),
(161,402,o),
(133,459,o),
(146,531,cs),
(165,640,o),
(279,718,o),
(399,718,cs),
(517,718,o),
(610,639,o),
(587,528,cs),
(572,452,o),
(520,400,o),
(447,369,c)
);
},
{
closed = 1;
nodes = (
(420,403,o),
(491,453,o),
(504,526,cs),
(516,595,o),
(464,646,o),
(386,646,cs),
(312,646,o),
(244,600,o),
(228,526,cs),
(214,459,o),
(256,403,o),
(343,403,cs)
);
},
{
closed = 1;
nodes = (
(379,60,o),
(455,120,o),
(469,196,cs),
(482,275,o),
(424,331,o),
(330,331,cs),
(237,331,o),
(160,274,o),
(146,196,cs),
(133,123,o),
(182,60,o),
(283,60,cs)
);
}
);
width = 639;
}
);
unicode = 56;
},
{
color = 5;
glyphname = nine;
layers = (
{
layerId = "EE0A04B7-467B-4BD9-A2DD-E8921F00673F";
shapes = (
{
closed = 1;
nodes = (
(368,292,l),
(327,264,o),
(282,248,o),
(232,248,cs),
(109,248,o),
(45,328,o),
(70,468,cs),
(97,624,o),
(239,720,o),
(392,720,cs),
(583,720,o),
(678,622,o),
(653,484,cs),
(644,433,o),
(619,378,o),
(537,277,cs),
(310,0,l),
(107,0,l)
);
},
{
closed = 1;
nodes = (
(312,569,o),
(269,530,o),
(260,479,cs),
(252,429,o),
(282,387,o),
(343,387,cs),
(404,387,o),
(447,427,o),
(456,478,cs),
(465,526,o),
(438,569,o),
(373,569,cs)
);
}
);
width = 649;
},
{
layerId = "179DD43A-A894-42A9-B4B6-A7F9368B08A7";
shapes = (
{
closed = 1;
nodes = (
(383,304,l),
(342,277,o),
(302,268,o),
(267,268,cs),
(143,268,o),
(62,356,o),
(85,486,cs),
(109,622,o),
(234,720,o),
(373,720,cs),
(521,720,o),
(612,626,o),
(587,480,cs),
(572,396,o),
(516,329,o),
(452,253,cs),
(236,-2,l),
(124,-2,l)
);
},
{
closed = 1;
nodes = (
(273,634,o),
(203,571,o),
(189,492,cs),
(175,412,o),
(223,352,o),
(311,352,cs),
(398,352,o),
(470,415,o),
(485,492,cs),
(501,575,o),
(456,634,o),
(360,634,cs)
);
}
);
width = 597;
},
{
layerId = "7F84CDEE-FC45-41A5-88A7-11DFAD5E6C3A";
shapes = (
{
closed = 1;
nodes = (
(387,306,l),
(346,279,o),
(307,272,o),
(276,272,cs),
(153,272,o),
(66,361,o),
(88,490,cs),
(111,621,o),
(234,720,o),
(370,720,cs),
(510,720,o),
(601,627,o),
(574,479,cs),
(559,391,o),
(496,317,o),
(436,248,cs),
(222,-2,l),
(129,-2,l)
);
},
{
closed = 1;
nodes = (
(266,647,o),
(190,579,o),
(175,494,cs),
(160,408,o),
(214,345,o),
(306,345,cs),
(398,345,o),
(476,413,o),
(491,495,cs),
(505,573,o),
(460,647,o),
(358,647,cs)
);
}
);
width = 586;
}
);
unicode = 57;
},
{
color = 5;
glyphname = colon;
layers = (
{
layerId = "EE0A04B7-467B-4BD9-A2DD-E8921F00673F";
shapes = (
{
closed = 1;
nodes = (
(228,206,o),
(271,169,o),
(258,97,cs),
(245,25,o),
(190,-13,o),
(126,-13,cs),
(62,-13,o),
(20,25,o),
(33,97,cs),
(45,164,o),
(95,206,o),
(164,206,cs)
);
},
{
closed = 1;
nodes = (
(289,552,o),
(332,515,o),
(319,443,cs),
(306,371,o),
(251,333,o),
(187,333,cs),
(123,333,o),
(81,371,o),
(94,443,cs),
(106,510,o),
(156,552,o),
(225,552,cs)
);
}
);
width = 350;
},
{
layerId = "179DD43A-A894-42A9-B4B6-A7F9368B08A7";
shapes = (
{
closed = 1;
nodes = (
(163,126,o),
(189,97,o),
(182,58,cs),
(175,19,o),
(139,-11,o),
(102,-11,cs),
(63,-11,o),
(39,19,o),
(45,58,cs),
(53,108,o),
(97,126,o),
(126,126,cs)
);
},
{
closed = 1;
nodes = (
(230,501,o),
(256,472,o),
(249,433,cs),
(242,394,o),
(206,364,o),
(169,364,cs),
(130,364,o),
(106,394,o),
(112,433,cs),
(120,483,o),
(164,501,o),
(193,501,cs)
);
}
);
width = 301;
},
{
layerId = "7F84CDEE-FC45-41A5-88A7-11DFAD5E6C3A";
shapes = (
{
closed = 1;
nodes = (
(150,110,o),
(173,83,o),
(167,51,cs),
(161,18,o),
(129,-10,o),
(97,-10,cs),
(64,-10,o),
(42,18,o),
(48,51,cs),
(55,91,o),
(91,110,o),
(118,110,cs)
);
},
{
closed = 1;
nodes = (
(218,490,o),
(241,463,o),
(235,431,cs),
(229,398,o),
(197,370,o),
(165,370,cs),
(132,370,o),
(110,398,o),
(116,431,cs),
(123,471,o),
(159,490,o),
(186,490,cs)
);
}
);
width = 291;
}
);
unicode = 58;
},
{
color = 5;
glyphname = semicolon;
layers = (
{
layerId = "EE0A04B7-467B-4BD9-A2DD-E8921F00673F";
shapes = (
{
closed = 1;
nodes = (
(260,552,o),
(303,515,o),
(290,443,cs),
(277,371,o),
(222,333,o),
(158,333,cs),
(94,333,o),
(52,371,o),
(65,443,cs),
(77,510,o),
(127,552,o),
(196,552,cs)
);
},
{
closed = 1;
nodes = (
(-66,-164,l),
(60,197,l),
(231,197,l),
(64,-164,l)
);
}
);
width = 297;
},
{
layerId = "179DD43A-A894-42A9-B4B6-A7F9368B08A7";
shapes = (
{
closed = 1;
nodes = (
(206,501,o),
(232,472,o),
(225,433,cs),
(218,394,o),
(182,364,o),
(145,364,cs),
(106,364,o),
(82,394,o),
(88,433,cs),
(96,483,o),
(140,501,o),
(169,501,cs)
);
},
{
closed = 1;
nodes = (
(-42,-143,l),
(53,133,l),
(165,133,l),
(38,-143,l)
);
}
);
width = 261;
},
{
layerId = "7F84CDEE-FC45-41A5-88A7-11DFAD5E6C3A";
shapes = (
{
closed = 1;
nodes = (
(196,490,o),
(219,463,o),
(213,431,cs),
(207,398,o),
(175,370,o),
(143,370,cs),
(110,370,o),
(88,398,o),
(94,431,cs),
(101,471,o),
(137,490,o),
(164,490,cs)
);
},
{
closed = 1;
nodes = (
(-37,-139,l),
(52,120,l),
(153,120,l),
(33,-139,l)
);
}
);
width = 254;
}
);
unicode = 59;
},
{
color = 5;
glyphname = less;
layers = (
{
layerId = "EE0A04B7-467B-4BD9-A2DD-E8921F00673F";
shapes = (
{
closed = 1;
nodes = (
(270,352,l),
(578,243,l),
(546,65,l),
(84,263,l),
(116,440,l),
(647,638,l),
(616,461,l)
);
}
);
width = 666;
},
{
layerId = "179DD43A-A894-42A9-B4B6-A7F9368B08A7";
shapes = (
{
closed = 1;
nodes = (
(181,345,l),
(527,172,l),
(511,77,l),
(69,300,l),
(84,388,l),
(605,611,l),
(588,515,l)
);
}
);
width = 606;
},
{
layerId = "7F84CDEE-FC45-41A5-88A7-11DFAD5E6C3A";
shapes = (
{
closed = 1;
nodes = (
(162,343,l),
(517,158,l),
(503,79,l),
(65,307,l),
(78,378,l),
(596,606,l),
(582,526,l)
);
}
);
width = 594;
}
);
unicode = 60;
},
{
color = 5;
glyphname = equal;
layers = (
{
layerId = "EE0A04B7-467B-4BD9-A2DD-E8921F00673F";
shapes = (
{
closed = 1;
nodes = (
(596,403,l),
(105,403,l),
(135,570,l),
(626,570,l)
);
},
{
closed = 1;
nodes = (
(549,134,l),
(58,134,l),
(87,301,l),
(578,301,l)
);
}
);
width = 653;
},
{
layerId = "179DD43A-A894-42A9-B4B6-A7F9368B08A7";
shapes = (
{
closed = 1;
nodes = (
(559,432,l),
(82,432,l),
(98,523,l),
(575,523,l)
);
},
{
closed = 1;
nodes = (
(516,186,l),
(39,186,l),
(55,276,l),
(532,276,l)
);
}
);
width = 582;
},
{
layerId = "7F84CDEE-FC45-41A5-88A7-11DFAD5E6C3A";
shapes = (
{
closed = 1;
nodes = (
(554,438,l),
(77,438,l),
(90,513,l),
(564,513,l)
);
},
{
closed = 1;
nodes = (
(509,196,l),
(35,196,l),
(48,271,l),
(522,271,l)
);
}
);
width = 568;
}
);
unicode = 61;
},
{
color = 5;
glyphname = greater;
layers = (
{
layerId = "EE0A04B7-467B-4BD9-A2DD-E8921F00673F";
shapes = (
{
closed = 1;
nodes = (
(613,440,l),
(581,263,l),
(49,65,l),
(81,242,l),
(427,351,l),
(119,460,l),
(150,638,l)
);
}
);
width = 667;
},
{
layerId = "179DD43A-A894-42A9-B4B6-A7F9368B08A7";
shapes = (
{
closed = 1;
nodes = (
(564,389,l),
(548,299,l),
(29,78,l),
(46,174,l),
(452,344,l),
(106,514,l),
(123,611,l)
);
}
);
width = 605;
},
{
layerId = "7F84CDEE-FC45-41A5-88A7-11DFAD5E6C3A";
shapes = (
{
closed = 1;
nodes = (
(555,379,l),
(542,306,l),
(25,80,l),
(39,160,l),
(457,342,l),
(104,525,l),
(118,606,l)
);
}
);
width = 593;
}
);
unicode = 62;
},
{
color = 5;
glyphname = question;
layers = (
{
layerId = "EE0A04B7-467B-4BD9-A2DD-E8921F00673F";
shapes = (
{
closed = 1;
nodes = (
(98,613,l),
(162,681,o),
(245,709,o),
(329,709,cs),
(452,709,o),
(552,637,o),
(529,506,cs),
(513,416,o),
(458,376,o),
(384,325,cs),
(346,299,o),
(334,287,o),
(327,249,cs),
(321,218,l),
(147,218,l),
(155,261,ls),
(169,342,o),
(222,384,o),
(270,417,cs),
(300,438,o),
(331,465,o),
(336,494,cs),
(343,531,o),
(303,547,o),
(265,547,cs),
(202,547,o),
(135,507,o),
(70,455,c)
);
},
{
closed = 1;
nodes = (
(295,180,o),
(337,148,o),
(326,84,cs),
(315,20,o),
(261,-13,o),
(201,-13,cs),
(141,-13,o),
(99,20,o),
(111,84,cs),
(126,162,o),
(188,180,o),
(235,180,cs)
);
}
);
width = 524;
},
{
layerId = "179DD43A-A894-42A9-B4B6-A7F9368B08A7";
shapes = (
{
closed = 1;
nodes = (
(117,643,l),
(160,688,o),
(225,716,o),
(297,716,cs),
(407,716,o),
(472,649,o),
(454,544,cs),
(440,465,o),
(389,411,o),
(329,366,cs),
(273,323,o),
(246,292,o),
(235,227,cs),
(229,195,l),
(131,195,l),
(142,254,ls),
(157,339,o),
(214,386,o),
(265,427,cs),
(307,460,o),
(344,491,o),
(352,536,cs),
(359,581,o),
(331,625,o),
(267,625,cs),
(211,625,o),
(152,594,o),
(99,536,c)
);
},
{
closed = 1;
nodes = (
(211,121,o),
(236,92,o),
(230,56,cs),
(223,15,o),
(188,-10,o),
(149,-10,cs),
(113,-10,o),
(88,15,o),
(94,56,cs),
(100,94,o),
(132,121,o),
(172,121,cs)
);
}
);
width = 456;
},
{
layerId = "7F84CDEE-FC45-41A5-88A7-11DFAD5E6C3A";
shapes = (
{
closed = 1;
nodes = (
(121,649,l),
(159,689,o),
(222,717,o),
(290,717,cs),
(398,717,o),
(456,650,o),
(438,551,cs),
(425,475,o),
(376,419,o),
(317,374,cs),
(258,328,o),
(229,293,o),
(216,222,cs),
(211,190,l),
(129,190,l),
(139,252,ls),
(155,338,o),
(212,387,o),
(265,429,cs),
(308,464,o),
(346,496,o),
(355,544,cs),
(363,592,o),
(337,641,o),
(267,641,cs),
(213,641,o),
(153,609,o),
(104,552,c)
);
},
{
closed = 1;
nodes = (
(193,109,o),
(216,81,o),
(211,50,c),
(204,14,o),
(172,-9,o),
(139,-9,cs),
(107,-9,o),
(83,14,o),
(90,51,cs),
(97,83,o),
(123,109,o),
(160,109,cs)
);
}
);
width = 442;
}
);
unicode = 63;
},
{
color = 5;
glyphname = at;
layers = (
{
layerId = "EE0A04B7-467B-4BD9-A2DD-E8921F00673F";
shapes = (
{
closed = 1;
nodes = (
(366,221,o),
(391,194,o),
(434,194,cs),
(487,194,o),
(539,245,o),
(550,309,cs),
(559,356,o),
(534,385,o),
(491,385,cs),
(438,385,o),
(386,341,o),
(375,272,cs)
);
},
{
closed = 1;
nodes = (
(686,-87,l),
(600,-134,o),
(511,-162,o),
(407,-162,cs),
(149,-162,o),
(-4,32,o),
(38,275,cs),
(81,516,o),
(307,714,o),
(559,714,cs),
(807,714,o),
(959,537,o),
(921,325,cs),
(889,144,o),
(770,57,o),
(661,57,cs),
(577,57,o),
(537,92,o),
(520,133,c),
(474,89,o),
(424,59,o),
(360,59,cs),
(256,59,o),
(191,138,o),
(213,260,cs),
(238,403,o),
(361,520,o),
(480,520,cs),
(545,520,o),
(581,487,o),
(601,446,c),
(623,507,l),
(774,483,l),
(683,225,ls),
(666,174,o),
(671,122,o),
(726,122,cs),
(791,122,o),
(846,192,o),
(869,325,cs),
(903,517,o),
(779,667,o),
(551,667,cs),
(319,667,o),
(129,496,o),
(90,275,cs),
(51,52,o),
(178,-112,o),
(416,-112,cs),
(512,-112,o),
(588,-99,o),
(671,-55,c)
);
}
);
width = 948;
},
{
layerId = "179DD43A-A894-42A9-B4B6-A7F9368B08A7";
shapes = (
{
closed = 1;
nodes = (
(316,226,o),
(345,178,o),
(408,178,cs),
(484,178,o),
(558,254,o),
(572,334,cs),
(583,399,o),
(553,445,o),
(489,445,cs),
(413,445,o),
(345,389,o),
(328,295,cs)
);
},
{
closed = 1;
nodes = (
(694,-21,l),
(604,-76,o),
(509,-105,o),
(405,-105,cs),
(160,-105,o),
(15,74,o),
(55,303,cs),
(96,534,o),
(310,718,o),
(545,718,cs),
(767,718,o),
(915,556,o),
(879,352,cs),
(851,191,o),
(752,100,o),
(647,100,cs),
(583,100,o),
(553,129,o),
(542,184,c),
(499,137,o),
(447,102,o),
(379,102,cs),
(279,102,o),
(217,179,o),
(236,290,cs),
(259,417,o),
(375,523,o),
(493,523,cs),
(561,523,o),
(593,490,o),
(613,446,c),
(634,510,l),
(716,501,l),
(632,237,l),
(620,188,o),
(635,152,o),
(678,152,cs),
(741,152,o),
(807,227,o),
(827,343,cs),
(860,529,o),
(738,673,o),
(536,673,cs),
(328,673,o),
(145,514,o),
(108,305,cs),
(71,98,o),
(191,-60,o),
(421,-60,cs),
(514,-60,o),
(592,-36,o),
(676,13,c)
);
}
);
width = 913;
},
{
layerId = "7F84CDEE-FC45-41A5-88A7-11DFAD5E6C3A";
shapes = (
{
closed = 1;
nodes = (
(306,227,o),
(338,175,o),
(403,175,cs),
(484,175,o),
(561,256,o),
(576,339,cs),
(588,407,o),
(556,452,o),
(488,452,cs),
(407,452,o),
(336,396,o),
(319,299,cs)
);
},
{
closed = 1;
nodes = (
(696,-8,l),
(605,-64,o),
(510,-93,o),
(406,-93,cs),
(162,-93,o),
(18,82,o),
(58,309,cs),
(99,537,o),
(310,719,o),
(542,719,cs),
(759,719,o),
(906,560,o),
(870,357,cs),
(842,200,o),
(746,109,o),
(643,109,cs),
(583,109,o),
(556,138,o),
(547,194,c),
(506,147,o),
(451,111,o),
(383,111,cs),
(283,111,o),
(221,187,o),
(240,296,cs),
(262,420,o),
(378,524,o),
(496,524,cs),
(564,524,o),
(597,490,o),
(615,446,c),
(636,511,l),
(705,505,l),
(621,239,l),
(613,191,o),
(628,158,o),
(668,158,cs),
(731,158,o),
(799,234,o),
(819,346,cs),
(852,531,o),
(729,674,o),
(533,674,cs),
(328,674,o),
(147,516,o),
(111,312,cs),
(75,107,o),
(194,-49,o),
(422,-49,cs),
(514,-49,o),
(592,-23,o),
(678,26,c)
);
}
);
width = 906;
}
);
unicode = 64;
},
{
color = 5;
glyphname = A;
layers = (
{
layerId = "EE0A04B7-467B-4BD9-A2DD-E8921F00673F";
shapes = (
{
closed = 1;
nodes = (
(149,0,l),
(-55,0,l),
(367,705,l),
(554,705,l),
(728,0,l),
(520,0,l),
(491,125,l),
(221,125,l)
);
},
{
closed = 1;
nodes = (
(462,276,l),
(419,475,l),
(305,276,l)
);
}
);
width = 767;
},
{
layerId = "179DD43A-A894-42A9-B4B6-A7F9368B08A7";
shapes = (
{
closed = 1;
nodes = (
(57,0,l),
(-53,0,l),
(378,705,l),
(467,705,l),
(651,0,l),
(538,0,l),
(493,185,l),
(170,185,l)
);
},
{
closed = 1;
nodes = (
(472,273,l),
(401,584,l),
(221,273,l)
);
}
);
width = 692;
},
{
layerId = "7F84CDEE-FC45-41A5-88A7-11DFAD5E6C3A";
shapes = (
{
closed = 1;
nodes = (
(39,0,l),
(-52,0,l),
(380,705,l),
(450,705,l),
(635,0,l),
(542,0,l),
(493,197,l),
(159,197,l)
);
},
{
closed = 1;
nodes = (
(474,272,l),
(398,606,l),
(204,272,l)
);
}
);
width = 677;
}
);
unicode = 65;
},
{
color = 5;
glyphname = B;
layers = (
{
layerId = "EE0A04B7-467B-4BD9-A2DD-E8921F00673F";
shapes = (
{
closed = 1;
nodes = (
(491,700,ls),
(638,700,o),
(718,635,o),
(698,524,cs),
(684,443,o),
(631,393,o),
(563,366,c),
(643,341,o),
(688,290,o),
(671,195,cs),
(650,75,o),
(539,0,o),
(370,0,cs),
(11,0,l),
(134,700,l)
);
},
{
closed = 1;
nodes = (
(395,421,ls),
(454,421,o),
(490,443,o),
(497,484,cs),
(504,523,o),
(478,544,o),
(421,544,cs),
(296,544,l),
(274,421,l)
);
},
{
closed = 1;
nodes = (
(377,156,ls),
(437,156,o),
(475,181,o),
(482,222,cs),
(489,260,o),
(461,285,o),
(397,285,cs),
(250,285,l),
(228,156,l)
);
}
);
width = 718;
},
{
layerId = "179DD43A-A894-42A9-B4B6-A7F9368B08A7";
shapes = (
{
closed = 1;
nodes = (
(380,704,ls),
(508,704,o),
(617,656,o),
(594,527,cs),
(581,451,o),
(535,391,o),
(463,366,c),
(572,349,o),
(610,281,o),
(594,194,cs),
(575,87,o),
(477,0,o),
(280,0,cs),
(29,0,l),
(153,704,l)
);
},
{
closed = 1;
nodes = (
(328,400,ls),
(425,400,o),
(478,447,o),
(489,510,cs),
(502,583,o),
(454,617,o),
(367,617,cs),
(240,617,l),
(202,400,l)
);
},
{
closed = 1;
nodes = (
(304,88,ls),
(421,88,o),
(480,129,o),
(493,202,cs),
(505,275,o),
(460,316,o),
(316,316,cs),
(187,316,l),
(147,88,l)
);
}
);
width = 651;
},
{
layerId = "7F84CDEE-FC45-41A5-88A7-11DFAD5E6C3A";
shapes = (
{
closed = 1;
nodes = (
(358,705,ls),
(482,705,o),
(596,660,o),
(573,527,cs),
(560,451,o),
(515,391,o),
(443,366,c),
(557,350,o),
(593,279,o),
(578,194,cs),
(560,89,o),
(465,0,o),
(262,0,cs),
(33,0,l),
(157,705,l)
);
},
{
closed = 1;
nodes = (
(314,396,ls),
(419,396,o),
(475,448,o),
(487,515,cs),
(501,595,o),
(447,631,o),
(355,631,cs),
(228,631,l),
(187,396,l)
);
},
{
closed = 1;
nodes = (
(289,74,ls),
(418,74,o),
(481,118,o),
(495,198,cs),
(509,278,o),
(460,322,o),
(300,322,cs),
(174,322,l),
(130,74,l)
);
}
);
width = 637;
}
);
unicode = 66;
},
{
color = 5;
glyphname = C;
layers = (
{
layerId = "EE0A04B7-467B-4BD9-A2DD-E8921F00673F";
shapes = (
{
closed = 1;
nodes = (
(584,54,l),
(511,9,o),
(436,-14,o),
(348,-14,cs),
(148,-14,o),
(14,141,o),
(51,350,cs),
(87,554,o),
(272,714,o),
(484,714,cs),
(572,714,o),
(635,691,o),
(684,652,c),
(649,455,l),
(613,502,o),
(550,537,o),
(471,537,cs),
(353,537,o),
(269,454,o),
(251,352,cs),
(232,245,o),
(286,163,o),
(405,163,cs),
(479,163,o),
(547,192,o),
(618,248,c)
);
}
);
width = 665;
},
{
layerId = "179DD43A-A894-42A9-B4B6-A7F9368B08A7";
shapes = (
{
closed = 1;
nodes = (
(609,74,l),
(536,21,o),
(460,-14,o),
(361,-14,cs),
(157,-14,o),
(27,144,o),
(64,351,cs),
(100,556,o),
(283,718,o),
(494,718,cs),
(587,718,o),
(648,688,o),
(697,645,c),
(677,532,l),
(637,587,o),
(579,625,o),
(475,625,cs),
(322,625,o),
(197,502,o),
(170,352,cs),
(143,201,o),
(226,80,o),
(379,80,cs),
(478,80,o),
(552,128,o),
(629,187,c)
);
}
);
width = 699;
},
{
layerId = "7F84CDEE-FC45-41A5-88A7-11DFAD5E6C3A";
shapes = (
{
closed = 1;
nodes = (
(614,78,l),
(540,22,o),
(463,-14,o),
(363,-14,cs),
(158,-14,o),
(29,144,o),
(66,351,cs),
(102,558,o),
(285,719,o),
(495,719,cs),
(591,719,o),
(650,687,o),
(699,643,c),
(682,547,l),
(641,604,o),
(585,643,o),
(476,643,cs),
(316,643,o),
(181,512,o),
(153,352,cs),
(125,192,o),
(214,63,o),
(374,63,cs),
(476,63,o),
(552,116,o),
(631,175,c)
);
}
);
width = 706;
}
);
unicode = 67;
},
{
color = 5;
glyphname = D;
layers = (
{
layerId = "EE0A04B7-467B-4BD9-A2DD-E8921F00673F";
shapes = (
{
closed = 1;
nodes = (
(404,700,ls),
(655,700,o),
(774,557,o),
(738,354,cs),
(703,152,o),
(529,0,o),
(277,0,cs),
(11,0,l),
(134,700,l)
);
},
{
closed = 1;
nodes = (
(314,172,ls),
(430,172,o),
(519,238,o),
(539,351,cs),
(559,463,o),
(492,528,o),
(377,528,cs),
(298,528,l),
(235,172,l)
);
}
);
width = 761;
},
{
layerId = "179DD43A-A894-42A9-B4B6-A7F9368B08A7";
shapes = (
{
closed = 1;
nodes = (
(383,704,ls),
(603,704,o),
(738,565,o),
(700,353,cs),
(664,147,o),
(488,0,o),
(257,0,cs),
(29,0,l),
(153,704,l)
);
},
{
closed = 1;
nodes = (
(271,92,ls),
(447,92,o),
(565,199,o),
(592,351,cs),
(614,479,o),
(554,611,o),
(403,611,cs),
(241,611,l),
(149,92,l)
);
}
);
width = 734;
},
{
layerId = "7F84CDEE-FC45-41A5-88A7-11DFAD5E6C3A";
shapes = (
{
closed = 1;
nodes = (
(378,705,ls),
(592,705,o),
(730,566,o),
(692,353,cs),
(656,146,o),
(480,0,o),
(253,0,cs),
(33,0,l),
(157,705,l)
);
},
{
closed = 1;
nodes = (
(262,76,ls),
(450,76,o),
(574,191,o),
(602,351,cs),
(625,482,o),
(566,628,o),
(408,628,cs),
(229,628,l),
(131,76,l)
);
}
);
width = 729;
}
);
unicode = 68;
},
{
color = 5;
glyphname = E;
layers = (
{
layerId = "EE0A04B7-467B-4BD9-A2DD-E8921F00673F";
shapes = (
{
closed = 1;
nodes = (
(608,165,l),
(579,0,l),
(11,0,l),
(134,700,l),
(697,700,l),
(668,535,l),
(297,535,l),
(279,429,l),
(615,429,l),
(588,276,l),
(252,276,l),
(232,165,l)
);
}
);
width = 675;
},
{
layerId = "179DD43A-A894-42A9-B4B6-A7F9368B08A7";
shapes = (
{
closed = 1;
nodes = (
(533,91,l),
(517,0,l),
(29,0,l),
(153,704,l),
(631,704,l),
(615,613,l),
(241,613,l),
(204,402,l),
(548,402,l),
(532,314,l),
(188,314,l),
(149,91,l)
);
}
);
width = 628;
},
{
layerId = "7F84CDEE-FC45-41A5-88A7-11DFAD5E6C3A";
shapes = (
{
closed = 1;
nodes = (
(517,76,l),
(504,0,l),
(33,0,l),
(157,705,l),
(617,705,l),
(604,629,l),
(230,629,l),
(189,397,l),
(534,397,l),
(521,321,l),
(176,321,l),
(132,76,l)
);
}
);
width = 618;
}
);
unicode = 69;
},
{
color = 5;
glyphname = F;
layers = (
{
layerId = "EE0A04B7-467B-4BD9-A2DD-E8921F00673F";
shapes = (
{
closed = 1;
nodes = (
(11,0,l),
(134,700,l),
(694,700,l),
(664,530,l),
(298,530,l),
(277,411,l),
(608,411,l),
(580,250,l),
(249,250,l),
(205,0,l)
);
}
);
width = 659;
},
{
layerId = "179DD43A-A894-42A9-B4B6-A7F9368B08A7";
shapes = (
{
closed = 1;
nodes = (
(29,-2,l),
(153,704,l),
(628,704,l),
(612,613,l),
(241,613,l),
(202,393,l),
(541,393,l),
(525,303,l),
(186,303,l),
(133,-2,l)
);
}
);
width = 601;
},
{
layerId = "7F84CDEE-FC45-41A5-88A7-11DFAD5E6C3A";
shapes = (
{
closed = 1;
nodes = (
(43,0,l),
(167,705,l),
(624,705,l),
(611,629,l),
(239,629,l),
(197,389,l),
(538,389,l),
(524,313,l),
(183,313,l),
(128,0,l)
);
}
);
width = 589;
}
);
unicode = 70;
},
{
color = 5;
glyphname = G;
layers = (
{
layerId = "EE0A04B7-467B-4BD9-A2DD-E8921F00673F";
shapes = (
{
closed = 1;
nodes = (
(424,409,l),
(746,409,l),
(739,369,ls),
(686,68,o),
(503,-14,o),
(348,-14,cs),
(150,-14,o),
(13,138,o),
(51,350,cs),
(87,554,o),
(275,714,o),
(492,714,cs),
(560,714,o),
(631,701,o),
(676,680,c),
(640,475,l),
(596,518,o),
(537,541,o),
(472,541,cs),
(361,541,o),
(268,456,o),
(250,349,cs),
(229,234,o),
(293,153,o),
(387,153,cs),
(441,153,o),
(522,183,o),
(537,267,c),
(399,267,l)
);
}
);
width = 759;
},
{
layerId = "179DD43A-A894-42A9-B4B6-A7F9368B08A7";
shapes = (
{
closed = 1;
nodes = (
(498,401,l),
(794,401,l),
(789,372,ls),
(749,147,o),
(598,-16,o),
(366,-16,cs),
(154,-16,o),
(28,147,o),
(64,352,cs),
(100,556,o),
(298,718,o),
(510,718,cs),
(587,718,o),
(661,700,o),
(721,653,c),
(701,540,l),
(659,591,o),
(592,626,o),
(500,626,cs),
(345,626,o),
(194,500,o),
(168,352,cs),
(140,195,o),
(236,77,o),
(389,77,cs),
(529,77,o),
(656,168,o),
(681,312,c),
(482,312,l)
);
}
);
width = 819;
},
{
layerId = "7F84CDEE-FC45-41A5-88A7-11DFAD5E6C3A";
shapes = (
{
closed = 1;
nodes = (
(512,399,l),
(803,399,l),
(799,373,ls),
(762,163,o),
(617,-16,o),
(369,-16,cs),
(156,-16,o),
(30,149,o),
(66,352,cs),
(102,557,o),
(302,719,o),
(513,719,cs),
(593,719,o),
(667,699,o),
(730,647,c),
(713,553,l),
(671,604,o),
(602,643,o),
(505,643,cs),
(342,643,o),
(179,510,o),
(151,352,cs),
(122,187,o),
(224,62,o),
(389,62,cs),
(545,62,o),
(682,165,o),
(710,321,c),
(499,321,l)
);
}
);
width = 831;
}
);
unicode = 71;
},
{
color = 5;
glyphname = H;
layers = (
{
layerId = "EE0A04B7-467B-4BD9-A2DD-E8921F00673F";
shapes = (
{
closed = 1;
nodes = (
(328,700,l),
(282,438,l),
(531,438,l),
(577,700,l),
(771,700,l),
(648,0,l),
(454,0,l),
(501,266,l),
(252,266,l),
(205,0,l),
(11,0,l),
(134,700,l)
);
}
);
width = 754;
},
{
layerId = "179DD43A-A894-42A9-B4B6-A7F9368B08A7";
shapes = (
{
closed = 1;
nodes = (
(256,705,l),
(203,405,l),
(563,405,l),
(616,705,l),
(718,705,l),
(594,0,l),
(492,0,l),
(547,311,l),
(187,311,l),
(132,0,l),
(29,0,l),
(153,705,l)
);
}
);
width = 717;
},
{
layerId = "7F84CDEE-FC45-41A5-88A7-11DFAD5E6C3A";
shapes = (
{
closed = 1;
nodes = (
(241,706,l),
(187,398,l),
(569,398,l),
(623,706,l),
(707,706,l),
(583,0,l),
(499,0,l),
(555,320,l),
(173,320,l),
(117,0,l),
(33,0,l),
(157,706,l)
);
}
);
width = 709;
}
);
unicode = 72;
},
{
color = 5;
glyphname = J;
layers = (
{
layerId = "EE0A04B7-467B-4BD9-A2DD-E8921F00673F";
shapes = (
{
closed = 1;
nodes = (
(-6,235,l),
(27,198,o),
(63,159,o),
(120,159,cs),
(171,159,o),
(216,192,o),
(227,257,cs),
(305,700,l),
(498,700,l),
(420,256,ls),
(392,96,o),
(288,-12,o),
(112,-12,cs),
(54,-12,o),
(2,9,o),
(-40,41,c)
);
}
);
width = 475;
},
{
layerId = "179DD43A-A894-42A9-B4B6-A7F9368B08A7";
shapes = (
{
closed = 1;
nodes = (
(-25,124,l),
(7,101,o),
(39,81,o),
(84,81,cs),
(145,81,o),
(186,116,o),
(204,215,cs),
(290,704,l),
(394,704,l),
(308,217,ls),
(282,69,o),
(194,-11,o),
(68,-11,cs),
(27,-11,o),
(-12,2,o),
(-43,25,c)
);
}
);
width = 386;
},
{
layerId = "7F84CDEE-FC45-41A5-88A7-11DFAD5E6C3A";
shapes = (
{
closed = 1;
nodes = (
(-29,102,l),
(2,81,o),
(33,65,o),
(76,65,cs),
(140,65,o),
(181,102,o),
(199,207,cs),
(287,705,l),
(373,705,l),
(286,209,ls),
(260,64,o),
(178,-11,o),
(61,-11,cs),
(22,-11,o),
(-15,1,o),
(-43,22,c)
);
}
);
width = 368;
}
);
unicode = 74;
},
{
color = 5;
glyphname = K;
layers = (
{
layerId = "EE0A04B7-467B-4BD9-A2DD-E8921F00673F";
shapes = (
{
closed = 1;
nodes = (
(569,700,l),
(799,700,l),
(481,399,l),
(685,0,l),
(452,0,l),
(270,368,l),
(205,0,l),
(11,0,l),
(134,700,l),
(328,700,l),
(278,416,l)
);
}
);
width = 724;
},
{
layerId = "179DD43A-A894-42A9-B4B6-A7F9368B08A7";
shapes = (
{
closed = 1;
nodes = (
(518,704,l),
(647,704,l),
(293,379,l),
(548,0,l),
(419,0,l),
(191,336,l),
(132,0,l),
(29,0,l),
(153,704,l),
(256,704,l),
(204,410,l)
);
}
);
width = 593;
},
{
layerId = "7F84CDEE-FC45-41A5-88A7-11DFAD5E6C3A";
shapes = (
{
closed = 1;
nodes = (
(508,705,l),
(616,705,l),
(255,375,l),
(520,0,l),
(412,0,l),
(175,330,l),
(117,0,l),
(33,0,l),
(157,705,l),
(241,705,l),
(189,409,l)
);
}
);
width = 567;
}
);
unicode = 75;
},
{
color = 5;
glyphname = L;
layers = (
{
layerId = "EE0A04B7-467B-4BD9-A2DD-E8921F00673F";
shapes = (
{
closed = 1;
nodes = (
(574,170,l),
(544,0,l),
(11,0,l),
(134,700,l),
(328,700,l),
(235,170,l)
);
}
);
width = 607;
},
{
layerId = "179DD43A-A894-42A9-B4B6-A7F9368B08A7";
shapes = (
{
closed = 1;
nodes = (
(493,92,l),
(477,0,l),
(29,0,l),
(153,704,l),
(257,704,l),
(149,92,l)
);
}
);
width = 540;
},
{
layerId = "7F84CDEE-FC45-41A5-88A7-11DFAD5E6C3A";
shapes = (
{
closed = 1;
nodes = (
(476,76,l),
(463,0,l),
(33,0,l),
(157,705,l),
(242,705,l),
(131,76,l)
);
}
);
width = 526;
}
);
unicode = 76;
},
{
color = 5;
glyphname = M;
layers = (
{
layerId = "EE0A04B7-467B-4BD9-A2DD-E8921F00673F";
shapes = (
{
closed = 1;
nodes = (
(161,0,l),
(-29,0,l),
(94,700,l),
(299,700,l),
(419,429,l),
(633,700,l),
(838,700,l),
(715,0,l),
(522,0,l),
(593,402,l),
(364,128,l),
(232,400,l)
);
}
);
width = 780;
},
{
layerId = "179DD43A-A894-42A9-B4B6-A7F9368B08A7";
shapes = (
{
closed = 1;
nodes = (
(81,0,l),
(-21,0,l),
(102,700,l),
(205,700,l),
(393,304,l),
(719,700,l),
(821,700,l),
(698,0,l),
(596,0,l),
(691,538,l),
(365,149,l),
(176,538,l)
);
}
);
width = 773;
},
{
layerId = "7F84CDEE-FC45-41A5-88A7-11DFAD5E6C3A";
shapes = (
{
closed = 1;
nodes = (
(65,0,l),
(-19,0,l),
(104,700,l),
(186,700,l),
(387,279,l),
(736,700,l),
(818,700,l),
(695,0,l),
(611,0,l),
(711,565,l),
(365,153,l),
(165,565,l)
);
}
);
width = 771;
}
);
unicode = 77;
},
{
color = 5;
glyphname = N;
layers = (
{
layerId = "EE0A04B7-467B-4BD9-A2DD-E8921F00673F";
shapes = (
{
closed = 1;
nodes = (
(603,700,l),
(795,700,l),
(672,0,l),
(502,0,l),
(271,384,l),
(203,0,l),
(11,0,l),
(134,700,l),
(315,700,l),
(538,330,l)
);
}
);
width = 778;
},
{
layerId = "179DD43A-A894-42A9-B4B6-A7F9368B08A7";
shapes = (
{
closed = 1;
nodes = (
(652,704,l),
(752,704,l),
(628,0,l),
(530,0,l),
(226,545,l),
(130,0,l),
(29,0,l),
(152,700,l),
(253,700,l),
(556,160,l)
);
}
);
width = 751;
},
{
layerId = "7F84CDEE-FC45-41A5-88A7-11DFAD5E6C3A";
shapes = (
{
closed = 1;
nodes = (
(661,705,l),
(743,705,l),
(619,0,l),
(535,0,l),
(217,577,l),
(115,0,l),
(33,0,l),
(156,700,l),
(241,700,l),
(559,126,l)
);
}
);
width = 746;
}
);
unicode = 78;
},
{
color = 5;
glyphname = O;
layers = (
{
layerId = "EE0A04B7-467B-4BD9-A2DD-E8921F00673F";
shapes = (
{
closed = 1;
nodes = (
(147,-14,o),
(15,149,o),
(51,350,cs),
(86,551,o),
(276,714,o),
(492,714,cs),
(708,714,o),
(846,552,o),
(803,342,cs),
(764,154,o),
(610,-14,o),
(363,-14,cs)
);
},
{
closed = 1;
nodes = (
(354,539,o),
(268,453,o),
(250,352,cs),
(232,251,o),
(289,161,o),
(394,161,cs),
(501,161,o),
(589,250,o),
(606,350,cs),
(623,446,o),
(583,539,o),
(460,539,cs)
);
}
);
width = 828;
},
{
layerId = "179DD43A-A894-42A9-B4B6-A7F9368B08A7";
shapes = (
{
closed = 1;
nodes = (
(154,-14,o),
(28,148,o),
(64,351,cs),
(100,554,o),
(285,718,o),
(498,718,cs),
(710,718,o),
(829,553,o),
(799,354,cs),
(771,162,o),
(613,-14,o),
(367,-14,cs)
);
},
{
closed = 1;
nodes = (
(325,625,o),
(196,504,o),
(169,354,cs),
(142,200,o),
(229,79,o),
(384,79,cs),
(536,79,o),
(665,201,o),
(693,350,cs),
(721,500,o),
(659,625,o),
(480,625,cs)
);
}
);
width = 832;
},
{
layerId = "7F84CDEE-FC45-41A5-88A7-11DFAD5E6C3A";
shapes = (
{
closed = 1;
nodes = (
(155,-14,o),
(30,148,o),
(66,352,cs),
(102,555,o),
(286,719,o),
(499,719,cs),
(710,719,o),
(834,553,o),
(797,354,cs),
(764,176,o),
(613,-14,o),
(368,-14,cs)
);
},
{
closed = 1;
nodes = (
(319,642,o),
(182,514,o),
(153,354,cs),
(124,190,o),
(217,63,o),
(382,63,cs),
(543,63,o),
(681,191,o),
(710,350,cs),
(735,491,o),
(668,642,o),
(484,642,cs)
);
}
);
width = 833;
}
);
unicode = 79;
},
{
color = 5;
glyphname = P;
layers = (
{
layerId = "EE0A04B7-467B-4BD9-A2DD-E8921F00673F";
shapes = (
{
closed = 1;
nodes = (
(434,700,ls),
(611,700,o),
(710,610,o),
(682,454,cs),
(653,289,o),
(510,200,o),
(336,200,cs),
(240,200,l),
(205,0,l),
(11,0,l),
(134,700,l)
);
},
{
closed = 1;
nodes = (
(359,352,ls),
(428,352,o),
(477,389,o),
(486,445,cs),
(497,505,o),
(463,537,o),
(391,537,cs),
(300,537,l),
(267,352,l)
);
}
);
width = 672;
},
{
layerId = "179DD43A-A894-42A9-B4B6-A7F9368B08A7";
shapes = (
{
closed = 1;
nodes = (
(393,704,ls),
(548,704,o),
(636,625,o),
(612,490,cs),
(587,347,o),
(457,266,o),
(308,266,cs),
(180,266,l),
(133,-2,l),
(29,-2,l),
(153,704,l)
);
},
{
closed = 1;
nodes = (
(322,355,ls),
(425,355,o),
(493,402,o),
(508,485,cs),
(523,572,o),
(472,614,o),
(368,614,cs),
(241,614,l),
(196,355,l)
);
}
);
width = 602;
},
{
layerId = "7F84CDEE-FC45-41A5-88A7-11DFAD5E6C3A";
shapes = (
{
closed = 1;
nodes = (
(384,705,ls),
(534,705,o),
(622,628,o),
(599,497,cs),
(574,358,o),
(446,279,o),
(302,279,cs),
(168,279,l),
(119,-2,l),
(33,-2,l),
(157,705,l)
);
},
{
closed = 1;
nodes = (
(314,355,ls),
(423,355,o),
(496,405,o),
(512,493,cs),
(528,585,o),
(473,629,o),
(364,629,cs),
(230,629,l),
(182,355,l)
);
}
);
width = 588;
}
);
unicode = 80;
},
{
color = 5;
glyphname = Q;
layers = (
{
layerId = "EE0A04B7-467B-4BD9-A2DD-E8921F00673F";
shapes = (
{
closed = 1;
nodes = (
(597,55,l),
(544,13,o),
(447,-14,o),
(363,-14,cs),
(147,-14,o),
(15,147,o),
(51,350,cs),
(86,551,o),
(276,714,o),
(492,714,cs),
(708,714,o),
(841,553,o),
(805,350,cs),
(791,274,o),
(767,220,o),
(718,163,c),
(808,52,l),
(773,-148,l)
);
},
{
closed = 1;
nodes = (
(354,539,o),
(268,453,o),
(250,350,cs),
(232,250,o),
(289,161,o),
(394,161,cs),
(501,161,o),
(588,247,o),
(606,350,cs),
(622,441,o),
(584,539,o),
(460,539,cs)
);
}
);
width = 884;
},
{
layerId = "179DD43A-A894-42A9-B4B6-A7F9368B08A7";
shapes = (
{
closed = 1;
nodes = (
(581,46,l),
(515,10,o),
(446,-14,o),
(366,-14,cs),
(153,-14,o),
(27,149,o),
(63,350,cs),
(99,554,o),
(284,718,o),
(497,718,cs),
(709,718,o),
(834,553,o),
(798,353,cs),
(781,257,o),
(734,178,o),
(667,114,c),
(749,34,l),
(727,-91,l)
);
},
{
closed = 1;
nodes = (
(324,625,o),
(195,504,o),
(168,353,cs),
(141,201,o),
(228,79,o),
(383,79,cs),
(535,79,o),
(664,201,o),
(692,350,cs),
(721,499,o),
(660,625,o),
(479,625,cs)
);
}
);
width = 837;
},
{
layerId = "7F84CDEE-FC45-41A5-88A7-11DFAD5E6C3A";
shapes = (
{
closed = 1;
nodes = (
(578,44,l),
(508,9,o),
(447,-14,o),
(367,-14,cs),
(154,-14,o),
(29,149,o),
(65,350,cs),
(101,554,o),
(285,719,o),
(498,719,cs),
(709,719,o),
(832,553,o),
(796,354,cs),
(779,254,o),
(728,169,o),
(656,104,c),
(737,30,l),
(718,-79,l)
);
},
{
closed = 1;
nodes = (
(318,642,o),
(181,514,o),
(152,354,cs),
(124,190,o),
(216,63,o),
(381,63,cs),
(542,63,o),
(683,191,o),
(709,350,cs),
(735,504,o),
(675,642,o),
(483,642,cs)
);
}
);
width = 828;
}
);
unicode = 81;
},
{
color = 5;
glyphname = R;
layers = (
{
layerId = "EE0A04B7-467B-4BD9-A2DD-E8921F00673F";
shapes = (
{
closed = 1;
nodes = (
(134,700,l),
(465,700,ls),
(660,700,o),
(739,605,o),
(713,461,cs),
(694,353,o),
(626,281,o),
(531,244,c),
(655,0,l),
(431,0,l),
(328,212,l),
(243,212,l),
(206,0,l),
(11,0,l)
);
},
{
closed = 1;
nodes = (
(397,364,ls),
(463,364,o),
(507,398,o),
(516,449,cs),
(526,505,o),
(491,532,o),
(426,532,cs),
(300,532,l),
(270,364,l)
);
}
);
width = 695;
},
{
layerId = "179DD43A-A894-42A9-B4B6-A7F9368B08A7";
shapes = (
{
closed = 1;
nodes = (
(153,704,l),
(391,704,ls),
(543,704,o),
(628,620,o),
(606,496,cs),
(587,388,o),
(502,317,o),
(385,294,c),
(552,0,l),
(429,0,l),
(273,285,l),
(184,285,l),
(134,0,l),
(29,0,l)
);
},
{
closed = 1;
nodes = (
(308,367,ls),
(407,367,o),
(486,403,o),
(502,492,cs),
(517,576,o),
(465,613,o),
(365,613,cs),
(242,613,l),
(199,367,l)
);
}
);
width = 604;
},
{
layerId = "7F84CDEE-FC45-41A5-88A7-11DFAD5E6C3A";
shapes = (
{
closed = 1;
nodes = (
(157,705,l),
(376,705,ls),
(520,705,o),
(606,623,o),
(585,503,cs),
(566,395,o),
(476,324,o),
(356,304,c),
(531,0,l),
(428,0,l),
(262,299,l),
(172,299,l),
(119,0,l),
(33,0,l)
);
},
{
closed = 1;
nodes = (
(290,368,ls),
(395,368,o),
(481,404,o),
(498,500,cs),
(514,589,o),
(461,629,o),
(353,629,cs),
(230,629,l),
(184,368,l)
);
}
);
width = 586;
}
);
unicode = 82;
},
{
color = 5;
glyphname = S;
layers = (
{
layerId = "EE0A04B7-467B-4BD9-A2DD-E8921F00673F";
shapes = (
{
closed = 1;
nodes = (
(439,302,o),
(45,231,o),
(90,488,cs),
(117,640,o),
(260,712,o),
(401,712,cs),
(522,712,o),
(607,680,o),
(672,619,c),
(641,442,l),
(580,503,o),
(479,556,o),
(388,556,cs),
(324,556,o),
(293,530,o),
(289,506,cs),
(270,399,o),
(689,482,o),
(612,181,c),
(574,59,o),
(453,-12,o),
(297,-12,cs),
(180,-12,o),
(63,24,o),
(-11,104,c),
(20,278,l),
(92,206,o),
(210,149,o),
(322,149,cs),
(353,149,o),
(413,154,o),
(421,197,cs)
);
}
);
width = 657;
},
{
layerId = "179DD43A-A894-42A9-B4B6-A7F9368B08A7";
shapes = (
{
closed = 1;
nodes = (
(422,330,o),
(56,320,o),
(96,543,cs),
(115,655,o),
(234,717,o),
(352,717,cs),
(427,717,o),
(488,698,o),
(531,654,c),
(511,539,l),
(466,607,o),
(401,629,o),
(340,629,cs),
(265,629,o),
(210,599,o),
(200,544,cs),
(175,403,o),
(545,414,o),
(500,179,cs),
(472,42,o),
(342,-12,o),
(217,-12,cs),
(128,-12,o),
(52,12,o),
(-4,77,c),
(14,183,l),
(80,107,o),
(161,77,o),
(238,77,cs),
(301,77,o),
(381,94,o),
(395,175,cs)
);
}
);
width = 557;
},
{
layerId = "7F84CDEE-FC45-41A5-88A7-11DFAD5E6C3A";
shapes = (
{
closed = 1;
nodes = (
(418,334,o),
(59,338,o),
(97,554,cs),
(115,658,o),
(230,718,o),
(333,718,cs),
(408,718,o),
(464,701,o),
(504,661,c),
(485,558,l),
(445,627,o),
(374,643,o),
(330,643,cs),
(254,643,o),
(193,612,o),
(182,552,cs),
(156,404,o),
(516,402,o),
(476,178,cs),
(452,38,o),
(330,-12,o),
(201,-12,cs),
(117,-12,o),
(54,14,o),
(-3,71,c),
(13,164,l),
(80,91,o),
(161,63,o),
(220,63,cs),
(288,63,o),
(374,83,o),
(389,170,cs)
);
}
);
width = 537;
}
);
unicode = 83;
},
{
color = 5;
glyphname = T;
layers = (
{
layerId = "EE0A04B7-467B-4BD9-A2DD-E8921F00673F";
shapes = (
{
closed = 1;
nodes = (
(174,0,l),
(267,530,l),
(57,530,l),
(87,700,l),
(701,700,l),
(671,530,l),
(461,530,l),
(368,0,l)
);
}
);
width = 637;
},
{
layerId = "179DD43A-A894-42A9-B4B6-A7F9368B08A7";
shapes = (
{
closed = 1;
nodes = (
(172,0,l),
(280,613,l),
(70,613,l),
(86,704,l),
(608,704,l),
(592,613,l),
(382,613,l),
(274,0,l)
);
}
);
width = 540;
},
{
layerId = "7F84CDEE-FC45-41A5-88A7-11DFAD5E6C3A";
shapes = (
{
closed = 1;
nodes = (
(171,0,l),
(282,629,l),
(72,629,l),
(85,705,l),
(589,705,l),
(576,629,l),
(366,629,l),
(255,0,l)
);
}
);
width = 520;
}
);
unicode = 84;
},
{
color = 5;
glyphname = U;
layers = (
{
layerId = "EE0A04B7-467B-4BD9-A2DD-E8921F00673F";
shapes = (
{
closed = 1;
nodes = (
(128,700,l),
(325,700,l),
(257,311,ls),
(239,210,o),
(263,162,o),
(360,162,cs),
(440,162,o),
(496,206,o),
(514,306,cs),
(583,700,l),
(780,700,l),
(712,312,ls),
(672,86,o),
(543,-13,o),
(327,-13,cs),
(133,-13,o),
(16,65,o),
(59,307,cs)
);
}
);
width = 758;
},
{
layerId = "179DD43A-A894-42A9-B4B6-A7F9368B08A7";
shapes = (
{
closed = 1;
nodes = (
(145,705,l),
(248,705,l),
(175,292,ls),
(150,150,o),
(198,80,o),
(323,80,cs),
(440,80,o),
(519,148,o),
(544,289,cs),
(617,705,l),
(719,705,l),
(646,291,ls),
(612,98,o),
(514,-15,o),
(306,-15,cs),
(152,-15,o),
(34,71,o),
(72,288,cs)
);
}
);
width = 711;
},
{
layerId = "7F84CDEE-FC45-41A5-88A7-11DFAD5E6C3A";
shapes = (
{
closed = 1;
nodes = (
(148,706,l),
(232,706,l),
(159,288,ls),
(131,128,o),
(171,63,o),
(315,63,cs),
(440,63,o),
(523,136,o),
(549,285,cs),
(623,706,l),
(707,706,l),
(634,287,ls),
(601,100,o),
(486,-15,o),
(302,-15,cs),
(131,-15,o),
(37,72,o),
(74,284,cs)
);
}
);
width = 702;
}
);
unicode = 85;
},
{
color = 5;
glyphname = V;
layers = (
{
layerId = "EE0A04B7-467B-4BD9-A2DD-E8921F00673F";
shapes = (
{
closed = 1;
nodes = (
(366,257,l),
(603,700,l),
(816,700,l),
(408,-5,l),
(228,-5,l),
(68,700,l),
(285,700,l)
);
}
);
width = 733;
},
{
layerId = "179DD43A-A894-42A9-B4B6-A7F9368B08A7";
shapes = (
{
closed = 1;
nodes = (
(305,116,l),
(629,704,l),
(741,704,l),
(341,-1,l),
(227,-1,l),
(72,704,l),
(187,704,l)
);
}
);
width = 661;
},
{
layerId = "7F84CDEE-FC45-41A5-88A7-11DFAD5E6C3A";
shapes = (
{
closed = 1;
nodes = (
(294,88,l),
(634,705,l),
(726,705,l),
(327,0,l),
(226,0,l),
(73,705,l),
(167,705,l)
);
}
);
width = 646;
}
);
unicode = 86;
},
{
color = 5;
glyphname = W;
layers = (
{
layerId = "EE0A04B7-467B-4BD9-A2DD-E8921F00673F";
shapes = (
{
closed = 1;
nodes = (
(536,702,l),
(703,702,l),
(766,295,l),
(959,700,l),
(1160,700,l),
(802,-5,l),
(633,-5,l),
(563,398,l),
(352,-5,l),
(183,-5,l),
(73,700,l),
(278,700,l),
(329,295,l)
);
}
);
width = 1081;
},
{
layerId = "179DD43A-A894-42A9-B4B6-A7F9368B08A7";
shapes = (
{
closed = 1;
nodes = (
(535,705,l),
(631,705,l),
(704,154,l),
(975,704,l),
(1082,704,l),
(724,-1,l),
(629,-1,l),
(553,551,l),
(289,-1,l),
(192,-1,l),
(80,704,l),
(190,704,l),
(272,154,l)
);
}
);
width = 1008;
},
{
layerId = "7F84CDEE-FC45-41A5-88A7-11DFAD5E6C3A";
shapes = (
{
closed = 1;
nodes = (
(535,706,l),
(616,706,l),
(692,126,l),
(978,705,l),
(1066,705,l),
(708,0,l),
(628,0,l),
(552,582,l),
(276,0,l),
(194,0,l),
(81,705,l),
(172,705,l),
(260,126,l)
);
}
);
width = 993;
}
);
unicode = 87;
},
{
color = 5;
glyphname = X;
layers = (
{
layerId = "EE0A04B7-467B-4BD9-A2DD-E8921F00673F";
shapes = (
{
closed = 1;
nodes = (
(399,503,l),
(558,700,l),
(776,700,l),
(486,358,l),
(663,0,l),
(440,0,l),
(343,211,l),
(171,0,l),
(-47,0,l),
(256,356,l),
(86,700,l),
(309,700,l)
);
}
);
width = 710;
},
{
layerId = "179DD43A-A894-42A9-B4B6-A7F9368B08A7";
shapes = (
{
closed = 1;
nodes = (
(353,439,l),
(580,704,l),
(696,704,l),
(398,362,l),
(585,0,l),
(467,0,l),
(323,282,l),
(80,0,l),
(-39,0,l),
(277,360,l),
(97,704,l),
(217,704,l)
);
}
);
width = 641;
},
{
layerId = "7F84CDEE-FC45-41A5-88A7-11DFAD5E6C3A";
shapes = (
{
closed = 1;
nodes = (
(344,426,l),
(584,705,l),
(680,705,l),
(380,363,l),
(569,0,l),
(472,0,l),
(318,296,l),
(62,0,l),
(-37,0,l),
(282,361,l),
(99,705,l),
(198,705,l)
);
}
);
width = 627;
}
);
unicode = 88;
},
{
color = 5;
glyphname = Y;
layers = (
{
layerId = "EE0A04B7-467B-4BD9-A2DD-E8921F00673F";
shapes = (
{
closed = 1;
nodes = (
(212,0,l),
(258,262,l),
(69,700,l),
(290,700,l),
(389,445,l),
(579,700,l),
(796,700,l),
(454,265,l),
(407,0,l)
);
}
);
width = 713;
},
{
layerId = "179DD43A-A894-42A9-B4B6-A7F9368B08A7";
shapes = (
{
closed = 1;
nodes = (
(220,0,l),
(269,277,l),
(74,704,l),
(194,704,l),
(340,373,l),
(601,704,l),
(716,704,l),
(372,278,l),
(323,0,l)
);
}
);
width = 636;
},
{
layerId = "7F84CDEE-FC45-41A5-88A7-11DFAD5E6C3A";
shapes = (
{
closed = 1;
nodes = (
(222,0,l),
(271,280,l),
(75,705,l),
(175,705,l),
(330,358,l),
(605,705,l),
(700,705,l),
(356,281,l),
(306,0,l)
);
}
);
width = 621;
}
);
unicode = 89;
},
{
color = 5;
glyphname = Z;
layers = (
{
layerId = "EE0A04B7-467B-4BD9-A2DD-E8921F00673F";
shapes = (
{
closed = 1;
nodes = (
(597,164,l),
(568,0,l),
(-51,0,l),
(-26,141,l),
(394,536,l),
(55,536,l),
(84,700,l),
(691,700,l),
(667,559,l),
(246,164,l)
);
}
);
width = 624;
},
{
layerId = "179DD43A-A894-42A9-B4B6-A7F9368B08A7";
shapes = (
{
closed = 1;
nodes = (
(568,90,l),
(552,0,l),
(-36,0,l),
(-21,84,l),
(547,614,l),
(97,614,l),
(113,704,l),
(694,704,l),
(679,620,l),
(116,90,l)
);
}
);
width = 639;
},
{
layerId = "7F84CDEE-FC45-41A5-88A7-11DFAD5E6C3A";
shapes = (
{
closed = 1;
nodes = (
(562,75,l),
(549,0,l),
(-33,0,l),
(-20,72,l),
(578,630,l),
(106,630,l),
(119,705,l),
(694,705,l),
(681,632,l),
(90,75,l)
);
}
);
width = 642;
}
);
unicode = 90;
},
{
color = 5;
glyphname = bracketleft;
layers = (
{
layerId = "EE0A04B7-467B-4BD9-A2DD-E8921F00673F";
shapes = (
{
closed = 1;
nodes = (
(289,571,l),
(188,-1,l),
(364,-1,l),
(341,-130,l),
(-5,-130,l),
(141,700,l),
(487,700,l),
(465,571,l)
);
}
);
width = 459;
},
{
layerId = "179DD43A-A894-42A9-B4B6-A7F9368B08A7";
shapes = (
{
closed = 1;
nodes = (
(240,645,l),
(112,-77,l),
(277,-77,l),
(264,-153,l),
(6,-153,l),
(160,722,l),
(418,722,l),
(405,645,l)
);
}
);
width = 391;
},
{
layerId = "7F84CDEE-FC45-41A5-88A7-11DFAD5E6C3A";
shapes = (
{
closed = 1;
nodes = (
(229,660,l),
(97,-92,l),
(260,-92,l),
(248,-158,l),
(8,-158,l),
(164,726,l),
(404,726,l),
(392,660,l)
);
}
);
width = 377;
}
);
unicode = 91;
},
{
color = 5;
glyphname = backslash;
layers = (
{
layerId = "EE0A04B7-467B-4BD9-A2DD-E8921F00673F";
shapes = (
{
closed = 1;
nodes = (
(236,798,l),
(508,-103,l),
(361,-128,l),
(89,776,l)
);
}
);
width = 572;
},
{
layerId = "179DD43A-A894-42A9-B4B6-A7F9368B08A7";
shapes = (
{
closed = 1;
nodes = (
(176,784,l),
(435,-110,l),
(348,-119,l),
(91,774,l)
);
}
);
width = 502;
},
{
layerId = "7F84CDEE-FC45-41A5-88A7-11DFAD5E6C3A";
shapes = (
{
closed = 1;
nodes = (
(165,781,l),
(419,-111,l),
(345,-117,l),
(91,773,l)
);
}
);
width = 488;
}
);
unicode = 92;
},
{
color = 5;
glyphname = bracketright;
layers = (
{
layerId = "EE0A04B7-467B-4BD9-A2DD-E8921F00673F";
shapes = (
{
closed = 1;
nodes = (
(179,-1,l),
(280,571,l),
(104,571,l),
(126,700,l),
(472,700,l),
(326,-130,l),
(-20,-130,l),
(3,-1,l)
);
}
);
width = 460;
},
{
layerId = "179DD43A-A894-42A9-B4B6-A7F9368B08A7";
shapes = (
{
closed = 1;
nodes = (
(158,-77,l),
(286,644,l),
(120,644,l),
(133,722,l),
(393,722,l),
(239,-154,l),
(-21,-154,l),
(-8,-77,l)
);
}
);
width = 393;
},
{
layerId = "7F84CDEE-FC45-41A5-88A7-11DFAD5E6C3A";
shapes = (
{
closed = 1;
nodes = (
(154,-92,l),
(286,659,l),
(123,659,l),
(135,726,l),
(377,726,l),
(221,-159,l),
(-21,-159,l),
(-9,-92,l)
);
}
);
width = 380;
}
);
unicode = 93;
},
{
color = 5;
glyphname = asciicircum;
layers = (
{
layerId = "EE0A04B7-467B-4BD9-A2DD-E8921F00673F";
shapes = (
{
closed = 1;
nodes = (
(370,699,l),
(478,493,l),
(345,493,l),
(286,590,l),
(193,493,l),
(62,493,l),
(242,699,l)
);
}
);
width = 459;
},
{
layerId = "179DD43A-A894-42A9-B4B6-A7F9368B08A7";
shapes = (
{
closed = 1;
nodes = (
(362,705,l),
(489,431,l),
(403,431,l),
(309,633,l),
(143,431,l),
(60,431,l),
(281,705,l)
);
}
);
width = 491;
},
{
layerId = "7F84CDEE-FC45-41A5-88A7-11DFAD5E6C3A";
shapes = (
{
closed = 1;
nodes = (
(359,706,l),
(490,418,l),
(414,418,l),
(312,642,l),
(132,418,l),
(59,418,l),
(287,706,l)
);
}
);
width = 497;
}
);
unicode = 94;
},
{
color = 5;
glyphname = underscore;
layers = (
{
layerId = "EE0A04B7-467B-4BD9-A2DD-E8921F00673F";
shapes = (
{
closed = 1;
nodes = (
(549,-44,l),
(529,-160,l),
(-75,-160,l),
(-55,-44,l)
);
}
);
width = 604;
},
{
layerId = "179DD43A-A894-42A9-B4B6-A7F9368B08A7";
shapes = (
{
closed = 1;
nodes = (
(507,-76,l),
(494,-149,l),
(-74,-149,l),
(-61,-76,l)
);
}
);
width = 568;
},
{
layerId = "7F84CDEE-FC45-41A5-88A7-11DFAD5E6C3A";
shapes = (
{
closed = 1;
nodes = (
(499,-82,l),
(487,-147,l),
(-74,-147,l),
(-62,-82,l)
);
}
);
width = 561;
}
);
unicode = 95;
},
{
color = 5;
glyphname = grave;
layers = (
{
layerId = "EE0A04B7-467B-4BD9-A2DD-E8921F00673F";
shapes = (
{
closed = 1;
nodes = (
(254,801,l),
(326,616,l),
(192,616,l),
(67,744,l)
);
}
);
width = 269;
},
{
layerId = "179DD43A-A894-42A9-B4B6-A7F9368B08A7";
shapes = (
{
closed = 1;
nodes = (
(213,771,l),
(283,616,l),
(208,616,l),
(100,745,l)
);
}
);
width = 242;
},
{
layerId = "7F84CDEE-FC45-41A5-88A7-11DFAD5E6C3A";
shapes = (
{
closed = 1;
nodes = (
(206,765,l),
(275,616,l),
(212,616,l),
(108,745,l)
);
}
);
width = 237;
}
);
unicode = 96;
},
{
color = 5;
glyphname = a;
layers = (
{
layerId = "EE0A04B7-467B-4BD9-A2DD-E8921F00673F";
shapes = (
{
closed = 1;
nodes = (
(364,221,l),
(348,229,o),
(322,235,o),
(295,235,cs),
(239,235,o),
(202,206,o),
(196,170,cs),
(189,133,o),
(218,107,o),
(257,107,cs),
(288,107,o),
(318,116,o),
(350,139,c)
);
},
{
closed = 1;
nodes = (
(334,56,l),
(290,15,o),
(236,-12,o),
(164,-12,cs),
(59,-12,o),
(-10,49,o),
(9,157,cs),
(28,269,o),
(126,327,o),
(251,327,cs),
(303,327,o),
(350,317,o),
(379,306,c),
(381,315,ls),
(392,378,o),
(352,404,o),
(263,404,cs),
(210,404,o),
(158,396,o),
(94,373,c),
(117,507,l),
(186,532,o),
(251,549,o),
(339,549,cs),
(527,549,o),
(592,466,o),
(565,311,cs),
(508,-12,l)
);
}
);
width = 611;
},
{
layerId = "179DD43A-A894-42A9-B4B6-A7F9368B08A7";
shapes = (
{
closed = 1;
nodes = (
(387,227,l),
(359,244,o),
(323,261,o),
(264,261,cs),
(201,261,o),
(127,232,o),
(115,163,cs),
(103,96,o),
(156,65,o),
(223,65,cs),
(283,65,o),
(331,88,o),
(369,125,c)
);
},
{
closed = 1;
nodes = (
(354,50,l),
(303,10,o),
(251,-11,o),
(183,-11,cs),
(87,-11,o),
(-4,53,o),
(17,169,cs),
(39,293,o),
(153,332,o),
(257,332,cs),
(313,332,o),
(363,323,o),
(400,300,c),
(403,318,ls),
(416,391,o),
(364,419,o),
(279,419,cs),
(216,419,o),
(154,407,o),
(88,372,c),
(103,460,l),
(155,480,o),
(226,502,o),
(305,502,cs),
(433,502,o),
(523,437,o),
(500,309,cs),
(446,-2,l)
);
}
);
width = 559;
},
{
layerId = "7F84CDEE-FC45-41A5-88A7-11DFAD5E6C3A";
shapes = (
{
closed = 1;
nodes = (
(391,228,l),
(362,247,o),
(322,266,o),
(258,266,cs),
(193,266,o),
(112,238,o),
(98,161,cs),
(86,90,o),
(144,57,o),
(216,57,cs),
(281,57,o),
(332,82,o),
(373,122,c)
);
},
{
closed = 1;
nodes = (
(358,49,l),
(306,9,o),
(254,-11,o),
(186,-11,cs),
(91,-11,o),
(-2,54,o),
(18,171,cs),
(40,296,o),
(158,333,o),
(258,333,cs),
(315,333,o),
(365,324,o),
(404,299,c),
(407,318,ls),
(420,394,o),
(365,422,o),
(281,422,cs),
(217,422,o),
(152,408,o),
(86,372,c),
(99,450,l),
(148,470,o),
(221,492,o),
(297,492,cs),
(413,492,o),
(509,431,o),
(487,308,cs),
(433,0,l)
);
}
);
width = 548;
}
);
unicode = 97;
},
{
color = 5;
glyphname = b;
layers = (
{
layerId = "EE0A04B7-467B-4BD9-A2DD-E8921F00673F";
shapes = (
{
closed = 1;
nodes = (
(3,-12,l),
(134,730,l),
(324,730,l),
(278,469,l),
(323,514,o),
(376,553,o),
(457,553,cs),
(585,553,o),
(678,446,o),
(647,271,cs),
(616,95,o),
(486,-12,o),
(358,-12,cs),
(311,-12,o),
(246,3,o),
(207,66,c)
);
},
{
closed = 1;
nodes = (
(309,394,o),
(252,343,o),
(240,270,cs),
(227,198,o),
(266,147,o),
(327,147,cs),
(389,147,o),
(447,197,o),
(460,272,cs),
(471,336,o),
(449,394,o),
(370,394,cs)
);
}
);
width = 675;
},
{
layerId = "179DD43A-A894-42A9-B4B6-A7F9368B08A7";
shapes = (
{
closed = 1;
nodes = (
(18,-1,l),
(147,732,l),
(247,732,l),
(190,407,l),
(243,464,o),
(309,504,o),
(389,504,cs),
(520,504,o),
(608,402,o),
(580,246,cs),
(553,92,o),
(428,-10,o),
(296,-10,cs),
(246,-10,o),
(180,5,o),
(137,70,c)
);
},
{
closed = 1;
nodes = (
(262,417,o),
(176,346,o),
(158,246,cs),
(141,147,o),
(201,74,o),
(289,74,cs),
(382,74,o),
(462,145,o),
(481,245,cs),
(499,339,o),
(465,417,o),
(350,417,cs)
);
}
);
width = 618;
},
{
layerId = "7F84CDEE-FC45-41A5-88A7-11DFAD5E6C3A";
shapes = (
{
closed = 1;
nodes = (
(20,1,l),
(149,732,l),
(231,732,l),
(171,394,l),
(225,454,o),
(295,494,o),
(375,494,cs),
(506,494,o),
(594,393,o),
(567,241,cs),
(541,91,o),
(416,-10,o),
(284,-10,cs),
(236,-10,o),
(164,5,o),
(124,71,c)
);
},
{
closed = 1;
nodes = (
(251,422,o),
(160,346,o),
(141,241,cs),
(123,138,o),
(187,59,o),
(281,59,cs),
(380,59,o),
(467,134,o),
(485,240,cs),
(501,340,o),
(466,422,o),
(345,422,cs)
);
}
);
width = 606;
}
);
unicode = 98;
},
{
color = 5;
glyphname = c;
layers = (
{
layerId = "EE0A04B7-467B-4BD9-A2DD-E8921F00673F";
shapes = (
{
closed = 1;
nodes = (
(447,355,l),
(422,378,o),
(395,392,o),
(356,392,cs),
(285,392,o),
(227,338,o),
(215,270,cs),
(202,201,o),
(247,147,o),
(316,147,cs),
(347,147,o),
(384,156,o),
(421,183,c),
(390,6,l),
(355,-6,o),
(308,-13,o),
(268,-13,cs),
(105,-13,o),
(2,115,o),
(30,270,cs),
(56,422,o),
(198,552,o),
(369,552,cs),
(406,552,o),
(450,548,o),
(479,537,c)
);
}
);
width = 473;
},
{
layerId = "179DD43A-A894-42A9-B4B6-A7F9368B08A7";
shapes = (
{
closed = 1;
nodes = (
(438,358,l),
(409,397,o),
(370,418,o),
(319,418,cs),
(228,418,o),
(148,347,o),
(131,250,cs),
(114,155,o),
(170,75,o),
(261,75,cs),
(313,75,o),
(362,98,o),
(404,135,c),
(385,30,l),
(342,7,o),
(292,-10,o),
(235,-10,cs),
(93,-10,o),
(5,101,o),
(30,245,cs),
(55,385,o),
(179,502,o),
(332,502,cs),
(379,502,o),
(427,491,o),
(457,466,c)
);
}
);
width = 471;
},
{
layerId = "7F84CDEE-FC45-41A5-88A7-11DFAD5E6C3A";
shapes = (
{
closed = 1;
nodes = (
(436,359,l),
(406,399,o),
(364,423,o),
(311,423,cs),
(215,423,o),
(132,347,o),
(115,247,cs),
(97,146,o),
(155,60,o),
(250,60,cs),
(306,60,o),
(357,86,o),
(400,125,c),
(384,35,l),
(341,11,o),
(288,-9,o),
(228,-9,cs),
(90,-9,o),
(5,99,o),
(30,240,cs),
(55,379,o),
(175,492,o),
(324,492,cs),
(372,492,o),
(421,479,o),
(453,452,c)
);
}
);
width = 470;
}
);
unicode = 99;
},
{
color = 5;
glyphname = d;
layers = (
{
layerId = "EE0A04B7-467B-4BD9-A2DD-E8921F00673F";
shapes = (
{
closed = 1;
nodes = (
(398,72,l),
(353,27,o),
(299,-12,o),
(219,-12,cs),
(91,-12,o),
(-2,95,o),
(29,270,cs),
(60,446,o),
(189,553,o),
(317,553,cs),
(398,553,o),
(440,516,o),
(469,475,c),
(514,730,l),
(704,730,l),
(573,-12,l)
);
},
{
closed = 1;
nodes = (
(365,147,o),
(423,197,o),
(436,272,cs),
(448,343,o),
(408,394,o),
(347,394,cs),
(288,394,o),
(231,344,o),
(216,270,cs),
(203,207,o),
(227,147,o),
(304,147,cs)
);
}
);
width = 675;
},
{
layerId = "179DD43A-A894-42A9-B4B6-A7F9368B08A7";
shapes = (
{
closed = 1;
nodes = (
(410,76,l),
(358,25,o),
(303,-10,o),
(224,-10,cs),
(93,-10,o),
(3,89,o),
(30,246,cs),
(58,403,o),
(185,504,o),
(313,504,cs),
(394,504,o),
(447,467,o),
(477,411,c),
(534,732,l),
(634,732,l),
(505,-1,l)
);
},
{
closed = 1;
nodes = (
(346,75,o),
(434,147,o),
(452,247,cs),
(469,346,o),
(405,419,o),
(318,419,cs),
(233,419,o),
(151,350,o),
(131,247,cs),
(112,154,o),
(145,75,o),
(257,75,cs)
);
}
);
width = 618;
},
{
layerId = "7F84CDEE-FC45-41A5-88A7-11DFAD5E6C3A";
shapes = (
{
closed = 1;
nodes = (
(413,77,l),
(359,24,o),
(304,-10,o),
(225,-10,cs),
(94,-10,o),
(4,88,o),
(30,241,cs),
(57,394,o),
(183,494,o),
(311,494,cs),
(392,494,o),
(449,458,o),
(479,398,c),
(538,732,l),
(620,732,l),
(491,1,l)
);
},
{
closed = 1;
nodes = (
(343,60,o),
(436,137,o),
(455,242,cs),
(473,347,o),
(404,424,o),
(312,424,cs),
(220,424,o),
(134,351,o),
(114,242,cs),
(95,144,o),
(129,60,o),
(248,60,cs)
);
}
);
width = 606;
}
);
unicode = 100;
},
{
color = 5;
glyphname = e;
layers = (
{
layerId = "EE0A04B7-467B-4BD9-A2DD-E8921F00673F";
shapes = (
{
closed = 1;
nodes = (
(487,42,l),
(410,-3,o),
(321,-17,o),
(262,-17,cs),
(95,-17,o),
(1,104,o),
(30,269,cs),
(59,429,o),
(198,548,o),
(362,548,cs),
(538,548,o),
(604,401,o),
(575,240,c),
(204,148,l),
(225,128,o),
(253,121,o),
(289,121,cs),
(344,121,o),
(446,138,o),
(513,190,c)
);
},
{
closed = 1;
nodes = (
(403,319,l),
(401,375,o),
(373,407,o),
(326,407,cs),
(257,407,o),
(222,334,o),
(211,275,cs),
(211,272,l)
);
}
);
width = 609;
},
{
layerId = "179DD43A-A894-42A9-B4B6-A7F9368B08A7";
shapes = (
{
closed = 1;
nodes = (
(428,44,l),
(378,10,o),
(310,-12,o),
(241,-12,cs),
(94,-12,o),
(4,95,o),
(30,244,cs),
(56,391,o),
(173,504,o),
(316,504,cs),
(459,504,o),
(522,393,o),
(512,262,c),
(124,171,l),
(137,111,o),
(179,69,o),
(259,69,cs),
(313,69,o),
(383,89,o),
(445,142,c)
);
},
{
closed = 1;
nodes = (
(421,317,l),
(415,377,o),
(373,422,o),
(301,422,cs),
(207,422,o),
(143,337,o),
(128,252,c),
(130,245,l)
);
}
);
width = 546;
},
{
layerId = "7F84CDEE-FC45-41A5-88A7-11DFAD5E6C3A";
shapes = (
{
closed = 1;
nodes = (
(416,44,l),
(370,12,o),
(307,-11,o),
(236,-11,cs),
(93,-11,o),
(4,92,o),
(30,239,cs),
(55,382,o),
(166,495,o),
(306,495,cs),
(444,495,o),
(505,390,o),
(499,266,c),
(108,175,l),
(119,107,o),
(165,59,o),
(253,59,cs),
(308,59,o),
(369,79,o),
(431,132,c)
);
},
{
closed = 1;
nodes = (
(425,316,l),
(418,377,o),
(373,425,o),
(297,425,cs),
(197,425,o),
(127,336,o),
(112,249,c),
(114,240,l)
);
}
);
width = 533;
}
);
unicode = 101;
},
{
color = 5;
glyphname = f;
layers = (
{
layerId = "EE0A04B7-467B-4BD9-A2DD-E8921F00673F";
shapes = (
{
closed = 1;
nodes = (
(457,588,l),
(435,595,o),
(405,599,o),
(382,599,cs),
(347,599,o),
(301,583,o),
(295,548,cs),
(292,535,l),
(446,535,l),
(421,389,l),
(300,389,l),
(231,0,l),
(42,0,l),
(111,389,l),
(28,389,l),
(136,535,l),
(139,550,ls),
(162,681,o),
(246,737,o),
(367,737,cs),
(416,737,o),
(451,731,o),
(480,722,c)
);
}
);
width = 399;
},
{
layerId = "179DD43A-A894-42A9-B4B6-A7F9368B08A7";
shapes = (
{
closed = 1;
nodes = (
(406,646,l),
(388,653,o),
(371,657,o),
(352,657,cs),
(294,657,o),
(261,621,o),
(249,552,cs),
(239,491,l),
(365,491,l),
(350,409,l),
(229,409,l),
(157,0,l),
(60,0,l),
(132,409,l),
(36,409,l),
(147,493,l),
(158,556,ls),
(181,684,o),
(252,736,o),
(351,736,cs),
(380,736,o),
(402,732,o),
(420,725,c)
);
}
);
width = 335;
},
{
layerId = "7F84CDEE-FC45-41A5-88A7-11DFAD5E6C3A";
shapes = (
{
closed = 1;
nodes = (
(395,658,l),
(379,665,o),
(363,668,o),
(346,668,cs),
(283,668,o),
(253,628,o),
(239,553,cs),
(227,482,l),
(348,482,l),
(336,413,l),
(215,413,l),
(142,0,l),
(63,0,l),
(136,413,l),
(38,413,l),
(148,484,l),
(161,557,ls),
(184,685,o),
(253,736,o),
(348,736,cs),
(372,736,o),
(392,731,o),
(407,726,c)
);
}
);
width = 322;
}
);
unicode = 102;
},
{
color = 5;
glyphname = g;
layers = (
{
layerId = "EE0A04B7-467B-4BD9-A2DD-E8921F00673F";
shapes = (
{
closed = 1;
nodes = (
(384,196,o),
(437,241,o),
(448,302,cs),
(459,361,o),
(420,405,o),
(356,405,cs),
(291,405,o),
(237,360,o),
(228,299,cs),
(218,245,o),
(247,196,o),
(320,196,cs)
);
},
{
closed = 1;
nodes = (
(418,130,l),
(371,85,o),
(316,48,o),
(235,48,cs),
(104,48,o),
(14,145,o),
(41,301,cs),
(69,457,o),
(194,553,o),
(325,553,cs),
(401,553,o),
(443,520,o),
(476,477,c),
(677,541,l),
(605,131,ls),
(570,-66,o),
(409,-162,o),
(212,-162,cs),
(116,-162,o),
(57,-140,o),
(-15,-100,c),
(12,50,l),
(61,16,o),
(148,-25,o),
(235,-25,cs),
(379,-25,o),
(406,65,o),
(414,109,cs)
);
}
);
width = 680;
},
{
layerId = "179DD43A-A894-42A9-B4B6-A7F9368B08A7";
shapes = (
{
closed = 1;
nodes = (
(358,107,o),
(441,172,o),
(457,263,cs),
(474,356,o),
(414,421,o),
(323,421,cs),
(232,421,o),
(157,357,o),
(140,265,cs),
(123,177,o),
(161,107,o),
(269,107,cs)
);
},
{
closed = 1;
nodes = (
(432,118,l),
(375,61,o),
(312,24,o),
(231,24,cs),
(98,24,o),
(13,122,o),
(37,261,cs),
(63,407,o),
(188,504,o),
(316,504,cs),
(396,504,o),
(443,471,o),
(476,423,c),
(597,492,l),
(522,69,ls),
(492,-101,o),
(361,-189,o),
(196,-189,cs),
(115,-189,o),
(51,-168,o),
(3,-139,c),
(21,-39,l),
(70,-82,o),
(132,-108,o),
(210,-108,cs),
(380,-108,o),
(412,3,o),
(422,64,cs)
);
}
);
width = 623;
},
{
layerId = "7F84CDEE-FC45-41A5-88A7-11DFAD5E6C3A";
shapes = (
{
closed = 1;
nodes = (
(352,89,o),
(441,159,o),
(458,255,cs),
(475,354,o),
(412,424,o),
(316,424,cs),
(220,424,o),
(140,357,o),
(120,258,cs),
(102,160,o),
(144,89,o),
(258,89,cs)
);
},
{
closed = 1;
nodes = (
(433,115,l),
(376,55,o),
(310,19,o),
(229,19,cs),
(96,19,o),
(12,117,o),
(36,253,cs),
(61,397,o),
(185,494,o),
(313,494,cs),
(393,494,o),
(442,461,o),
(475,412,c),
(579,482,l),
(504,56,ls),
(475,-108,o),
(350,-194,o),
(192,-194,cs),
(114,-194,o),
(49,-174,o),
(6,-147,c),
(22,-57,l),
(70,-102,o),
(129,-124,o),
(204,-124,cs),
(367,-124,o),
(411,-10,o),
(423,55,cs)
);
}
);
width = 611;
}
);
unicode = 103;
},
{
color = 5;
glyphname = h;
layers = (
{
layerId = "EE0A04B7-467B-4BD9-A2DD-E8921F00673F";
shapes = (
{
closed = 1;
nodes = (
(540,0,l),
(350,0,l),
(402,293,ls),
(412,353,o),
(385,384,o),
(342,384,cs),
(299,384,o),
(256,352,o),
(246,293,cs),
(194,0,l),
(4,0,l),
(133,730,l),
(323,730,l),
(276,467,l),
(319,512,o),
(376,553,o),
(453,553,cs),
(562,553,o),
(626,488,o),
(602,354,cs)
);
}
);
width = 635;
},
{
layerId = "179DD43A-A894-42A9-B4B6-A7F9368B08A7";
shapes = (
{
closed = 1;
nodes = (
(452,0,l),
(352,0,l),
(402,282,ls),
(417,366,o),
(388,407,o),
(319,407,cs),
(252,407,o),
(182,366,o),
(167,282,cs),
(117,0,l),
(17,0,l),
(146,732,l),
(240,732,l),
(186,425,l),
(229,468,o),
(292,503,o),
(367,503,cs),
(465,503,o),
(531,446,o),
(507,312,cs)
);
}
);
width = 558;
},
{
layerId = "7F84CDEE-FC45-41A5-88A7-11DFAD5E6C3A";
shapes = (
{
closed = 1;
nodes = (
(434,0,l),
(352,0,l),
(401,280,ls),
(417,368,o),
(390,412,o),
(314,412,cs),
(242,412,o),
(167,369,o),
(151,280,cs),
(102,0,l),
(20,0,l),
(149,732,l),
(223,732,l),
(167,416,l),
(210,459,o),
(276,493,o),
(349,493,cs),
(448,493,o),
(511,439,o),
(487,303,cs)
);
}
);
width = 542;
}
);
unicode = 104;
},
{
color = 5;
glyphname = i;
layers = (
{
layerId = "EE0A04B7-467B-4BD9-A2DD-E8921F00673F";
shapes = (
{
closed = 1;
nodes = (
(3,0,l),
(98,541,l),
(288,541,l),
(193,0,l)
);
},
{
closed = 1;
nodes = (
(295,780,o),
(337,748,o),
(326,684,cs),
(314,620,o),
(260,587,o),
(200,587,cs),
(140,587,o),
(98,620,o),
(111,684,cs),
(126,767,o),
(205,780,o),
(235,780,cs)
);
}
);
width = 291;
},
{
layerId = "179DD43A-A894-42A9-B4B6-A7F9368B08A7";
shapes = (
{
closed = 1;
nodes = (
(22,0,l),
(109,492,l),
(208,492,l),
(121,0,l)
);
},
{
closed = 1;
nodes = (
(236,712,o),
(260,686,o),
(253,645,cs),
(246,608,o),
(212,580,o),
(172,580,cs),
(136,580,o),
(110,608,o),
(117,645,cs),
(126,698,o),
(172,712,o),
(196,712,cs)
);
}
);
width = 239;
},
{
layerId = "7F84CDEE-FC45-41A5-88A7-11DFAD5E6C3A";
shapes = (
{
closed = 1;
nodes = (
(27,0,l),
(112,482,l),
(193,482,l),
(108,0,l)
);
},
{
closed = 1;
nodes = (
(224,698,o),
(246,673,o),
(239,637,cs),
(234,606,o),
(203,578,o),
(168,578,cs),
(136,578,o),
(114,606,o),
(118,637,cs),
(123,667,o),
(148,698,o),
(189,698,cs)
);
}
);
width = 229;
}
);
unicode = 105;
},
{
color = 5;
glyphname = j;
layers = (
{
layerId = "EE0A04B7-467B-4BD9-A2DD-E8921F00673F";
shapes = (
{
closed = 1;
nodes = (
(-13,-23,l),
(1,-28,o),
(12,-31,o),
(24,-31,cs),
(48,-31,o),
(69,-15,o),
(78,32,cs),
(167,541,l),
(357,541,l),
(266,24,ls),
(242,-113,o),
(163,-163,o),
(40,-163,cs),
(9,-163,o),
(-14,-160,o),
(-37,-156,c)
);
},
{
closed = 1;
nodes = (
(364,780,o),
(406,748,o),
(395,684,cs),
(383,620,o),
(329,587,o),
(269,587,cs),
(209,587,o),
(167,620,o),
(180,684,cs),
(195,767,o),
(274,780,o),
(304,780,cs)
);
}
);
width = 359;
},
{
layerId = "179DD43A-A894-42A9-B4B6-A7F9368B08A7";
shapes = (
{
closed = 1;
nodes = (
(-14,-103,l),
(-4,-107,o),
(7,-109,o),
(18,-109,cs),
(58,-109,o),
(72,-81,o),
(78,-46,cs),
(173,492,l),
(272,492,l),
(180,-27,ls),
(164,-121,o),
(130,-189,o),
(25,-189,cs),
(2,-189,o),
(-13,-186,o),
(-28,-182,c)
);
},
{
closed = 1;
nodes = (
(297,712,o),
(321,686,o),
(314,645,cs),
(307,608,o),
(273,580,o),
(233,580,cs),
(197,580,o),
(171,608,o),
(178,645,cs),
(187,698,o),
(233,712,o),
(257,712,cs)
);
}
);
width = 299;
},
{
layerId = "7F84CDEE-FC45-41A5-88A7-11DFAD5E6C3A";
shapes = (
{
closed = 1;
nodes = (
(-15,-119,l),
(-5,-123,o),
(6,-125,o),
(17,-125,cs),
(60,-125,o),
(72,-94,o),
(78,-62,cs),
(174,482,l),
(255,482,l),
(163,-37,ls),
(148,-122,o),
(123,-194,o),
(22,-194,cs),
(2,-194,o),
(-13,-191,o),
(-27,-187,c)
);
},
{
closed = 1;
nodes = (
(282,698,o),
(304,673,o),
(297,637,cs),
(292,606,o),
(261,578,o),
(226,578,cs),
(194,578,o),
(172,606,o),
(176,637,cs),
(181,667,o),
(206,698,o),
(247,698,cs)
);
}
);
width = 287;
}
);
unicode = 106;
},
{
color = 5;
glyphname = k;
layers = (
{
layerId = "EE0A04B7-467B-4BD9-A2DD-E8921F00673F";
shapes = (
{
closed = 1;
nodes = (
(436,541,l),
(651,541,l),
(425,324,l),
(561,0,l),
(352,0,l),
(244,283,l),
(194,0,l),
(4,0,l),
(133,730,l),
(323,730,l),
(257,360,l)
);
}
);
width = 608;
},
{
layerId = "179DD43A-A894-42A9-B4B6-A7F9368B08A7";
shapes = (
{
closed = 1;
nodes = (
(382,492,l),
(506,492,l),
(252,266,l),
(427,0,l),
(308,0,l),
(157,227,l),
(117,0,l),
(17,0,l),
(146,732,l),
(246,732,l),
(169,294,l)
);
}
);
width = 474;
},
{
layerId = "7F84CDEE-FC45-41A5-88A7-11DFAD5E6C3A";
shapes = (
{
closed = 1;
nodes = (
(371,482,l),
(476,482,l),
(217,254,l),
(400,0,l),
(299,0,l),
(140,216,l),
(102,0,l),
(20,0,l),
(149,732,l),
(231,732,l),
(152,281,l)
);
}
);
width = 447;
}
);
unicode = 107;
},
{
color = 5;
glyphname = l;
layers = (
{
layerId = "EE0A04B7-467B-4BD9-A2DD-E8921F00673F";
shapes = (
{
closed = 1;
nodes = (
(4,0,l),
(133,730,l),
(323,730,l),
(194,0,l)
);
}
);
width = 293;
},
{
layerId = "179DD43A-A894-42A9-B4B6-A7F9368B08A7";
shapes = (
{
closed = 1;
nodes = (
(17,0,l),
(146,732,l),
(246,732,l),
(117,0,l)
);
}
);
width = 230;
},
{
layerId = "7F84CDEE-FC45-41A5-88A7-11DFAD5E6C3A";
shapes = (
{
closed = 1;
nodes = (
(20,0,l),
(149,732,l),
(230,732,l),
(101,0,l)
);
}
);
width = 217;
}
);
unicode = 108;
},
{
color = 5;
glyphname = m;
layers = (
{
layerId = "EE0A04B7-467B-4BD9-A2DD-E8921F00673F";
shapes = (
{
closed = 1;
nodes = (
(739,294,ls),
(749,354,o),
(724,384,o),
(681,384,cs),
(630,384,o),
(595,341,o),
(587,294,cs),
(535,0,l),
(345,0,l),
(397,294,ls),
(407,353,o),
(382,384,o),
(339,384,cs),
(296,384,o),
(256,353,o),
(246,294,cs),
(194,0,l),
(4,0,l),
(99,541,l),
(276,467,l),
(329,520,o),
(387,553,o),
(455,553,cs),
(519,553,o),
(575,525,o),
(593,465,c),
(650,521,o),
(711,553,o),
(791,553,cs),
(906,553,o),
(958,462,o),
(940,355,cs),
(877,0,l),
(687,0,l)
);
}
);
width = 971;
},
{
layerId = "179DD43A-A894-42A9-B4B6-A7F9368B08A7";
shapes = (
{
closed = 1;
nodes = (
(704,282,ls),
(720,375,o),
(688,415,o),
(624,415,cs),
(548,415,o),
(497,353,o),
(485,282,cs),
(435,0,l),
(335,0,l),
(385,282,ls),
(398,358,o),
(381,415,o),
(306,415,cs),
(231,415,o),
(180,355,o),
(167,282,cs),
(117,0,l),
(17,0,l),
(104,491,l),
(191,431,l),
(236,480,o),
(297,503,o),
(357,503,cs),
(422,503,o),
(473,478,o),
(489,414,c),
(534,471,o),
(600,503,o),
(673,503,cs),
(788,503,o),
(828,421,o),
(809,313,cs),
(754,0,l),
(654,0,l)
);
}
);
width = 859;
},
{
layerId = "7F84CDEE-FC45-41A5-88A7-11DFAD5E6C3A";
shapes = (
{
closed = 1;
nodes = (
(696,279,ls),
(714,379,o),
(681,421,o),
(613,421,cs),
(532,421,o),
(478,355,o),
(464,279,cs),
(415,0,l),
(333,0,l),
(382,279,ls),
(396,359,o),
(380,421,o),
(299,421,cs),
(219,421,o),
(165,355,o),
(151,279,cs),
(102,0,l),
(20,0,l),
(105,481,l),
(174,424,l),
(217,472,o),
(280,493,o),
(337,493,cs),
(402,493,o),
(453,468,o),
(468,404,c),
(509,461,o),
(577,493,o),
(649,493,cs),
(764,493,o),
(801,411,o),
(783,304,cs),
(729,0,l),
(647,0,l)
);
}
);
width = 836;
}
);
unicode = 109;
},
{
color = 5;
glyphname = n;
layers = (
{
layerId = "EE0A04B7-467B-4BD9-A2DD-E8921F00673F";
shapes = (
{
closed = 1;
nodes = (
(540,0,l),
(350,0,l),
(402,293,ls),
(412,352,o),
(385,384,o),
(342,384,cs),
(299,384,o),
(256,352,o),
(246,293,cs),
(194,0,l),
(4,0,l),
(99,541,l),
(276,465,l),
(319,510,o),
(376,553,o),
(453,553,cs),
(567,553,o),
(625,483,o),
(602,354,cs)
);
}
);
width = 635;
},
{
layerId = "179DD43A-A894-42A9-B4B6-A7F9368B08A7";
shapes = (
{
closed = 1;
nodes = (
(452,0,l),
(352,0,l),
(402,282,ls),
(419,382,o),
(368,415,o),
(314,415,cs),
(261,415,o),
(185,383,o),
(167,282,cs),
(117,0,l),
(17,0,l),
(104,492,l),
(194,428,l),
(238,472,o),
(296,503,o),
(365,503,cs),
(481,503,o),
(525,415,o),
(507,312,cs)
);
}
);
width = 558;
},
{
layerId = "7F84CDEE-FC45-41A5-88A7-11DFAD5E6C3A";
shapes = (
{
closed = 1;
nodes = (
(434,0,l),
(352,0,l),
(401,280,ls),
(420,388,o),
(365,421,o),
(308,421,cs),
(253,421,o),
(171,390,o),
(151,280,cs),
(102,0,l),
(20,0,l),
(105,482,l),
(178,421,l),
(222,464,o),
(278,493,o),
(347,493,cs),
(462,493,o),
(507,413,o),
(487,303,cs)
);
}
);
width = 542;
}
);
unicode = 110;
},
{
color = 5;
glyphname = o;
layers = (
{
layerId = "EE0A04B7-467B-4BD9-A2DD-E8921F00673F";
shapes = (
{
closed = 1;
nodes = (
(105,-13,o),
(2,115,o),
(30,270,cs),
(57,425,o),
(206,553,o),
(379,553,cs),
(552,553,o),
(653,427,o),
(628,272,cs),
(600,103,o),
(471,-13,o),
(278,-13,cs)
);
},
{
closed = 1;
nodes = (
(280,392,o),
(226,337,o),
(215,272,cs),
(203,205,o),
(241,148,o),
(308,148,cs),
(377,148,o),
(430,205,o),
(443,270,cs),
(455,335,o),
(428,392,o),
(349,392,cs)
);
}
);
width = 657;
},
{
layerId = "179DD43A-A894-42A9-B4B6-A7F9368B08A7";
shapes = (
{
closed = 1;
nodes = (
(96,-11,o),
(5,102,o),
(30,245,cs),
(56,389,o),
(187,504,o),
(340,504,cs),
(493,504,o),
(586,390,o),
(561,247,cs),
(536,105,o),
(423,-11,o),
(248,-11,cs)
);
},
{
closed = 1;
nodes = (
(225,420,o),
(147,343,o),
(131,247,cs),
(113,149,o),
(171,74,o),
(264,74,cs),
(360,74,o),
(442,154,o),
(460,246,cs),
(479,343,o),
(438,420,o),
(324,420,cs)
);
}
);
width = 598;
},
{
layerId = "7F84CDEE-FC45-41A5-88A7-11DFAD5E6C3A";
shapes = (
{
closed = 1;
nodes = (
(94,-10,o),
(5,99,o),
(30,240,cs),
(55,382,o),
(183,494,o),
(332,494,cs),
(481,494,o),
(572,383,o),
(547,242,cs),
(523,106,o),
(415,-10,o),
(242,-10,cs)
);
},
{
closed = 1;
nodes = (
(215,425,o),
(131,343,o),
(114,242,cs),
(95,138,o),
(156,59,o),
(255,59,cs),
(357,59,o),
(443,142,o),
(463,241,cs),
(483,342,o),
(442,425,o),
(319,425,cs)
);
}
);
width = 586;
}
);
unicode = 111;
},
{
color = 5;
glyphname = p;
layers = (
{
layerId = "EE0A04B7-467B-4BD9-A2DD-E8921F00673F";
shapes = (
{
closed = 1;
nodes = (
(-23,-160,l),
(100,541,l),
(278,469,l),
(323,514,o),
(376,553,o),
(457,553,cs),
(585,553,o),
(678,446,o),
(647,271,cs),
(616,95,o),
(486,-12,o),
(358,-12,cs),
(275,-12,o),
(234,25,o),
(207,66,c),
(167,-160,l)
);
},
{
closed = 1;
nodes = (
(309,394,o),
(252,343,o),
(240,270,cs),
(227,198,o),
(266,147,o),
(327,147,cs),
(389,147,o),
(447,197,o),
(460,272,cs),
(471,336,o),
(442,394,o),
(370,394,cs)
);
}
);
width = 675;
},
{
layerId = "179DD43A-A894-42A9-B4B6-A7F9368B08A7";
shapes = (
{
closed = 1;
nodes = (
(-15,-183,l),
(104,492,l),
(200,417,l),
(252,468,o),
(308,504,o),
(388,504,cs),
(517,504,o),
(608,403,o),
(581,247,cs),
(553,91,o),
(422,-10,o),
(297,-10,cs),
(217,-10,o),
(164,24,o),
(131,81,c),
(85,-183,l)
);
},
{
closed = 1;
nodes = (
(262,417,o),
(175,346,o),
(157,246,cs),
(140,147,o),
(204,74,o),
(291,74,cs),
(380,74,o),
(462,143,o),
(482,247,cs),
(501,341,o),
(449,417,o),
(350,417,cs)
);
}
);
width = 618;
},
{
layerId = "7F84CDEE-FC45-41A5-88A7-11DFAD5E6C3A";
shapes = (
{
closed = 1;
nodes = (
(-12,-188,l),
(106,482,l),
(185,406,l),
(239,458,o),
(301,494,o),
(375,494,cs),
(504,494,o),
(595,394,o),
(569,242,cs),
(542,90,o),
(411,-10,o),
(286,-10,cs),
(206,-10,o),
(151,24,o),
(118,84,c),
(70,-188,l)
);
},
{
closed = 1;
nodes = (
(253,422,o),
(160,346,o),
(141,241,cs),
(123,138,o),
(192,59,o),
(285,59,cs),
(379,59,o),
(469,131,o),
(487,242,cs),
(500,328,o),
(463,422,o),
(346,422,cs)
);
}
);
width = 607;
}
);
unicode = 112;
},
{
color = 5;
glyphname = q;
layers = (
{
layerId = "EE0A04B7-467B-4BD9-A2DD-E8921F00673F";
shapes = (
{
closed = 1;
nodes = (
(398,72,l),
(353,27,o),
(299,-12,o),
(219,-12,cs),
(91,-12,o),
(-2,97,o),
(29,270,cs),
(60,446,o),
(190,553,o),
(318,553,cs),
(399,553,o),
(440,516,o),
(469,475,c),
(670,541,l),
(547,-160,l),
(357,-160,l)
);
},
{
closed = 1;
nodes = (
(365,147,o),
(423,200,o),
(436,272,cs),
(448,343,o),
(408,394,o),
(347,394,cs),
(288,394,o),
(230,344,o),
(216,272,cs),
(205,211,o),
(226,147,o),
(304,147,cs)
);
}
);
width = 675;
},
{
layerId = "179DD43A-A894-42A9-B4B6-A7F9368B08A7";
shapes = (
{
closed = 1;
nodes = (
(420,85,l),
(367,28,o),
(303,-11,o),
(224,-11,cs),
(92,-11,o),
(4,94,o),
(30,246,cs),
(58,403,o),
(184,504,o),
(315,504,cs),
(395,504,o),
(437,469,o),
(471,421,c),
(592,492,l),
(473,-183,l),
(373,-183,l)
);
},
{
closed = 1;
nodes = (
(348,74,o),
(436,148,o),
(454,247,cs),
(471,346,o),
(409,419,o),
(321,419,cs),
(229,419,o),
(150,349,o),
(131,248,cs),
(113,157,o),
(146,74,o),
(260,74,cs)
);
}
);
width = 618;
},
{
layerId = "7F84CDEE-FC45-41A5-88A7-11DFAD5E6C3A";
shapes = (
{
closed = 1;
nodes = (
(424,87,l),
(369,27,o),
(304,-11,o),
(225,-11,cs),
(92,-11,o),
(4,93,o),
(30,241,cs),
(57,394,o),
(182,494,o),
(314,494,cs),
(394,494,o),
(436,459,o),
(471,410,c),
(576,482,l),
(458,-188,l),
(376,-188,l)
);
},
{
closed = 1;
nodes = (
(343,59,o),
(438,138,o),
(457,242,cs),
(475,347,o),
(409,424,o),
(316,424,cs),
(218,424,o),
(135,351,o),
(114,243,cs),
(96,147,o),
(139,59,o),
(250,59,cs)
);
}
);
width = 606;
}
);
unicode = 113;
},
{
color = 5;
glyphname = r;
layers = (
{
layerId = "EE0A04B7-467B-4BD9-A2DD-E8921F00673F";
shapes = (
{
closed = 1;
nodes = (
(427,350,l),
(424,350,o),
(418,350,o),
(411,350,cs),
(312,350,o),
(245,292,o),
(224,168,cs),
(194,0,l),
(4,0,l),
(99,541,l),
(270,432,l),
(314,504,o),
(368,550,o),
(453,550,cs),
(456,550,o),
(459,550,o),
(462,550,c)
);
}
);
width = 417;
},
{
layerId = "179DD43A-A894-42A9-B4B6-A7F9368B08A7";
shapes = (
{
closed = 1;
nodes = (
(377,400,l),
(367,407,o),
(354,408,o),
(339,408,cs),
(269,408,o),
(181,364,o),
(162,254,cs),
(117,0,l),
(17,0,l),
(104,492,l),
(195,429,l),
(239,476,o),
(300,501,o),
(357,501,cs),
(372,501,o),
(383,500,o),
(394,497,c)
);
}
);
width = 355;
},
{
layerId = "7F84CDEE-FC45-41A5-88A7-11DFAD5E6C3A";
shapes = (
{
closed = 1;
nodes = (
(366,410,l),
(355,417,o),
(341,419,o),
(324,419,cs),
(260,419,o),
(169,378,o),
(150,271,cs),
(102,0,l),
(20,0,l),
(105,482,l),
(179,428,l),
(224,469,o),
(287,491,o),
(339,491,cs),
(355,491,o),
(367,489,o),
(380,486,c)
);
}
);
width = 343;
}
);
unicode = 114;
},
{
color = 5;
glyphname = s;
layers = (
{
layerId = "EE0A04B7-467B-4BD9-A2DD-E8921F00673F";
shapes = (
{
closed = 1;
nodes = (
(288,213,o),
(3,180,o),
(37,373,cs),
(57,487,o),
(161,552,o),
(286,552,cs),
(361,552,o),
(402,540,o),
(466,513,c),
(439,360,l),
(390,391,o),
(306,419,o),
(261,419,cs),
(232,419,o),
(215,408,o),
(212,391,cs),
(200,321,o),
(484,351,o),
(451,164,cs),
(431,53,o),
(331,-12,o),
(199,-12,cs),
(123,-12,o),
(63,7,o),
(-7,38,c),
(20,193,l),
(75,152,o),
(154,121,o),
(210,121,cs),
(229,121,o),
(272,124,o),
(277,152,cs)
);
}
);
width = 500;
},
{
layerId = "179DD43A-A894-42A9-B4B6-A7F9368B08A7";
shapes = (
{
closed = 1;
nodes = (
(271,242,o),
(22,220,o),
(49,376,cs),
(63,453,o),
(133,503,o),
(233,503,cs),
(284,503,o),
(331,491,o),
(367,463,c),
(349,363,l),
(312,395,o),
(271,424,o),
(220,424,cs),
(176,424,o),
(148,401,o),
(143,376,cs),
(128,292,o),
(375,298,o),
(346,138,cs),
(332,55,o),
(253,-10,o),
(145,-10,cs),
(69,-10,o),
(22,17,o),
(-18,45,c),
(-1,144,l),
(37,104,o),
(94,69,o),
(155,69,cs),
(186,69,o),
(242,79,o),
(252,135,cs)
);
}
);
width = 400;
},
{
layerId = "7F84CDEE-FC45-41A5-88A7-11DFAD5E6C3A";
shapes = (
{
closed = 1;
nodes = (
(267,249,o),
(25,227,o),
(51,376,cs),
(64,447,o),
(128,493,o),
(222,493,cs),
(267,493,o),
(315,482,o),
(347,453,c),
(331,363,l),
(298,397,o),
(262,425,o),
(212,425,cs),
(164,425,o),
(135,400,o),
(130,373,cs),
(114,286,o),
(353,288,o),
(325,133,cs),
(312,56,o),
(237,-10,o),
(134,-10,cs),
(58,-10,o),
(14,19,o),
(-20,46,c),
(-4,134,l),
(31,95,o),
(81,58,o),
(144,58,cs),
(180,58,o),
(235,70,o),
(246,131,cs)
);
}
);
width = 380;
}
);
unicode = 115;
},
{
color = 5;
glyphname = t;
layers = (
{
layerId = "EE0A04B7-467B-4BD9-A2DD-E8921F00673F";
shapes = (
{
closed = 1;
nodes = (
(31,388,l),
(382,708,l),
(352,541,l),
(478,541,l),
(451,388,l),
(325,388,l),
(293,205,ls),
(286,166,o),
(301,151,o),
(336,151,cs),
(361,151,o),
(384,158,o),
(411,169,c),
(385,20,l),
(346,1,o),
(300,-11,o),
(247,-11,cs),
(138,-11,o),
(74,38,o),
(97,168,cs),
(135,388,l)
);
}
);
width = 441;
},
{
layerId = "179DD43A-A894-42A9-B4B6-A7F9368B08A7";
shapes = (
{
closed = 1;
nodes = (
(39,408,l),
(281,659,l),
(252,492,l),
(379,492,l),
(364,408,l),
(237,408,l),
(188,128,ls),
(182,99,o),
(190,74,o),
(223,74,cs),
(236,74,o),
(252,77,o),
(269,85,c),
(255,3,l),
(234,-8,o),
(214,-11,o),
(190,-11,cs),
(107,-11,o),
(75,51,o),
(89,128,cs),
(138,408,l)
);
}
);
width = 353;
},
{
layerId = "7F84CDEE-FC45-41A5-88A7-11DFAD5E6C3A";
shapes = (
{
closed = 1;
nodes = (
(40,412,l),
(259,649,l),
(230,482,l),
(358,482,l),
(346,412,l),
(218,412,l),
(165,112,ls),
(160,85,o),
(167,59,o),
(199,59,cs),
(210,59,o),
(224,61,o),
(240,68,c),
(228,-1,l),
(212,-8,o),
(196,-11,o),
(177,-11,cs),
(99,-11,o),
(74,50,o),
(86,120,cs),
(138,412,l)
);
}
);
width = 335;
}
);
unicode = 116;
},
{
color = 5;
glyphname = u;
layers = (
{
layerId = "EE0A04B7-467B-4BD9-A2DD-E8921F00673F";
shapes = (
{
closed = 1;
nodes = (
(96,541,l),
(286,541,l),
(235,248,ls),
(224,189,o),
(250,157,o),
(296,157,cs),
(341,157,o),
(380,189,o),
(391,248,cs),
(442,541,l),
(632,541,l),
(535,-12,l),
(358,62,l),
(320,21,o),
(260,-12,o),
(183,-12,cs),
(43,-12,o),
(18,94,o),
(34,187,cs)
);
}
);
width = 631;
},
{
layerId = "179DD43A-A894-42A9-B4B6-A7F9368B08A7";
shapes = (
{
closed = 1;
nodes = (
(99,493,l),
(199,493,l),
(149,211,ls),
(130,101,o),
(182,78,o),
(237,78,cs),
(292,78,o),
(365,110,o),
(383,211,cs),
(433,493,l),
(533,493,l),
(446,-2,l),
(356,62,l),
(312,19,o),
(258,-10,o),
(186,-10,cs),
(52,-10,o),
(29,98,o),
(46,191,cs)
);
}
);
width = 551;
},
{
layerId = "7F84CDEE-FC45-41A5-88A7-11DFAD5E6C3A";
shapes = (
{
closed = 1;
nodes = (
(99,483,l),
(181,483,l),
(132,203,ls),
(113,94,o),
(151,62,o),
(218,62,cs),
(275,62,o),
(364,102,o),
(382,203,cs),
(431,483,l),
(513,483,l),
(428,0,l),
(355,62,l),
(311,19,o),
(258,-10,o),
(186,-10,cs),
(54,-10,o),
(30,89,o),
(46,180,cs)
);
}
);
width = 535;
}
);
unicode = 117;
},
{
color = 5;
glyphname = v;
layers = (
{
layerId = "EE0A04B7-467B-4BD9-A2DD-E8921F00673F";
shapes = (
{
closed = 1;
nodes = (
(162,-4,l),
(42,541,l),
(242,541,l),
(291,225,l),
(450,541,l),
(647,541,l),
(335,-4,l)
);
}
);
width = 595;
},
{
layerId = "179DD43A-A894-42A9-B4B6-A7F9368B08A7";
shapes = (
{
closed = 1;
nodes = (
(152,-1,l),
(35,491,l),
(143,491,l),
(222,113,l),
(435,491,l),
(540,491,l),
(248,-1,l)
);
}
);
width = 497;
},
{
layerId = "7F84CDEE-FC45-41A5-88A7-11DFAD5E6C3A";
shapes = (
{
closed = 1;
nodes = (
(151,0,l),
(34,481,l),
(124,481,l),
(209,91,l),
(433,481,l),
(519,481,l),
(232,0,l)
);
}
);
width = 477;
}
);
unicode = 118;
},
{
color = 5;
glyphname = w;
layers = (
{
layerId = "EE0A04B7-467B-4BD9-A2DD-E8921F00673F";
shapes = (
{
closed = 1;
nodes = (
(246,269,l),
(378,543,l),
(535,543,l),
(570,267,l),
(691,541,l),
(874,541,l),
(611,-4,l),
(447,-4,l),
(409,277,l),
(269,-4,l),
(106,-4,l),
(37,541,l),
(223,541,l)
);
}
);
width = 815;
},
{
layerId = "179DD43A-A894-42A9-B4B6-A7F9368B08A7";
shapes = (
{
closed = 1;
nodes = (
(189,127,l),
(366,493,l),
(462,493,l),
(509,128,l),
(685,492,l),
(788,492,l),
(536,-1,l),
(441,-1,l),
(390,375,l),
(208,-1,l),
(116,-1,l),
(38,492,l),
(140,492,l)
);
}
);
width = 748;
},
{
layerId = "7F84CDEE-FC45-41A5-88A7-11DFAD5E6C3A";
shapes = (
{
closed = 1;
nodes = (
(179,99,l),
(365,483,l),
(448,483,l),
(498,100,l),
(685,482,l),
(771,482,l),
(522,0,l),
(441,0,l),
(388,395,l),
(197,0,l),
(119,0,l),
(39,482,l),
(124,482,l)
);
}
);
width = 734;
}
);
unicode = 119;
},
{
color = 5;
glyphname = x;
layers = (
{
layerId = "EE0A04B7-467B-4BD9-A2DD-E8921F00673F";
shapes = (
{
closed = 1;
nodes = (
(52,541,l),
(257,541,l),
(314,408,l),
(417,541,l),
(618,541,l),
(393,274,l),
(527,0,l),
(323,0,l),
(264,139,l),
(154,0,l),
(-46,0,l),
(184,273,l)
);
}
);
width = 576;
},
{
layerId = "179DD43A-A894-42A9-B4B6-A7F9368B08A7";
shapes = (
{
closed = 1;
nodes = (
(57,491,l),
(170,491,l),
(264,324,l),
(419,491,l),
(528,491,l),
(308,255,l),
(453,0,l),
(341,0,l),
(237,183,l),
(69,0,l),
(-41,0,l),
(196,253,l)
);
}
);
width = 506;
},
{
layerId = "7F84CDEE-FC45-41A5-88A7-11DFAD5E6C3A";
shapes = (
{
closed = 1;
nodes = (
(58,481,l),
(152,481,l),
(254,307,l),
(419,481,l),
(509,481,l),
(290,251,l),
(438,0,l),
(345,0,l),
(232,192,l),
(52,0,l),
(-40,0,l),
(198,249,l)
);
}
);
width = 492;
}
);
unicode = 120;
},
{
color = 5;
glyphname = y;
layers = (
{
layerId = "EE0A04B7-467B-4BD9-A2DD-E8921F00673F";
shapes = (
{
closed = 1;
nodes = (
(241,541,l),
(288,195,l),
(451,541,l),
(646,541,l),
(259,-160,l),
(98,-160,l),
(174,-6,l),
(42,541,l)
);
}
);
width = 593;
},
{
layerId = "179DD43A-A894-42A9-B4B6-A7F9368B08A7";
shapes = (
{
closed = 1;
nodes = (
(142,491,l),
(231,114,l),
(439,491,l),
(543,491,l),
(157,-183,l),
(65,-183,l),
(167,-1,l),
(35,491,l)
);
}
);
width = 500;
},
{
layerId = "7F84CDEE-FC45-41A5-88A7-11DFAD5E6C3A";
shapes = (
{
closed = 1;
nodes = (
(123,481,l),
(220,98,l),
(437,481,l),
(523,481,l),
(137,-188,l),
(59,-188,l),
(167,0,l),
(34,481,l)
);
}
);
width = 481;
}
);
unicode = 121;
},
{
color = 5;
glyphname = z;
layers = (
{
layerId = "EE0A04B7-467B-4BD9-A2DD-E8921F00673F";
shapes = (
{
closed = 1;
nodes = (
(497,151,l),
(470,0,l),
(-32,0,l),
(-10,125,l),
(287,390,l),
(46,390,l),
(72,541,l),
(565,541,l),
(543,416,l),
(246,151,l)
);
}
);
width = 536;
},
{
layerId = "179DD43A-A894-42A9-B4B6-A7F9368B08A7";
shapes = (
{
closed = 1;
nodes = (
(448,84,l),
(433,0,l),
(-34,0,l),
(-20,78,l),
(387,410,l),
(57,410,l),
(72,492,l),
(525,492,l),
(511,414,l),
(104,84,l)
);
}
);
width = 509;
},
{
layerId = "7F84CDEE-FC45-41A5-88A7-11DFAD5E6C3A";
shapes = (
{
closed = 1;
nodes = (
(438,70,l),
(426,0,l),
(-35,0,l),
(-23,69,l),
(407,414,l),
(59,414,l),
(71,482,l),
(517,482,l),
(505,414,l),
(75,70,l)
);
}
);
width = 504;
}
);
unicode = 122;
},
{
color = 5;
glyphname = braceleft;
layers = (
{
layerId = "EE0A04B7-467B-4BD9-A2DD-E8921F00673F";
shapes = (
{
closed = 1;
nodes = (
(50,350,l),
(214,350,o),
(192,416,o),
(213,533,cs),
(238,677,o),
(394,699,o),
(509,715,c),
(488,598,l),
(427,587,o),
(388,567,o),
(376,500,cs),
(358,397,o),
(368,324,o),
(230,287,c),
(293,268,o),
(334,229,o),
(318,153,cs),
(300,66,o),
(267,-5,o),
(379,-24,c),
(358,-141,l),
(158,-114,o),
(100,-81,o),
(144,126,cs),
(165,217,o),
(99,224,o),
(27,224,c)
);
}
);
width = 464;
},
{
layerId = "179DD43A-A894-42A9-B4B6-A7F9368B08A7";
shapes = (
{
closed = 1;
nodes = (
(52,329,l),
(139,329,o),
(171,365,o),
(186,448,cs),
(217,624,o),
(232,719,o),
(446,730,c),
(444,662,l),
(367,646,o),
(314,632,o),
(299,546,cs),
(280,434,o),
(288,343,o),
(158,289,c),
(259,238,o),
(231,152,o),
(212,45,cs),
(196,-45,o),
(231,-69,o),
(312,-85,c),
(290,-153,l),
(124,-142,o),
(87,-103,o),
(116,64,cs),
(133,157,o),
(164,247,o),
(38,247,c)
);
}
);
width = 415;
},
{
layerId = "7F84CDEE-FC45-41A5-88A7-11DFAD5E6C3A";
shapes = (
{
closed = 1;
nodes = (
(52,325,l),
(124,325,o),
(167,356,o),
(180,431,cs),
(212,615,o),
(199,722,o),
(433,733,c),
(435,675,l),
(355,659,o),
(300,645,o),
(284,555,cs),
(264,441,o),
(272,345,o),
(143,289,c),
(252,233,o),
(210,137,o),
(190,23,cs),
(174,-67,o),
(225,-81,o),
(299,-97,c),
(277,-155,l),
(118,-147,o),
(83,-106,o),
(111,51,cs),
(128,145,o),
(175,252,o),
(39,252,c)
);
}
);
width = 405;
}
);
unicode = 123;
},
{
color = 5;
glyphname = bar;
layers = (
{
layerId = "EE0A04B7-467B-4BD9-A2DD-E8921F00673F";
shapes = (
{
closed = 1;
nodes = (
(345,-128,l),
(200,-128,l),
(364,798,l),
(509,798,l)
);
}
);
width = 685;
},
{
layerId = "179DD43A-A894-42A9-B4B6-A7F9368B08A7";
shapes = (
{
closed = 1;
nodes = (
(263,-161,l),
(178,-161,l),
(342,772,l),
(427,772,l)
);
}
);
width = 589;
},
{
layerId = "7F84CDEE-FC45-41A5-88A7-11DFAD5E6C3A";
shapes = (
{
closed = 1;
nodes = (
(245,-168,l),
(172,-168,l),
(337,767,l),
(410,767,l)
);
}
);
width = 570;
}
);
unicode = 124;
},
{
color = 5;
glyphname = braceright;
layers = (
{
layerId = "EE0A04B7-467B-4BD9-A2DD-E8921F00673F";
shapes = (
{
closed = 1;
nodes = (
(422,224,l),
(265,224,o),
(281,166,o),
(261,52,cs),
(234,-100,o),
(89,-125,o),
(-37,-141,c),
(-16,-24,l),
(99,-5,o),
(96,65,o),
(107,153,cs),
(117,227,o),
(172,268,o),
(243,287,c),
(178,306,o),
(138,345,o),
(154,421,cs),
(173,509,o),
(206,579,o),
(93,598,c),
(114,715,l),
(223,699,o),
(371,677,o),
(346,533,cs),
(326,417,o),
(282,350,o),
(445,350,c)
);
}
);
width = 464;
},
{
layerId = "179DD43A-A894-42A9-B4B6-A7F9368B08A7";
shapes = (
{
closed = 1;
nodes = (
(371,247,l),
(286,247,o),
(253,214,o),
(238,131,cs),
(205,-55,o),
(192,-142,o),
(-23,-153,c),
(-21,-85,l),
(66,-69,o),
(110,-45,o),
(126,45,cs),
(145,152,o),
(145,238,o),
(266,289,c),
(163,340,o),
(193,424,o),
(212,533,cs),
(228,622,o),
(192,646,o),
(111,662,c),
(133,730,l),
(284,722,o),
(337,684,o),
(309,528,cs),
(292,432,o),
(246,326,o),
(385,329,c)
);
}
);
width = 415;
},
{
layerId = "7F84CDEE-FC45-41A5-88A7-11DFAD5E6C3A";
shapes = (
{
closed = 1;
nodes = (
(360,252,l),
(288,252,o),
(246,222,o),
(233,147,cs),
(199,-46,o),
(214,-144,o),
(-20,-155,c),
(-22,-97,l),
(58,-81,o),
(113,-67,o),
(129,23,cs),
(149,137,o),
(141,233,o),
(270,289,c),
(161,345,o),
(203,441,o),
(223,555,cs),
(239,645,o),
(188,659,o),
(114,675,c),
(136,733,l),
(295,725,o),
(330,684,o),
(302,527,cs),
(286,435,o),
(240,322,o),
(373,325,c)
);
}
);
width = 405;
}
);
unicode = 125;
},
{
color = 5;
glyphname = asciitilde;
layers = (
{
layerId = "EE0A04B7-467B-4BD9-A2DD-E8921F00673F";
shapes = (
{
closed = 1;
nodes = (
(471,357,l),
(432,258,o),
(382,227,o),
(329,227,cs),
(270,227,o),
(221,266,o),
(179,266,cs),
(152,266,o),
(139,251,o),
(121,220,c),
(40,260,l),
(80,360,o),
(122,394,o),
(183,394,cs),
(247,394,o),
(291,355,o),
(333,355,cs),
(360,355,o),
(373,370,o),
(392,401,c)
);
}
);
width = 497;
},
{
layerId = "179DD43A-A894-42A9-B4B6-A7F9368B08A7";
shapes = (
{
closed = 1;
nodes = (
(482,349,l),
(444,276,o),
(398,234,o),
(343,234,cs),
(282,234,o),
(235,286,o),
(181,286,cs),
(148,286,o),
(126,265,o),
(100,228,c),
(49,254,l),
(90,331,o),
(132,369,o),
(192,369,cs),
(262,369,o),
(297,317,o),
(347,317,cs),
(378,317,o),
(407,338,o),
(430,374,c)
);
}
);
width = 519;
},
{
layerId = "7F84CDEE-FC45-41A5-88A7-11DFAD5E6C3A";
shapes = (
{
closed = 1;
nodes = (
(482,347,l),
(443,279,o),
(399,235,o),
(344,235,cs),
(283,235,o),
(237,290,o),
(181,290,cs),
(146,290,o),
(120,268,o),
(94,229,c),
(50,253,l),
(91,325,o),
(133,364,o),
(193,364,cs),
(263,364,o),
(297,309,o),
(348,309,cs),
(380,309,o),
(413,332,o),
(436,369,c)
);
}
);
width = 523;
}
);
unicode = 126;
},
{
color = 5;
glyphname = exclamdown;
layers = (
{
layerId = "EE0A04B7-467B-4BD9-A2DD-E8921F00673F";
shapes = (
{
closed = 1;
nodes = (
(-2,-94,l),
(125,293,l),
(225,293,l),
(214,-94,l),
(199,-179,l),
(-17,-179,l)
);
},
{
closed = 1;
nodes = (
(123,341,o),
(80,374,o),
(93,438,cs),
(108,510,o),
(170,534,o),
(217,534,cs),
(277,534,o),
(319,502,o),
(308,438,cs),
(297,374,o),
(243,341,o),
(183,341,cs)
);
}
);
width = 341;
},
{
layerId = "179DD43A-A894-42A9-B4B6-A7F9368B08A7";
shapes = (
{
closed = 1;
nodes = (
(37,-60,l),
(127,319,l),
(190,319,l),
(146,-60,l),
(129,-179,l),
(11,-179,l)
);
},
{
closed = 1;
nodes = (
(136,403,o),
(111,429,o),
(117,470,cs),
(126,525,o),
(171,535,o),
(196,535,cs),
(235,535,o),
(258,506,o),
(252,470,cs),
(245,429,o),
(212,403,o),
(173,403,cs)
);
}
);
width = 299;
},
{
layerId = "7F84CDEE-FC45-41A5-88A7-11DFAD5E6C3A";
shapes = (
{
closed = 1;
nodes = (
(46,-53,l),
(128,324,l),
(183,324,l),
(133,-53,l),
(115,-179,l),
(17,-179,l)
);
},
{
closed = 1;
nodes = (
(138,415,o),
(116,443,o),
(122,476,cs),
(129,516,o),
(165,535,o),
(192,535,cs),
(224,535,o),
(247,508,o),
(241,476,cs),
(235,443,o),
(203,415,o),
(171,415,cs)
);
}
);
width = 291;
}
);
unicode = 161;
},
{
color = 5;
glyphname = cent;
layers = (
{
layerId = "EE0A04B7-467B-4BD9-A2DD-E8921F00673F";
shapes = (
{
closed = 1;
nodes = (
(337,491,l),
(274,482,o),
(224,428,o),
(212,355,cs),
(202,302,o),
(215,261,o),
(247,238,c)
);
},
{
closed = 1;
nodes = (
(493,438,l),
(475,466,o),
(453,482,o),
(431,487,c),
(336,221,l),
(389,221,o),
(437,247,o),
(469,278,c),
(440,112,l),
(397,89,o),
(350,78,o),
(296,75,c),
(268,-6,l),
(153,-6,l),
(187,92,l),
(83,129,o),
(25,233,o),
(47,355,cs),
(74,511,o),
(213,636,o),
(380,636,c),
(404,706,l),
(519,706,l),
(489,619,l),
(500,615,o),
(512,610,o),
(522,603,c)
);
}
);
width = 500;
},
{
layerId = "179DD43A-A894-42A9-B4B6-A7F9368B08A7";
shapes = (
{
closed = 1;
nodes = (
(318,540,l),
(229,533,o),
(166,473,o),
(149,372,cs),
(134,289,o),
(161,239,o),
(219,207,c)
);
},
{
closed = 1;
nodes = (
(484,477,l),
(466,504,o),
(429,530,o),
(383,535,c),
(284,197,l),
(343,197,o),
(400,229,o),
(447,270,c),
(429,172,l),
(384,136,o),
(330,115,o),
(262,114,c),
(236,29,l),
(163,29,l),
(192,125,l),
(88,154,o),
(33,254,o),
(53,368,cs),
(79,515,o),
(194,618,o),
(342,626,c),
(365,705,l),
(437,705,l),
(413,619,l),
(444,612,o),
(473,598,o),
(501,574,c)
);
}
);
width = 490;
},
{
layerId = "7F84CDEE-FC45-41A5-88A7-11DFAD5E6C3A";
shapes = (
{
closed = 1;
nodes = (
(314,550,l),
(221,543,o),
(154,483,o),
(135,375,cs),
(120,287,o),
(151,234,o),
(213,201,c)
);
},
{
closed = 1;
nodes = (
(482,485,l),
(463,512,o),
(424,539,o),
(374,544,c),
(273,192,l),
(333,192,o),
(394,225,o),
(442,268,c),
(427,184,l),
(381,145,o),
(325,122,o),
(256,122,c),
(229,36,l),
(164,36,l),
(193,131,l),
(89,160,o),
(33,257,o),
(53,371,cs),
(79,514,o),
(192,616,o),
(334,624,c),
(357,705,l),
(420,705,l),
(397,619,l),
(432,612,o),
(466,595,o),
(496,568,c)
);
}
);
width = 488;
}
);
unicode = 162;
},
{
color = 5;
glyphname = sterling;
layers = (
{
layerId = "EE0A04B7-467B-4BD9-A2DD-E8921F00673F";
shapes = (
{
closed = 1;
nodes = (
(292,263,l),
(273,153,l),
(566,153,l),
(539,0,l),
(53,0,l),
(99,263,l),
(24,263,l),
(48,399,l),
(123,399,l),
(132,450,ls),
(161,610,o),
(274,712,o),
(439,712,cs),
(548,712,o),
(612,671,o),
(654,611,c),
(504,494,l),
(479,526,o),
(453,539,o),
(421,539,cs),
(371,539,o),
(335,506,o),
(325,450,cs),
(316,399,l),
(532,399,l),
(508,263,l)
);
}
);
width = 598;
},
{
layerId = "179DD43A-A894-42A9-B4B6-A7F9368B08A7";
shapes = (
{
closed = 1;
nodes = (
(207,298,l),
(169,86,l),
(492,86,l),
(477,0,l),
(50,0,l),
(103,298,l),
(35,298,l),
(48,377,l),
(116,377,l),
(133,472,ls),
(158,614,o),
(259,716,o),
(407,716,cs),
(499,716,o),
(557,679,o),
(594,619,c),
(515,554,l),
(487,597,o),
(456,623,o),
(391,623,cs),
(300,623,o),
(252,554,o),
(237,471,cs),
(220,377,l),
(464,377,l),
(451,298,l)
);
}
);
width = 552;
},
{
layerId = "7F84CDEE-FC45-41A5-88A7-11DFAD5E6C3A";
shapes = (
{
closed = 1;
nodes = (
(186,292,l),
(148,73,l),
(478,73,l),
(465,0,l),
(49,0,l),
(103,305,l),
(37,305,l),
(49,373,l),
(115,373,l),
(133,476,ls),
(157,615,o),
(256,717,o),
(400,717,cs),
(488,717,o),
(546,680,o),
(582,620,c),
(517,566,l),
(489,611,o),
(457,640,o),
(385,640,cs),
(286,640,o),
(234,563,o),
(219,475,cs),
(201,373,l),
(445,373,l),
(439,305,l)
);
}
);
width = 543;
}
);
unicode = 163;
},
{
color = 5;
glyphname = currency;
layers = (
{
layerId = "EE0A04B7-467B-4BD9-A2DD-E8921F00673F";
shapes = (
{
closed = 1;
nodes = (
(618,470,l),
(637,427,o),
(644,385,o),
(634,329,cs),
(624,273,o),
(602,228,o),
(567,185,c),
(642,94,l),
(549,15,l),
(471,108,l),
(426,84,o),
(377,69,o),
(325,69,cs),
(274,69,o),
(232,82,o),
(193,109,c),
(80,15,l),
(16,94,l),
(125,188,l),
(105,228,o),
(99,277,o),
(108,329,cs),
(116,377,o),
(136,426,o),
(173,469,c),
(98,560,l),
(190,639,l),
(268,549,l),
(317,576,o),
(361,589,o),
(417,589,cs),
(470,589,o),
(515,575,o),
(551,550,c),
(658,639,l),
(724,560,l)
);
},
{
closed = 1;
nodes = (
(219,249,o),
(262,184,o),
(345,184,cs),
(428,184,o),
(495,249,o),
(509,329,cs),
(523,409,o),
(480,474,o),
(397,474,cs),
(310,474,o),
(250,425,o),
(233,329,cs)
);
}
);
width = 719;
},
{
layerId = "179DD43A-A894-42A9-B4B6-A7F9368B08A7";
shapes = (
{
closed = 1;
nodes = (
(596,481,l),
(618,433,o),
(628,388,o),
(618,328,cs),
(607,268,o),
(579,218,o),
(540,173,c),
(618,80,l),
(553,25,l),
(474,120,l),
(422,89,o),
(371,73,o),
(315,73,cs),
(259,73,o),
(215,89,o),
(173,121,c),
(58,25,l),
(14,80,l),
(127,176,l),
(102,219,o),
(94,265,o),
(105,328,cs),
(116,389,o),
(135,431,o),
(178,479,c),
(101,572,l),
(165,627,l),
(243,533,l),
(294,568,o),
(349,583,o),
(405,583,cs),
(464,583,o),
(511,566,o),
(548,534,c),
(659,627,l),
(705,572,l)
);
},
{
closed = 1;
nodes = (
(175,232,o),
(229,155,o),
(329,155,cs),
(429,155,o),
(511,232,o),
(528,327,cs),
(545,427,o),
(491,502,o),
(391,502,cs),
(286,502,o),
(213,443,o),
(192,328,cs)
);
}
);
width = 697;
},
{
layerId = "7F84CDEE-FC45-41A5-88A7-11DFAD5E6C3A";
shapes = (
{
closed = 1;
nodes = (
(591,483,l),
(615,434,o),
(625,389,o),
(614,328,cs),
(603,267,o),
(575,216,o),
(534,171,c),
(613,77,l),
(554,27,l),
(475,122,l),
(422,90,o),
(369,74,o),
(313,74,cs),
(257,74,o),
(210,90,o),
(169,123,c),
(54,27,l),
(14,77,l),
(128,174,l),
(100,217,o),
(93,264,o),
(104,328,cs),
(115,392,o),
(135,432,o),
(179,481,c),
(101,574,l),
(159,624,l),
(237,530,l),
(289,565,o),
(347,582,o),
(403,582,cs),
(463,582,o),
(510,564,o),
(548,531,c),
(658,624,l),
(700,574,l)
);
},
{
closed = 1;
nodes = (
(166,229,o),
(222,149,o),
(326,149,cs),
(429,149,o),
(513,228,o),
(531,327,cs),
(549,431,o),
(492,507,o),
(389,507,cs),
(281,507,o),
(205,447,o),
(184,328,cs)
);
}
);
width = 693;
}
);
unicode = 164;
},
{
color = 5;
glyphname = yen;
layers = (
{
layerId = "EE0A04B7-467B-4BD9-A2DD-E8921F00673F";
shapes = (
{
closed = 1;
nodes = (
(236,263,l),
(62,263,l),
(84,383,l),
(222,383,l),
(69,700,l),
(289,700,l),
(381,470,l),
(553,700,l),
(769,700,l),
(505,383,l),
(644,383,l),
(622,263,l),
(448,263,l),
(430,213,l),
(614,213,l),
(592,93,l),
(408,93,l),
(392,0,l),
(200,0,l),
(216,93,l),
(32,93,l),
(54,213,l),
(238,213,l)
);
}
);
width = 687;
},
{
layerId = "179DD43A-A894-42A9-B4B6-A7F9368B08A7";
shapes = (
{
closed = 1;
nodes = (
(250,296,l),
(74,296,l),
(88,372,l),
(232,372,l),
(77,704,l),
(195,704,l),
(327,388,l),
(569,704,l),
(684,704,l),
(413,372,l),
(556,372,l),
(542,296,l),
(367,296,l),
(346,213,l),
(528,213,l),
(514,137,l),
(330,137,l),
(306,0,l),
(207,0,l),
(231,137,l),
(46,137,l),
(60,213,l),
(246,213,l)
);
}
);
width = 606;
},
{
layerId = "7F84CDEE-FC45-41A5-88A7-11DFAD5E6C3A";
shapes = (
{
closed = 1;
nodes = (
(252,303,l),
(76,303,l),
(88,370,l),
(233,370,l),
(78,705,l),
(176,705,l),
(317,372,l),
(572,705,l),
(667,705,l),
(394,370,l),
(538,370,l),
(526,303,l),
(350,303,l),
(329,213,l),
(511,213,l),
(499,146,l),
(315,146,l),
(289,0,l),
(208,0,l),
(234,146,l),
(49,146,l),
(61,213,l),
(247,213,l)
);
}
);
width = 590;
}
);
unicode = 165;
},
{
color = 5;
glyphname = brokenbar;
layers = (
{
layerId = "EE0A04B7-467B-4BD9-A2DD-E8921F00673F";
shapes = (
{
closed = 1;
nodes = (
(447,321,l),
(280,321,l),
(341,667,l),
(508,667,l)
);
},
{
closed = 1;
nodes = (
(359,-173,l),
(192,-173,l),
(254,174,l),
(421,173,l)
);
}
);
width = 707;
},
{
layerId = "179DD43A-A894-42A9-B4B6-A7F9368B08A7";
shapes = (
{
closed = 1;
nodes = (
(355,327,l),
(264,327,l),
(326,679,l),
(417,679,l)
);
},
{
closed = 1;
nodes = (
(266,-174,l),
(175,-174,l),
(237,173,l),
(328,173,l)
);
}
);
width = 595;
},
{
layerId = "7F84CDEE-FC45-41A5-88A7-11DFAD5E6C3A";
shapes = (
{
closed = 1;
nodes = (
(336,328,l),
(260,328,l),
(322,681,l),
(398,681,l)
);
},
{
closed = 1;
nodes = (
(247,-174,l),
(171,-174,l),
(233,173,l),
(309,173,l)
);
}
);
width = 573;
}
);
unicode = 166;
},
{
color = 5;
glyphname = section;
layers = (
{
layerId = "EE0A04B7-467B-4BD9-A2DD-E8921F00673F";
shapes = (
{
closed = 1;
nodes = (
(501,525,l),
(456,561,o),
(403,584,o),
(347,584,cs),
(310,584,o),
(292,573,o),
(289,557,cs),
(286,536,o),
(308,520,o),
(376,506,cs),
(496,481,o),
(593,443,o),
(578,355,cs),
(569,304,o),
(527,258,o),
(458,249,c),
(493,226,o),
(505,190,o),
(497,149,cs),
(482,61,o),
(393,-13,o),
(239,-13,cs),
(179,-13,o),
(126,-1,o),
(84,18,c),
(112,175,l),
(157,139,o),
(211,116,o),
(264,116,cs),
(303,116,o),
(320,127,o),
(324,146,cs),
(327,165,o),
(302,179,o),
(236,194,c),
(116,218,o),
(19,262,o),
(34,345,cs),
(42,394,o),
(81,437,o),
(155,451,c),
(124,480,o),
(108,518,o),
(115,559,cs),
(129,641,o),
(220,713,o),
(374,713,cs),
(435,713,o),
(485,702,o),
(528,681,c)
);
},
{
closed = 1;
nodes = (
(210,407,o),
(188,392,o),
(184,371,cs),
(175,320,o),
(321,293,o),
(370,293,cs),
(401,293,o),
(424,312,o),
(428,332,cs),
(438,383,o),
(280,407,o),
(241,407,cs)
);
}
);
width = 594;
},
{
layerId = "179DD43A-A894-42A9-B4B6-A7F9368B08A7";
shapes = (
{
closed = 1;
nodes = (
(489,578,l),
(445,619,o),
(404,642,o),
(344,642,cs),
(284,642,o),
(240,621,o),
(235,578,cs),
(230,536,o),
(255,512,o),
(359,476,cs),
(500,426,o),
(535,374,o),
(523,309,cs),
(511,249,o),
(462,211,o),
(386,191,c),
(424,158,o),
(440,121,o),
(433,77,cs),
(417,-12,o),
(329,-74,o),
(214,-74,cs),
(145,-74,o),
(94,-53,o),
(56,-18,c),
(72,75,l),
(111,27,o),
(165,4,o),
(229,4,cs),
(289,4,o),
(327,27,o),
(335,74,cs),
(343,117,o),
(296,144,o),
(206,177,cs),
(77,225,o),
(33,267,o),
(47,346,cs),
(57,401,o),
(106,450,o),
(185,462,c),
(153,489,o),
(128,528,o),
(137,579,cs),
(152,663,o),
(241,721,o),
(353,721,cs),
(418,721,o),
(470,701,o),
(505,670,c)
);
},
{
closed = 1;
nodes = (
(184,414,o),
(143,392,o),
(136,349,cs),
(125,290,o),
(216,247,o),
(331,231,c),
(387,231,o),
(424,258,o),
(432,295,cs),
(452,387,o),
(286,413,o),
(241,421,c)
);
}
);
width = 562;
},
{
layerId = "7F84CDEE-FC45-41A5-88A7-11DFAD5E6C3A";
shapes = (
{
closed = 1;
nodes = (
(486,588,l),
(442,631,o),
(403,654,o),
(342,654,cs),
(278,654,o),
(230,631,o),
(223,583,cs),
(217,543,o),
(243,506,o),
(354,470,cs),
(492,425,o),
(521,357,o),
(509,293,cs),
(499,237,o),
(457,198,o),
(369,179,c),
(409,144,o),
(427,107,o),
(419,62,cs),
(403,-27,o),
(315,-86,o),
(208,-86,cs),
(136,-86,o),
(86,-62,o),
(50,-25,c),
(64,55,l),
(100,4,o),
(156,-18,o),
(221,-18,cs),
(285,-18,o),
(327,8,o),
(336,59,cs),
(345,106,o),
(294,142,o),
(200,173,cs),
(68,216,o),
(36,281,o),
(48,344,cs),
(59,402,o),
(105,447,o),
(193,464,c),
(159,491,o),
(132,531,o),
(141,584,cs),
(156,667,o),
(245,722,o),
(348,722,cs),
(413,722,o),
(466,701,o),
(500,668,c)
);
},
{
closed = 1;
nodes = (
(179,417,o),
(133,392,o),
(125,345,cs),
(114,284,o),
(193,236,o),
(320,217,c),
(380,217,o),
(425,247,o),
(433,292,cs),
(446,369,o),
(353,403,o),
(240,424,c)
);
}
);
width = 556;
}
);
unicode = 167;
},
{
color = 5;
glyphname = dieresis;
layers = (
{
layerId = "EE0A04B7-467B-4BD9-A2DD-E8921F00673F";
shapes = (
{
closed = 1;
nodes = (
(227,800,o),
(261,771,o),
(251,715,cs),
(241,659,o),
(197,629,o),
(148,629,cs),
(99,629,o),
(64,659,o),
(75,715,cs),
(88,783,o),
(142,800,o),
(178,800,cs)
);
},
{
closed = 1;
nodes = (
(453,800,o),
(487,771,o),
(477,715,cs),
(467,659,o),
(423,629,o),
(374,629,cs),
(325,629,o),
(290,659,o),
(301,715,cs),
(314,783,o),
(368,800,o),
(404,800,cs)
);
}
);
width = 394;
},
{
layerId = "179DD43A-A894-42A9-B4B6-A7F9368B08A7";
shapes = (
{
closed = 1;
nodes = (
(208,753,o),
(233,726,o),
(227,690,cs),
(220,653,o),
(186,627,o),
(151,627,cs),
(114,627,o),
(91,653,o),
(98,690,cs),
(106,740,o),
(150,753,o),
(173,753,cs)
);
},
{
closed = 1;
nodes = (
(403,753,o),
(428,726,o),
(422,690,cs),
(415,653,o),
(381,627,o),
(346,627,cs),
(309,627,o),
(286,653,o),
(293,690,cs),
(301,740,o),
(345,753,o),
(368,753,cs)
);
}
);
width = 372;
},
{
layerId = "7F84CDEE-FC45-41A5-88A7-11DFAD5E6C3A";
shapes = (
{
closed = 1;
nodes = (
(205,744,o),
(228,717,o),
(223,685,cs),
(217,652,o),
(184,626,o),
(152,626,cs),
(117,626,o),
(98,651,o),
(104,686,cs),
(113,730,o),
(146,744,o),
(173,744,cs)
);
},
{
closed = 1;
nodes = (
(394,744,o),
(417,717,o),
(412,685,cs),
(406,652,o),
(373,626,o),
(341,626,cs),
(306,626,o),
(287,651,o),
(293,686,cs),
(302,730,o),
(335,744,o),
(362,744,cs)
);
}
);
width = 368;
}
);
unicode = 168;
},
{
color = 5;
glyphname = copyright;
layers = (
{
layerId = "EE0A04B7-467B-4BD9-A2DD-E8921F00673F";
shapes = (
{
closed = 1;
nodes = (
(72,547,o),
(261,714,o),
(465,714,cs),
(668,714,o),
(797,549,o),
(762,353,cs),
(728,156,o),
(569,-14,o),
(335,-14,cs),
(133,-14,o),
(-3,114,o),
(38,351,cs)
);
},
{
closed = 1;
nodes = (
(751,529,o),
(640,674,o),
(458,674,cs),
(275,674,o),
(111,527,o),
(80,351,cs),
(49,173,o),
(141,26,o),
(342,26,cs),
(505,26,o),
(682,139,o),
(720,353,cs)
);
},
{
closed = 1;
nodes = (
(481,178,l),
(455,167,o),
(420,155,o),
(379,155,cs),
(265,155,o),
(186,247,o),
(205,355,cs),
(223,462,o),
(335,554,o),
(456,554,cs),
(489,554,o),
(518,547,o),
(541,534,c),
(518,405,l),
(501,424,o),
(476,441,o),
(441,441,cs),
(390,441,o),
(344,403,o),
(336,355,cs),
(327,306,o),
(361,268,o),
(407,268,cs),
(446,268,o),
(479,285,o),
(504,304,c)
);
}
);
width = 769;
},
{
layerId = "179DD43A-A894-42A9-B4B6-A7F9368B08A7";
shapes = (
{
closed = 1;
nodes = (
(89,570,o),
(294,747,o),
(505,747,cs),
(717,747,o),
(860,573,o),
(822,357,cs),
(784,141,o),
(582,-32,o),
(368,-32,cs),
(140,-32,o),
(7,106,o),
(51,360,cs)
);
},
{
closed = 1;
nodes = (
(793,537,o),
(674,682,o),
(494,682,cs),
(314,682,o),
(144,537,o),
(112,359,cs),
(81,179,o),
(160,32,o),
(380,32,cs),
(520,32,o),
(723,144,o),
(761,357,cs)
);
},
{
closed = 1;
nodes = (
(534,183,l),
(494,155,o),
(451,137,o),
(398,137,cs),
(274,137,o),
(202,236,o),
(224,364,cs),
(246,490,o),
(351,587,o),
(480,587,cs),
(536,587,o),
(576,566,o),
(599,547,c),
(584,458,l),
(558,489,o),
(517,509,o),
(472,509,cs),
(397,509,o),
(330,447,o),
(315,364,cs),
(301,281,o),
(341,216,o),
(422,216,cs),
(457,216,o),
(499,227,o),
(549,266,c)
);
}
);
width = 840;
},
{
layerId = "7F84CDEE-FC45-41A5-88A7-11DFAD5E6C3A";
shapes = (
{
closed = 1;
nodes = (
(91,575,o),
(300,753,o),
(513,753,cs),
(727,753,o),
(873,577,o),
(834,358,cs),
(795,138,o),
(601,-36,o),
(375,-36,cs),
(153,-36,o),
(7,103,o),
(54,362,cs)
);
},
{
closed = 1;
nodes = (
(801,538,o),
(681,684,o),
(502,684,cs),
(322,684,o),
(150,539,o),
(118,360,cs),
(87,180,o),
(166,33,o),
(387,33,cs),
(547,33,o),
(731,145,o),
(769,358,cs)
);
},
{
closed = 1;
nodes = (
(544,184,l),
(503,152,o),
(457,133,o),
(401,133,cs),
(274,133,o),
(205,234,o),
(229,366,cs),
(251,496,o),
(354,594,o),
(485,594,cs),
(545,594,o),
(588,570,o),
(611,549,c),
(597,468,l),
(569,501,o),
(525,522,o),
(478,522,cs),
(398,522,o),
(326,454,o),
(311,366,cs),
(295,276,o),
(337,205,o),
(425,205,cs),
(458,205,o),
(503,215,o),
(557,258,c)
);
}
);
width = 854;
}
);
unicode = 169;
},
{
color = 5;
glyphname = ordfeminine;
layers = (
{
layerId = "EE0A04B7-467B-4BD9-A2DD-E8921F00673F";
shapes = (
{
closed = 1;
nodes = (
(80,570,o),
(130,599,o),
(202,599,cs),
(230,599,o),
(255,595,o),
(271,588,c),
(271,592,l),
(277,623,o),
(261,641,o),
(220,641,cs),
(192,641,o),
(164,635,o),
(135,624,c),
(127,698,l),
(165,713,o),
(203,721,o),
(251,721,cs),
(355,721,o),
(389,677,o),
(374,589,cs),
(344,419,l),
(240,419,l),
(246,451,l),
(221,428,o),
(191,413,o),
(152,413,cs),
(103,413,o),
(56,438,o),
(68,506,cs)
);
},
{
closed = 1;
nodes = (
(339,363,l),
(325,286,l),
(26,286,l),
(40,363,l)
);
},
{
closed = 1;
nodes = (
(263,541,l),
(253,545,o),
(240,549,o),
(224,549,cs),
(195,549,o),
(174,534,o),
(170,513,cs),
(167,493,o),
(179,479,o),
(200,479,cs),
(224,479,o),
(254,491,o),
(261,528,c)
);
}
);
width = 354;
},
{
layerId = "179DD43A-A894-42A9-B4B6-A7F9368B08A7";
shapes = (
{
closed = 1;
nodes = (
(79,578,o),
(134,609,o),
(206,609,cs),
(238,609,o),
(258,603,o),
(282,596,c),
(283,603,l),
(291,648,o),
(267,669,o),
(220,669,cs),
(189,669,o),
(162,662,o),
(132,647,c),
(125,696,l),
(158,711,o),
(196,722,o),
(236,722,cs),
(313,722,o),
(358,685,o),
(343,602,cs),
(313,429,l),
(253,429,l),
(260,469,l),
(232,441,o),
(196,423,o),
(157,423,cs),
(105,423,o),
(56,448,o),
(68,514,cs)
);
},
{
closed = 1;
nodes = (
(304,353,l),
(295,301,l),
(27,301,l),
(36,353,l)
);
},
{
closed = 1;
nodes = (
(275,555,l),
(257,563,o),
(236,569,o),
(208,569,cs),
(163,569,o),
(134,550,o),
(128,517,cs),
(123,485,o),
(145,469,o),
(180,469,cs),
(226,469,o),
(262,484,o),
(272,536,c)
);
}
);
width = 326;
},
{
layerId = "7F84CDEE-FC45-41A5-88A7-11DFAD5E6C3A";
shapes = (
{
closed = 1;
nodes = (
(78,580,o),
(134,611,o),
(206,611,cs),
(239,611,o),
(258,605,o),
(283,597,c),
(285,605,l),
(293,653,o),
(267,675,o),
(219,675,cs),
(188,675,o),
(159,667,o),
(131,652,c),
(123,696,l),
(154,711,o),
(193,722,o),
(232,722,cs),
(304,722,o),
(350,685,o),
(336,605,cs),
(305,431,l),
(254,431,l),
(261,473,l),
(233,444,o),
(196,425,o),
(156,425,cs),
(108,425,o),
(56,450,o),
(67,515,cs)
);
},
{
closed = 1;
nodes = (
(297,356,l),
(288,304,l),
(20,304,l),
(36,356,l)
);
},
{
closed = 1;
nodes = (
(276,558,l),
(258,567,o),
(235,573,o),
(204,573,cs),
(156,573,o),
(125,553,o),
(118,518,cs),
(112,483,o),
(138,467,o),
(174,467,cs),
(215,467,o),
(262,482,o),
(273,537,c)
);
}
);
width = 320;
}
);
unicode = 170;
},
{
color = 5;
glyphname = guillemotleft;
layers = (
{
layerId = "EE0A04B7-467B-4BD9-A2DD-E8921F00673F";
shapes = (
{
closed = 1;
nodes = (
(165,37,l),
(32,268,l),
(247,500,l),
(377,439,l),
(217,268,l),
(317,98,l)
);
},
{
closed = 1;
nodes = (
(440,37,l),
(307,268,l),
(522,500,l),
(652,439,l),
(492,268,l),
(592,98,l)
);
}
);
width = 657;
},
{
layerId = "179DD43A-A894-42A9-B4B6-A7F9368B08A7";
shapes = (
{
closed = 1;
nodes = (
(159,42,l),
(42,253,l),
(235,468,l),
(310,437,l),
(148,256,l),
(245,76,l)
);
},
{
closed = 1;
nodes = (
(379,42,l),
(262,253,l),
(455,468,l),
(530,437,l),
(368,256,l),
(465,76,l)
);
}
);
width = 555;
},
{
layerId = "7F84CDEE-FC45-41A5-88A7-11DFAD5E6C3A";
shapes = (
{
closed = 1;
nodes = (
(160,43,l),
(44,250,l),
(233,461,l),
(298,437,l),
(136,253,l),
(232,72,l)
);
},
{
closed = 1;
nodes = (
(369,43,l),
(253,250,l),
(442,461,l),
(507,437,l),
(345,253,l),
(441,72,l)
);
}
);
width = 534;
}
);
unicode = 171;
},
{
color = 5;
glyphname = logicalnot;
layers = (
{
layerId = "EE0A04B7-467B-4BD9-A2DD-E8921F00673F";
shapes = (
{
closed = 1;
nodes = (
(435,125,l),
(462,277,l),
(81,277,l),
(105,416,l),
(633,416,l),
(582,125,l)
);
}
);
width = 686;
},
{
layerId = "179DD43A-A894-42A9-B4B6-A7F9368B08A7";
shapes = (
{
closed = 1;
nodes = (
(455,128,l),
(490,330,l),
(58,330,l),
(73,412,l),
(587,412,l),
(537,128,l)
);
}
);
width = 607;
},
{
layerId = "7F84CDEE-FC45-41A5-88A7-11DFAD5E6C3A";
shapes = (
{
closed = 1;
nodes = (
(459,129,l),
(496,340,l),
(53,340,l),
(65,411,l),
(577,411,l),
(528,129,l)
);
}
);
width = 591;
}
);
unicode = 172;
},
{
color = 5;
glyphname = registered;
layers = (
{
layerId = "EE0A04B7-467B-4BD9-A2DD-E8921F00673F";
shapes = (
{
closed = 1;
nodes = (
(664,719,o),
(793,554,o),
(758,355,cs),
(723,158,o),
(534,-9,o),
(330,-9,cs),
(100,-9,o),
(0,156,o),
(34,355,cs),
(70,565,o),
(246,719,o),
(461,719,cs)
);
},
{
closed = 1;
nodes = (
(520,31,o),
(684,178,o),
(716,357,cs),
(747,534,o),
(636,679,o),
(454,679,cs),
(237,679,o),
(99,503,o),
(75,353,cs),
(49,191,o),
(113,31,o),
(337,31,cs)
);
},
{
closed = 1;
nodes = (
(451,558,ls),
(560,558,o),
(605,502,o),
(591,425,cs),
(581,369,o),
(543,328,o),
(491,307,c),
(560,173,l),
(437,173,l),
(379,290,l),
(332,290,l),
(312,173,l),
(205,173,l),
(272,558,l)
);
},
{
closed = 1;
nodes = (
(417,373,ls),
(453,373,o),
(478,393,o),
(483,420,cs),
(488,447,o),
(468,466,o),
(432,466,cs),
(363,466,l),
(347,373,l)
);
}
);
width = 762;
},
{
layerId = "179DD43A-A894-42A9-B4B6-A7F9368B08A7";
shapes = (
{
closed = 1;
nodes = (
(660,713,o),
(793,553,o),
(758,357,cs),
(723,161,o),
(530,-2,o),
(336,-2,cs),
(136,-2,o),
(6,159,o),
(37,357,cs),
(68,557,o),
(233,713,o),
(464,713,cs)
);
},
{
closed = 1;
nodes = (
(514,55,o),
(669,194,o),
(698,358,cs),
(727,522,o),
(617,656,o),
(454,656,cs),
(263,656,o),
(121,524,o),
(97,356,cs),
(72,187,o),
(145,55,o),
(346,55,cs)
);
},
{
closed = 1;
nodes = (
(448,568,ls),
(523,568,o),
(572,521,o),
(559,449,cs),
(548,385,o),
(493,341,o),
(435,328,c),
(544,148,l),
(454,148,l),
(353,318,l),
(334,318,l),
(304,148,l),
(227,148,l),
(301,568,l)
);
},
{
closed = 1;
nodes = (
(403,386,ls),
(444,386,o),
(480,408,o),
(486,443,cs),
(492,474,o),
(474,502,o),
(425,502,cs),
(367,502,l),
(346,386,l)
);
}
);
width = 762;
},
{
layerId = "7F84CDEE-FC45-41A5-88A7-11DFAD5E6C3A";
shapes = (
{
closed = 1;
nodes = (
(659,712,o),
(792,552,o),
(758,357,cs),
(724,162,o),
(529,-1,o),
(336,-1,cs),
(136,-1,o),
(2,161,o),
(37,357,cs),
(74,559,o),
(253,712,o),
(465,712,cs)
);
},
{
closed = 1;
nodes = (
(511,60,o),
(666,197,o),
(694,358,cs),
(723,519,o),
(612,651,o),
(453,651,cs),
(286,651,o),
(128,521,o),
(101,357,cs),
(73,190,o),
(149,60,o),
(347,60,cs)
);
},
{
closed = 1;
nodes = (
(448,570,ls),
(516,570,o),
(565,526,o),
(552,454,cs),
(541,390,o),
(482,343,o),
(424,332,c),
(541,143,l),
(457,143,l),
(347,324,l),
(334,324,l),
(302,143,l),
(231,143,l),
(307,570,l)
);
},
{
closed = 1;
nodes = (
(400,389,ls),
(443,389,o),
(480,411,o),
(487,448,cs),
(492,479,o),
(474,509,o),
(423,509,cs),
(367,509,l),
(346,389,l)
);
}
);
width = 762;
}
);
unicode = 174;
},
{
color = 5;
glyphname = degree;
layers = (
{
layerId = "EE0A04B7-467B-4BD9-A2DD-E8921F00673F";
shapes = (
{
closed = 1;
nodes = (
(135,393,o),
(67,474,o),
(84,571,cs),
(101,668,o),
(193,748,o),
(297,748,cs),
(393,748,o),
(463,674,o),
(448,571,cs),
(434,473,o),
(352,393,o),
(234,393,cs)
);
},
{
closed = 1;
nodes = (
(230,656,o),
(190,619,o),
(182,571,cs),
(173,524,o),
(203,485,o),
(251,485,cs),
(299,485,o),
(343,524,o),
(350,571,cs),
(361,641,o),
(312,656,o),
(281,656,cs)
);
}
);
width = 425;
},
{
layerId = "179DD43A-A894-42A9-B4B6-A7F9368B08A7";
shapes = (
{
closed = 1;
nodes = (
(135,425,o),
(76,492,o),
(90,575,cs),
(105,658,o),
(183,727,o),
(271,727,cs),
(356,727,o),
(412,661,o),
(398,576,cs),
(384,492,o),
(320,425,o),
(218,425,cs)
);
},
{
closed = 1;
nodes = (
(210,667,o),
(163,624,o),
(155,576,cs),
(146,525,o),
(177,485,o),
(229,485,cs),
(280,485,o),
(326,521,o),
(335,576,cs),
(347,652,o),
(293,667,o),
(261,667,cs)
);
}
);
width = 379;
},
{
layerId = "7F84CDEE-FC45-41A5-88A7-11DFAD5E6C3A";
shapes = (
{
closed = 1;
nodes = (
(133,431,o),
(76,496,o),
(91,576,cs),
(105,656,o),
(173,723,o),
(264,723,cs),
(347,723,o),
(400,659,o),
(387,577,cs),
(374,495,o),
(312,431,o),
(213,431,cs)
);
},
{
closed = 1;
nodes = (
(199,669,o),
(156,625,o),
(148,577,cs),
(139,526,o),
(171,485,o),
(223,485,cs),
(274,485,o),
(323,521,o),
(330,577,cs),
(339,653,o),
(286,669,o),
(255,669,cs)
);
}
);
width = 370;
}
);
unicode = 176;
},
{
color = 5;
glyphname = plusminus;
layers = (
{
layerId = "EE0A04B7-467B-4BD9-A2DD-E8921F00673F";
shapes = (
{
closed = 1;
nodes = (
(286,452,l),
(311,596,l),
(444,596,l),
(419,452,l),
(588,452,l),
(565,323,l),
(396,323,l),
(370,173,l),
(237,173,l),
(263,323,l),
(91,323,l),
(114,452,l)
);
},
{
closed = 1;
nodes = (
(531,129,l),
(508,0,l),
(34,0,l),
(57,129,l)
);
}
);
width = 636;
},
{
layerId = "179DD43A-A894-42A9-B4B6-A7F9368B08A7";
shapes = (
{
closed = 1;
nodes = (
(286,416,l),
(315,577,l),
(394,577,l),
(365,416,l),
(572,416,l),
(558,336,l),
(351,336,l),
(324,180,l),
(245,180,l),
(272,336,l),
(65,336,l),
(79,416,l)
);
},
{
closed = 1;
nodes = (
(518,108,l),
(504,28,l),
(11,28,l),
(25,108,l)
);
}
);
width = 599;
},
{
layerId = "7F84CDEE-FC45-41A5-88A7-11DFAD5E6C3A";
shapes = (
{
closed = 1;
nodes = (
(286,409,l),
(315,573,l),
(384,573,l),
(355,409,l),
(569,409,l),
(557,339,l),
(343,339,l),
(315,181,l),
(246,181,l),
(274,339,l),
(60,339,l),
(72,409,l)
);
},
{
closed = 1;
nodes = (
(515,104,l),
(503,34,l),
(6,34,l),
(18,104,l)
);
}
);
width = 591;
}
);
unicode = 177;
},
{
color = 5;
glyphname = twosuperior;
layers = (
{
layerId = "EE0A04B7-467B-4BD9-A2DD-E8921F00673F";
shapes = (
{
closed = 1;
nodes = (
(196,428,ls),
(233,457,o),
(312,516,o),
(321,569,cs),
(326,598,o),
(311,619,o),
(282,619,cs),
(243,619,o),
(228,584,o),
(223,555,c),
(94,555,l),
(121,659,o),
(185,717,o),
(302,717,cs),
(391,717,o),
(466,662,o),
(450,574,cs),
(437,499,o),
(378,447,o),
(306,404,cs),
(262,378,l),
(421,386,l),
(403,285,l),
(21,285,l)
);
}
);
width = 430;
},
{
layerId = "179DD43A-A894-42A9-B4B6-A7F9368B08A7";
shapes = (
{
closed = 1;
nodes = (
(165,429,ls),
(252,515,o),
(289,555,o),
(296,593,cs),
(302,629,o),
(281,656,o),
(245,656,cs),
(221,656,o),
(195,642,o),
(169,610,c),
(121,650,l),
(169,701,o),
(204,720,o),
(259,720,cs),
(341,720,o),
(387,668,o),
(374,594,cs),
(363,536,o),
(326,498,o),
(233,410,cs),
(169,348,l),
(333,349,l),
(296,285,l),
(17,285,l)
);
}
);
width = 349;
},
{
layerId = "7F84CDEE-FC45-41A5-88A7-11DFAD5E6C3A";
shapes = (
{
closed = 1;
nodes = (
(159,429,ls),
(256,527,o),
(284,562,o),
(290,598,cs),
(297,635,o),
(274,663,o),
(237,663,cs),
(217,663,o),
(187,653,o),
(157,621,c),
(126,669,l),
(178,708,o),
(209,720,o),
(250,720,cs),
(331,720,o),
(371,669,o),
(358,598,cs),
(349,543,o),
(315,507,o),
(218,411,cs),
(150,342,l),
(315,342,l),
(274,285,l),
(16,285,l)
);
}
);
width = 333;
}
);
unicode = 178;
},
{
color = 5;
glyphname = threesuperior;
layers = (
{
layerId = "EE0A04B7-467B-4BD9-A2DD-E8921F00673F";
shapes = (
{
closed = 1;
nodes = (
(166,424,l),
(161,393,o),
(178,369,o),
(213,369,cs),
(244,369,o),
(271,393,o),
(277,426,cs),
(283,457,o),
(264,475,o),
(235,475,cs),
(227,475,o),
(220,474,o),
(212,474,c),
(224,547,l),
(236,547,ls),
(261,547,o),
(285,564,o),
(290,592,cs),
(294,615,o),
(282,632,o),
(258,632,cs),
(227,632,o),
(212,609,o),
(209,589,c),
(84,589,l),
(108,679,o),
(193,721,o),
(277,721,cs),
(355,721,o),
(430,681,o),
(416,601,cs),
(410,566,o),
(387,532,o),
(351,515,c),
(391,496,o),
(409,457,o),
(401,414,cs),
(385,321,o),
(287,279,o),
(196,279,cs),
(97,279,o),
(26,328,o),
(38,424,c)
);
}
);
width = 398;
},
{
layerId = "179DD43A-A894-42A9-B4B6-A7F9368B08A7";
shapes = (
{
closed = 1;
nodes = (
(110,434,l),
(95,355,o),
(149,340,o),
(183,340,cs),
(235,340,o),
(276,374,o),
(284,419,cs),
(290,455,o),
(276,493,o),
(201,493,cs),
(197,493,o),
(182,492,o),
(178,492,c),
(188,551,l),
(205,551,ls),
(252,551,o),
(291,576,o),
(297,611,cs),
(301,638,o),
(283,661,o),
(247,661,cs),
(214,661,o),
(183,641,o),
(174,602,c),
(102,602,l),
(120,695,o),
(194,723,o),
(258,723,cs),
(334,723,o),
(384,685,o),
(372,617,cs),
(364,574,o),
(337,549,o),
(298,526,c),
(347,503,o),
(368,469,o),
(359,417,cs),
(344,333,o),
(266,278,o),
(174,278,cs),
(92,278,o),
(18,323,o),
(38,434,c)
);
}
);
width = 311;
},
{
layerId = "7F84CDEE-FC45-41A5-88A7-11DFAD5E6C3A";
shapes = (
{
closed = 1;
nodes = (
(101,419,l),
(87,348,o),
(134,334,o),
(165,334,cs),
(215,334,o),
(259,370,o),
(268,417,cs),
(274,455,o),
(258,496,o),
(176,496,cs),
(172,496,o),
(156,496,o),
(152,496,c),
(162,552,l),
(181,552,ls),
(232,552,o),
(273,580,o),
(279,615,cs),
(284,643,o),
(265,667,o),
(229,667,cs),
(199,667,o),
(171,649,o),
(163,614,c),
(98,614,l),
(114,698,o),
(181,723,o),
(236,723,cs),
(312,723,o),
(356,684,o),
(344,620,cs),
(337,577,o),
(308,552,o),
(269,528,c),
(321,505,o),
(341,471,o),
(332,418,cs),
(317,334,o),
(242,278,o),
(160,278,cs),
(85,278,o),
(18,319,o),
(36,419,c)
);
}
);
width = 330;
}
);
unicode = 179;
},
{
color = 5;
glyphname = acute;
layers = (
{
layerId = "EE0A04B7-467B-4BD9-A2DD-E8921F00673F";
shapes = (
{
closed = 1;
nodes = (
(369,744,l),
(200,616,l),
(66,616,l),
(202,801,l)
);
}
);
width = 269;
},
{
layerId = "179DD43A-A894-42A9-B4B6-A7F9368B08A7";
shapes = (
{
closed = 1;
nodes = (
(306,745,l),
(153,616,l),
(81,616,l),
(201,771,l)
);
}
);
width = 239;
},
{
layerId = "7F84CDEE-FC45-41A5-88A7-11DFAD5E6C3A";
shapes = (
{
closed = 1;
nodes = (
(294,745,l),
(144,616,l),
(85,616,l),
(202,765,l)
);
}
);
width = 233;
}
);
unicode = 180;
},
{
color = 5;
glyphname = uni03BC;
layers = (
{
layerId = "EE0A04B7-467B-4BD9-A2DD-E8921F00673F";
shapes = (
{
closed = 1;
nodes = (
(196,36,l),
(203,11,o),
(225,-12,o),
(258,-12,cs),
(293,-12,o),
(327,14,o),
(359,74,c),
(536,0,l),
(631,541,l),
(441,541,l),
(390,248,ls),
(379,189,o),
(340,157,o),
(295,157,cs),
(249,157,o),
(223,189,o),
(234,248,cs),
(285,541,l),
(95,541,l),
(-28,-160,l),
(162,-160,l)
);
}
);
width = 634;
},
{
layerId = "179DD43A-A894-42A9-B4B6-A7F9368B08A7";
shapes = (
{
closed = 1;
nodes = (
(132,59,l),
(147,12,o),
(183,-10,o),
(228,-10,cs),
(281,-10,o),
(332,21,o),
(366,64,c),
(456,0,l),
(543,493,l),
(443,493,l),
(393,211,ls),
(377,121,o),
(313,77,o),
(245,77,cs),
(192,77,o),
(142,116,o),
(159,211,cs),
(209,493,l),
(109,493,l),
(-10,-183,l),
(90,-183,l)
);
}
);
width = 576;
},
{
layerId = "7F84CDEE-FC45-41A5-88A7-11DFAD5E6C3A";
shapes = (
{
closed = 1;
nodes = (
(119,64,l),
(135,13,o),
(175,-10,o),
(222,-10,cs),
(278,-10,o),
(333,22,o),
(368,62,c),
(440,0,l),
(525,483,l),
(443,483,l),
(394,204,ls),
(377,107,o),
(308,61,o),
(235,61,cs),
(180,61,o),
(126,101,o),
(144,204,cs),
(193,483,l),
(111,483,l),
(-7,-188,l),
(75,-188,l)
);
}
);
width = 564;
}
);
unicode = 181;
},
{
color = 5;
glyphname = paragraph;
layers = (
{
layerId = "EE0A04B7-467B-4BD9-A2DD-E8921F00673F";
shapes = (
{
closed = 1;
nodes = (
(236,308,l),
(131,321,o),
(64,391,o),
(84,502,cs),
(106,627,o),
(200,706,o),
(349,706,cs),
(647,706,l),
(630,604,l),
(575,604,l),
(448,-113,l),
(336,-113,l),
(463,604,l),
(401,604,l),
(274,-113,l),
(162,-113,l)
);
}
);
width = 641;
},
{
layerId = "179DD43A-A894-42A9-B4B6-A7F9368B08A7";
shapes = (
{
closed = 1;
nodes = (
(225,352,l),
(137,368,o),
(61,411,o),
(81,527,cs),
(101,643,o),
(189,706,o),
(314,706,cs),
(588,706,l),
(574,622,l),
(532,622,l),
(403,-106,l),
(318,-106,l),
(447,622,l),
(358,622,l),
(229,-106,l),
(144,-106,l)
);
}
);
width = 634;
},
{
layerId = "7F84CDEE-FC45-41A5-88A7-11DFAD5E6C3A";
shapes = (
{
closed = 1;
nodes = (
(223,361,l),
(139,379,o),
(58,409,o),
(80,532,cs),
(100,645,o),
(186,706,o),
(307,706,cs),
(575,706,l),
(559,625,l),
(522,625,l),
(394,-104,l),
(315,-104,l),
(443,625,l),
(348,625,l),
(220,-104,l),
(141,-104,l)
);
}
);
width = 632;
}
);
unicode = 182;
},
{
color = 5;
glyphname = periodcentered;
layers = (
{
layerId = "EE0A04B7-467B-4BD9-A2DD-E8921F00673F";
shapes = (
{
closed = 1;
nodes = (
(277,488,o),
(320,451,o),
(307,379,cs),
(294,307,o),
(238,269,o),
(174,269,cs),
(110,269,o),
(68,307,o),
(82,379,cs),
(99,472,o),
(174,488,o),
(213,488,cs)
);
}
);
width = 349;
},
{
layerId = "179DD43A-A894-42A9-B4B6-A7F9368B08A7";
shapes = (
{
closed = 1;
nodes = (
(215,424,o),
(241,395,o),
(234,356,cs),
(227,317,o),
(194,287,o),
(154,287,cs),
(115,287,o),
(91,317,o),
(97,356,cs),
(106,413,o),
(154,424,o),
(178,424,cs)
);
}
);
width = 300;
},
{
layerId = "7F84CDEE-FC45-41A5-88A7-11DFAD5E6C3A";
shapes = (
{
closed = 1;
nodes = (
(202,411,o),
(225,384,o),
(219,352,cs),
(213,319,o),
(181,291,o),
(149,291,cs),
(116,291,o),
(94,319,o),
(100,352,cs),
(108,399,o),
(146,411,o),
(170,411,cs)
);
}
);
width = 290;
}
);
unicode = 183;
},
{
color = 5;
glyphname = cedilla;
layers = (
{
layerId = "EE0A04B7-467B-4BD9-A2DD-E8921F00673F";
shapes = (
{
closed = 1;
nodes = (
(155,-68,ls),
(199,-68,o),
(242,-95,o),
(233,-150,cs),
(220,-223,o),
(145,-246,o),
(90,-246,cs),
(55,-246,o),
(18,-237,o),
(-14,-220,c),
(22,-164,l),
(47,-176,o),
(72,-180,o),
(91,-180,cs),
(111,-180,o),
(146,-172,o),
(149,-151,cs),
(152,-135,o),
(139,-126,o),
(115,-126,cs),
(100,-126,o),
(85,-129,o),
(68,-136,c),
(42,-110,l),
(131,0,l),
(201,0,l),
(147,-68,l)
);
}
);
width = 372;
},
{
layerId = "179DD43A-A894-42A9-B4B6-A7F9368B08A7";
shapes = (
{
closed = 1;
nodes = (
(104,-70,ls),
(139,-70,o),
(183,-85,o),
(174,-138,cs),
(162,-202,o),
(89,-225,o),
(37,-225,cs),
(5,-225,o),
(-21,-217,o),
(-46,-204,c),
(-24,-161,l),
(-6,-169,o),
(11,-172,o),
(26,-172,cs),
(49,-172,o),
(90,-162,o),
(96,-129,cs),
(100,-109,o),
(86,-99,o),
(62,-99,cs),
(50,-99,o),
(40,-102,o),
(26,-107,c),
(10,-92,l),
(88,0,l),
(154,0,l),
(100,-70,l)
);
}
);
width = 290;
},
{
layerId = "7F84CDEE-FC45-41A5-88A7-11DFAD5E6C3A";
shapes = (
{
closed = 1;
nodes = (
(93,-70,ls),
(125,-70,o),
(170,-83,o),
(161,-135,cs),
(150,-198,o),
(77,-221,o),
(26,-221,cs),
(-6,-221,o),
(-31,-213,o),
(-53,-201,c),
(-35,-160,l),
(-17,-167,o),
(-3,-170,o),
(12,-170,cs),
(35,-170,o),
(79,-160,o),
(85,-125,cs),
(88,-105,o),
(73,-94,o),
(49,-94,cs),
(38,-94,o),
(30,-96,o),
(17,-101,c),
(2,-88,l),
(78,0,l),
(143,0,l),
(90,-70,l)
);
}
);
width = 273;
}
);
unicode = 184;
},
{
color = 5;
glyphname = onesuperior;
layers = (
{
layerId = "EE0A04B7-467B-4BD9-A2DD-E8921F00673F";
shapes = (
{
closed = 1;
nodes = (
(171,604,l),
(144,603,o),
(131,603,o),
(106,602,c),
(124,704,l),
(137,704,o),
(186,706,o),
(227,706,c),
(318,708,l),
(243,285,l),
(115,285,l)
);
}
);
width = 347;
},
{
layerId = "179DD43A-A894-42A9-B4B6-A7F9368B08A7";
shapes = (
{
closed = 1;
nodes = (
(147,617,l),
(126,597,o),
(101,580,o),
(80,569,c),
(93,643,l),
(129,667,o),
(158,689,o),
(182,713,c),
(242,713,l),
(166,286,l),
(88,286,l)
);
}
);
width = 240;
},
{
layerId = "7F84CDEE-FC45-41A5-88A7-11DFAD5E6C3A";
shapes = (
{
closed = 1;
nodes = (
(142,619,l),
(122,596,o),
(94,574,o),
(75,562,c),
(87,631,l),
(127,660,o),
(153,686,o),
(173,714,c),
(227,714,l),
(151,286,l),
(83,286,l)
);
}
);
width = 219;
}
);
unicode = 185;
},
{
color = 5;
glyphname = ordmasculine;
layers = (
{
layerId = "EE0A04B7-467B-4BD9-A2DD-E8921F00673F";
shapes = (
{
closed = 1;
nodes = (
(91,653,o),
(174,724,o),
(267,724,cs),
(360,724,o),
(415,655,o),
(401,570,cs),
(386,485,o),
(304,414,o),
(210,414,cs),
(123,414,o),
(58,465,o),
(76,569,cs)
);
},
{
closed = 1;
nodes = (
(347,366,l),
(333,289,l),
(45,289,l),
(59,366,l)
);
},
{
closed = 1;
nodes = (
(305,605,o),
(285,635,o),
(249,635,cs),
(213,635,o),
(185,606,o),
(179,570,cs),
(172,534,o),
(192,503,o),
(228,503,cs),
(257,503,o),
(290,523,o),
(298,569,cs)
);
}
);
width = 370;
},
{
layerId = "179DD43A-A894-42A9-B4B6-A7F9368B08A7";
shapes = (
{
closed = 1;
nodes = (
(89,655,o),
(165,723,o),
(252,723,cs),
(338,723,o),
(389,653,o),
(375,575,cs),
(361,491,o),
(293,422,o),
(197,422,cs),
(124,422,o),
(58,474,o),
(75,572,cs)
);
},
{
closed = 1;
nodes = (
(330,354,l),
(321,302,l),
(33,302,l),
(42,354,l)
);
},
{
closed = 1;
nodes = (
(323,628,o),
(293,667,o),
(241,667,cs),
(186,667,o),
(146,624,o),
(137,575,cs),
(128,519,o),
(157,478,o),
(209,478,cs),
(283,478,o),
(308,545,o),
(313,572,cs)
);
}
);
width = 342;
},
{
layerId = "7F84CDEE-FC45-41A5-88A7-11DFAD5E6C3A";
shapes = (
{
closed = 1;
nodes = (
(87,655,o),
(162,723,o),
(248,723,cs),
(333,723,o),
(383,653,o),
(370,576,cs),
(355,492,o),
(288,423,o),
(194,423,cs),
(119,423,o),
(56,474,o),
(73,572,cs)
);
},
{
closed = 1;
nodes = (
(327,356,l),
(318,304,l),
(30,304,l),
(39,356,l)
);
},
{
closed = 1;
nodes = (
(325,632,o),
(294,673,o),
(238,673,cs),
(181,673,o),
(137,627,o),
(128,576,cs),
(118,519,o),
(149,476,o),
(205,476,cs),
(278,476,o),
(310,544,o),
(315,572,cs)
);
}
);
width = 336;
}
);
unicode = 186;
},
{
color = 5;
glyphname = guillemotright;
layers = (
{
layerId = "EE0A04B7-467B-4BD9-A2DD-E8921F00673F";
shapes = (
{
closed = 1;
nodes = (
(66,439,l),
(218,500,l),
(351,268,l),
(138,37,l),
(6,98,l),
(166,268,l)
);
},
{
closed = 1;
nodes = (
(342,439,l),
(494,500,l),
(627,268,l),
(414,37,l),
(282,98,l),
(442,268,l)
);
}
);
width = 659;
},
{
layerId = "179DD43A-A894-42A9-B4B6-A7F9368B08A7";
shapes = (
{
closed = 1;
nodes = (
(79,437,l),
(166,468,l),
(283,253,l),
(90,42,l),
(16,76,l),
(177,256,l)
);
},
{
closed = 1;
nodes = (
(298,437,l),
(385,468,l),
(503,253,l),
(309,42,l),
(236,76,l),
(396,256,l)
);
}
);
width = 555;
},
{
layerId = "7F84CDEE-FC45-41A5-88A7-11DFAD5E6C3A";
shapes = (
{
closed = 1;
nodes = (
(81,437,l),
(154,461,l),
(269,250,l),
(81,43,l),
(19,72,l),
(179,253,l)
);
},
{
closed = 1;
nodes = (
(289,437,l),
(362,461,l),
(477,250,l),
(289,43,l),
(227,72,l),
(387,253,l)
);
}
);
width = 534;
}
);
unicode = 187;
},
{
color = 5;
glyphname = questiondown;
layers = (
{
layerId = "EE0A04B7-467B-4BD9-A2DD-E8921F00673F";
shapes = (
{
closed = 1;
nodes = (
(423,-94,l),
(359,-162,o),
(276,-190,o),
(192,-190,cs),
(69,-190,o),
(-31,-118,o),
(-8,13,cs),
(8,103,o),
(63,143,o),
(137,194,cs),
(175,220,o),
(187,232,o),
(194,270,cs),
(200,301,l),
(374,301,l),
(366,258,ls),
(351,177,o),
(299,135,o),
(251,102,cs),
(221,81,o),
(190,54,o),
(185,25,cs),
(178,-12,o),
(218,-28,o),
(256,-28,cs),
(319,-28,o),
(386,12,o),
(451,64,c)
);
},
{
closed = 1;
nodes = (
(226,339,o),
(184,371,o),
(195,435,cs),
(206,499,o),
(260,532,o),
(320,532,cs),
(380,532,o),
(422,499,o),
(410,435,cs),
(395,357,o),
(333,339,o),
(286,339,cs)
);
}
);
width = 524;
},
{
layerId = "179DD43A-A894-42A9-B4B6-A7F9368B08A7";
shapes = (
{
closed = 1;
nodes = (
(336,-120,l),
(293,-165,o),
(228,-193,o),
(156,-193,cs),
(46,-193,o),
(-19,-126,o),
(-1,-21,cs),
(13,58,o),
(64,112,o),
(124,157,cs),
(180,200,o),
(206,231,o),
(218,296,cs),
(224,328,l),
(322,328,l),
(311,269,ls),
(295,184,o),
(239,137,o),
(188,96,cs),
(146,63,o),
(109,32,o),
(101,-13,cs),
(94,-58,o),
(122,-102,o),
(186,-102,cs),
(242,-102,o),
(301,-71,o),
(354,-13,c)
);
},
{
closed = 1;
nodes = (
(242,402,o),
(217,431,o),
(223,467,cs),
(230,508,o),
(265,533,o),
(304,533,cs),
(340,533,o),
(365,508,o),
(359,467,cs),
(353,429,o),
(321,402,o),
(281,402,cs)
);
}
);
width = 452;
},
{
layerId = "7F84CDEE-FC45-41A5-88A7-11DFAD5E6C3A";
shapes = (
{
closed = 1;
nodes = (
(317,-125,l),
(279,-165,o),
(216,-193,o),
(148,-193,cs),
(40,-193,o),
(-18,-126,o),
(0,-27,cs),
(13,49,o),
(62,105,o),
(121,150,cs),
(180,196,o),
(211,231,o),
(222,302,cs),
(227,334,l),
(309,334,l),
(299,272,ls),
(285,186,o),
(226,137,o),
(173,95,cs),
(130,60,o),
(92,28,o),
(83,-20,cs),
(75,-68,o),
(101,-117,o),
(171,-117,cs),
(225,-117,o),
(285,-85,o),
(334,-28,c)
);
},
{
closed = 1;
nodes = (
(245,415,o),
(221,443,o),
(227,474,cs),
(233,510,o),
(266,533,o),
(299,533,cs),
(331,533,o),
(355,510,o),
(348,473,cs),
(341,441,o),
(315,415,o),
(278,415,cs)
);
}
);
width = 437;
}
);
unicode = 191;
},
{
color = 5;
glyphname = AE;
layers = (
{
layerId = "EE0A04B7-467B-4BD9-A2DD-E8921F00673F";
shapes = (
{
closed = 1;
nodes = (
(1086,700,l),
(1057,535,l),
(684,535,l),
(666,429,l),
(1004,429,l),
(977,276,l),
(639,276,l),
(619,165,l),
(997,165,l),
(968,0,l),
(398,0,l),
(420,125,l),
(230,125,l),
(149,0,l),
(-55,0,l),
(366,700,l)
);
},
{
closed = 1;
nodes = (
(501,582,l),
(314,276,l),
(447,276,l)
);
}
);
width = 1007;
},
{
layerId = "179DD43A-A894-42A9-B4B6-A7F9368B08A7";
shapes = (
{
closed = 1;
nodes = (
(1008,704,l),
(992,613,l),
(618,613,l),
(581,402,l),
(925,402,l),
(909,314,l),
(565,314,l),
(526,91,l),
(910,91,l),
(894,0,l),
(406,0,l),
(439,185,l),
(200,185,l),
(57,0,l),
(-53,0,l),
(484,704,l)
);
},
{
closed = 1;
nodes = (
(512,599,l),
(263,273,l),
(454,273,l)
);
}
);
width = 940;
},
{
layerId = "7F84CDEE-FC45-41A5-88A7-11DFAD5E6C3A";
shapes = (
{
closed = 1;
nodes = (
(992,705,l),
(979,629,l),
(605,629,l),
(564,397,l),
(909,397,l),
(896,321,l),
(551,321,l),
(507,76,l),
(892,76,l),
(879,0,l),
(408,0,l),
(443,197,l),
(194,197,l),
(39,0,l),
(-52,0,l),
(507,705,l)
);
},
{
closed = 1;
nodes = (
(514,602,l),
(253,272,l),
(456,272,l)
);
}
);
width = 926;
}
);
unicode = 198;
},
{
color = 5;
glyphname = Eth;
layers = (
{
layerId = "EE0A04B7-467B-4BD9-A2DD-E8921F00673F";
shapes = (
{
closed = 1;
nodes = (
(427,700,ls),
(678,700,o),
(797,557,o),
(761,354,cs),
(726,152,o),
(552,0,o),
(300,0,cs),
(34,0,l),
(157,700,l)
);
},
{
closed = 1;
nodes = (
(337,172,ls),
(453,172,o),
(542,238,o),
(562,351,cs),
(582,463,o),
(515,528,o),
(400,528,cs),
(321,528,l),
(258,172,l)
);
},
{
closed = 1;
nodes = (
(4,249,l),
(33,416,l),
(361,416,l),
(332,249,l)
);
}
);
width = 784;
},
{
layerId = "179DD43A-A894-42A9-B4B6-A7F9368B08A7";
shapes = (
{
closed = 1;
nodes = (
(413,704,ls),
(633,704,o),
(768,565,o),
(730,353,cs),
(694,147,o),
(519,0,o),
(288,0,cs),
(60,0,l),
(184,704,l)
);
},
{
closed = 1;
nodes = (
(301,92,ls),
(477,92,o),
(595,199,o),
(622,351,cs),
(644,479,o),
(584,611,o),
(433,611,cs),
(271,611,l),
(179,92,l)
);
},
{
closed = 1;
nodes = (
(22,307,l),
(38,399,l),
(318,399,l),
(302,307,l)
);
}
);
width = 765;
},
{
layerId = "7F84CDEE-FC45-41A5-88A7-11DFAD5E6C3A";
shapes = (
{
closed = 1;
nodes = (
(410,705,ls),
(624,705,o),
(762,566,o),
(724,353,cs),
(688,146,o),
(512,0,o),
(285,0,cs),
(65,0,l),
(189,705,l)
);
},
{
closed = 1;
nodes = (
(294,76,ls),
(482,76,o),
(606,191,o),
(634,351,cs),
(657,482,o),
(598,628,o),
(440,628,cs),
(261,628,l),
(163,76,l)
);
},
{
closed = 1;
nodes = (
(25,319,l),
(39,396,l),
(310,396,l),
(296,319,l)
);
}
);
width = 761;
}
);
unicode = 208;
},
{
color = 5;
glyphname = multiply;
layers = (
{
layerId = "EE0A04B7-467B-4BD9-A2DD-E8921F00673F";
shapes = (
{
closed = 1;
nodes = (
(132,505,l),
(257,610,l),
(384,455,l),
(566,610,l),
(652,505,l),
(471,350,l),
(597,195,l),
(474,90,l),
(347,245,l),
(165,90,l),
(77,195,l),
(261,350,l)
);
}
);
width = 700;
},
{
layerId = "179DD43A-A894-42A9-B4B6-A7F9368B08A7";
shapes = (
{
closed = 1;
nodes = (
(134,528,l),
(203,588,l),
(349,408,l),
(559,588,l),
(607,528,l),
(399,351,l),
(545,173,l),
(475,113,l),
(328,292,l),
(119,113,l),
(70,172,l),
(281,351,l)
);
}
);
width = 648;
},
{
layerId = "7F84CDEE-FC45-41A5-88A7-11DFAD5E6C3A";
shapes = (
{
closed = 1;
nodes = (
(134,533,l),
(192,583,l),
(342,399,l),
(557,583,l),
(598,533,l),
(384,351,l),
(534,168,l),
(475,117,l),
(325,301,l),
(110,117,l),
(68,167,l),
(285,351,l)
);
}
);
width = 638;
}
);
unicode = 215;
},
{
color = 5;
glyphname = Oslash;
layers = (
{
layerId = "EE0A04B7-467B-4BD9-A2DD-E8921F00673F";
shapes = (
{
closed = 1;
nodes = (
(155,47,l),
(67,115,o),
(23,222,o),
(46,350,cs),
(81,551,o),
(271,714,o),
(487,714,cs),
(522,714,o),
(553,710,o),
(584,702,c),
(647,798,l),
(753,728,l),
(700,645,l),
(784,577,o),
(821,473,o),
(800,352,cs),
(765,151,o),
(573,-14,o),
(358,-14,cs),
(327,-14,o),
(300,-10,o),
(274,-5,c),
(194,-128,l),
(88,-58,l)
);
},
{
closed = 1;
nodes = (
(476,538,l),
(469,539,o),
(462,539,o),
(455,539,cs),
(351,539,o),
(263,456,o),
(245,352,cs),
(237,304,o),
(243,257,o),
(269,221,c)
);
},
{
closed = 1;
nodes = (
(383,161,l),
(392,161,o),
(406,162,o),
(415,163,cs),
(510,173,o),
(585,262,o),
(601,350,cs),
(608,393,o),
(602,434,o),
(583,467,c)
);
}
);
width = 818;
},
{
layerId = "179DD43A-A894-42A9-B4B6-A7F9368B08A7";
shapes = (
{
closed = 1;
nodes = (
(117,101,l),
(64,166,o),
(45,252,o),
(63,351,cs),
(99,554,o),
(284,718,o),
(497,718,cs),
(581,718,o),
(645,691,o),
(696,646,c),
(785,730,l),
(828,685,l),
(743,603,l),
(796,538,o),
(816,451,o),
(798,354,cs),
(763,151,o),
(579,-14,o),
(367,-14,cs),
(282,-14,o),
(214,13,o),
(165,58,c),
(77,-26,l),
(34,19,l)
);
},
{
closed = 1;
nodes = (
(621,571,l),
(580,607,o),
(530,625,o),
(470,624,cs),
(321,622,o),
(194,496,o),
(169,350,cs),
(157,283,o),
(167,227,o),
(194,180,c)
);
},
{
closed = 1;
nodes = (
(240,134,l),
(284,97,o),
(330,79,o),
(394,81,cs),
(545,87,o),
(666,204,o),
(692,350,cs),
(704,417,o),
(694,475,o),
(666,523,c)
);
}
);
width = 831;
},
{
layerId = "7F84CDEE-FC45-41A5-88A7-11DFAD5E6C3A";
shapes = (
{
closed = 1;
nodes = (
(109,112,l),
(64,176,o),
(50,259,o),
(66,351,cs),
(102,555,o),
(286,719,o),
(499,719,cs),
(591,719,o),
(663,687,o),
(718,635,c),
(812,716,l),
(851,679,l),
(752,594,l),
(796,530,o),
(814,446,o),
(797,354,cs),
(762,151,o),
(579,-14,o),
(368,-14,cs),
(272,-14,o),
(198,18,o),
(144,71,c),
(54,-6,l),
(20,36,l)
);
},
{
closed = 1;
nodes = (
(650,577,l),
(608,619,o),
(549,642,o),
(484,642,cs),
(319,642,o),
(182,514,o),
(153,354,cs),
(141,282,o),
(151,221,o),
(178,172,c)
);
},
{
closed = 1;
nodes = (
(211,129,l),
(252,84,o),
(317,63,o),
(382,63,cs),
(545,63,o),
(682,191,o),
(710,350,cs),
(722,422,o),
(712,483,o),
(682,534,c)
);
}
);
width = 833;
}
);
unicode = 216;
},
{
color = 5;
glyphname = Thorn;
layers = (
{
layerId = "EE0A04B7-467B-4BD9-A2DD-E8921F00673F";
shapes = (
{
closed = 1;
nodes = (
(327,706,l),
(309,603,l),
(373,603,ls),
(529,603,o),
(627,531,o),
(597,363,cs),
(571,216,o),
(471,135,o),
(327,135,cs),
(227,135,l),
(203,0,l),
(11,0,l),
(135,706,l)
);
},
{
closed = 1;
nodes = (
(280,281,ls),
(343,281,o),
(392,293,o),
(405,368,cs),
(418,441,o),
(367,449,o),
(307,449,cs),
(282,449,l),
(253,281,l)
);
}
);
width = 603;
},
{
layerId = "179DD43A-A894-42A9-B4B6-A7F9368B08A7";
shapes = (
{
closed = 1;
nodes = (
(251,706,l),
(229,580,l),
(271,580,ls),
(408,580,o),
(520,533,o),
(492,374,cs),
(467,230,o),
(352,171,o),
(221,171,cs),
(157,171,l),
(127,0,l),
(29,0,l),
(153,706,l)
);
},
{
closed = 1;
nodes = (
(220,256,ls),
(304,256,o),
(378,281,o),
(394,376,cs),
(414,485,o),
(328,493,o),
(243,493,cs),
(214,493,l),
(172,256,l)
);
}
);
width = 501;
},
{
layerId = "7F84CDEE-FC45-41A5-88A7-11DFAD5E6C3A";
shapes = (
{
closed = 1;
nodes = (
(236,706,l),
(213,575,l),
(250,575,ls),
(383,575,o),
(498,533,o),
(470,376,cs),
(445,233,o),
(328,178,o),
(200,178,cs),
(143,178,l),
(112,0,l),
(33,0,l),
(157,706,l)
);
},
{
closed = 1;
nodes = (
(208,251,ls),
(295,251,o),
(374,277,o),
(392,378,cs),
(412,494,o),
(322,502,o),
(230,502,cs),
(201,502,l),
(156,251,l)
);
}
);
width = 481;
}
);
unicode = 222;
},
{
color = 5;
glyphname = germandbls;
layers = (
{
layerId = "EE0A04B7-467B-4BD9-A2DD-E8921F00673F";
shapes = (
{
closed = 1;
nodes = (
(-40,0,l),
(44,479,ls),
(72,635,o),
(185,739,o),
(362,739,cs),
(517,739,o),
(596,646,o),
(575,530,cs),
(561,446,o),
(506,393,o),
(441,364,c),
(505,343,o),
(568,290,o),
(551,194,cs),
(524,39,o),
(341,-16,o),
(215,-3,c),
(239,133,l),
(308,136,o),
(357,166,o),
(366,214,cs),
(374,262,o),
(335,292,o),
(268,297,c),
(286,398,l),
(334,419,o),
(378,455,o),
(387,505,cs),
(395,552,o),
(372,580,o),
(331,580,cs),
(286,580,o),
(245,546,o),
(234,483,cs),
(149,0,l)
);
}
);
width = 593;
},
{
layerId = "179DD43A-A894-42A9-B4B6-A7F9368B08A7";
shapes = (
{
closed = 1;
nodes = (
(-36,0,l),
(54,513,ls),
(77,643,o),
(167,751,o),
(327,751,cs),
(451,751,o),
(524,674,o),
(505,565,cs),
(490,480,o),
(429,424,o),
(354,393,c),
(439,377,o),
(504,308,o),
(486,207,cs),
(461,63,o),
(320,-6,o),
(163,-3,c),
(177,74,l),
(285,74,o),
(370,115,o),
(387,210,cs),
(403,303,o),
(339,334,o),
(235,350,c),
(247,418,l),
(325,447,o),
(390,478,o),
(404,554,cs),
(416,623,o),
(376,663,o),
(309,663,cs),
(218,663,o),
(166,590,o),
(152,513,cs),
(62,0,l)
);
}
);
width = 531;
},
{
layerId = "7F84CDEE-FC45-41A5-88A7-11DFAD5E6C3A";
shapes = (
{
closed = 1;
nodes = (
(-35,0,l),
(57,520,ls),
(79,644,o),
(165,753,o),
(321,753,cs),
(438,753,o),
(510,680,o),
(491,572,cs),
(476,487,o),
(415,430,o),
(337,399,c),
(428,383,o),
(492,313,o),
(474,209,cs),
(449,67,o),
(314,-3,o),
(153,-3,c),
(165,62,l),
(281,62,o),
(373,105,o),
(391,209,cs),
(409,310,o),
(340,344,o),
(227,360,c),
(238,422,l),
(324,451,o),
(392,483,o),
(406,564,cs),
(419,637,o),
(376,680,o),
(304,680,cs),
(206,680,o),
(151,599,o),
(137,519,cs),
(45,0,l)
);
}
);
width = 519;
}
);
unicode = 223;
},
{
color = 5;
glyphname = ae;
layers = (
{
layerId = "EE0A04B7-467B-4BD9-A2DD-E8921F00673F";
shapes = (
{
closed = 1;
nodes = (
(838,42,l),
(770,3,o),
(687,-17,o),
(613,-17,cs),
(537,-17,o),
(478,7,o),
(437,48,c),
(353,3,o),
(292,-12,o),
(206,-12,cs),
(81,-12,o),
(-13,49,o),
(6,157,cs),
(28,281,o),
(136,327,o),
(248,327,cs),
(300,327,o),
(347,317,o),
(376,306,c),
(378,315,ls),
(392,377,o),
(349,404,o),
(260,404,cs),
(207,404,o),
(155,396,o),
(91,373,c),
(114,507,l),
(190,536,o),
(260,549,o),
(336,549,cs),
(428,549,o),
(490,530,o),
(527,491,c),
(580,527,o),
(644,548,o),
(713,548,cs),
(889,548,o),
(955,401,o),
(926,240,c),
(555,148,l),
(576,128,o),
(604,121,o),
(640,121,cs),
(715,121,o),
(797,138,o),
(864,190,c)
);
},
{
closed = 1;
nodes = (
(361,221,l),
(345,229,o),
(319,235,o),
(292,235,cs),
(236,235,o),
(199,206,o),
(193,170,cs),
(186,133,o),
(215,107,o),
(254,107,cs),
(285,107,o),
(315,116,o),
(347,139,c)
);
},
{
closed = 1;
nodes = (
(754,319,l),
(752,375,o),
(724,407,o),
(677,407,cs),
(607,407,o),
(568,332,o),
(562,272,c)
);
}
);
width = 962;
},
{
layerId = "179DD43A-A894-42A9-B4B6-A7F9368B08A7";
shapes = (
{
closed = 1;
nodes = (
(789,44,l),
(740,11,o),
(678,-12,o),
(609,-12,cs),
(532,-13,o),
(462,13,o),
(423,75,c),
(355,17,o),
(267,-11,o),
(189,-11,cs),
(82,-11,o),
(-13,58,o),
(15,174,cs),
(43,293,o),
(151,332,o),
(253,332,cs),
(310,332,o),
(359,323,o),
(396,300,c),
(399,318,ls),
(412,391,o),
(360,419,o),
(275,419,cs),
(212,419,o),
(143,404,o),
(84,372,c),
(99,460,l),
(168,487,o),
(251,501,o),
(309,501,cs),
(398,501,o),
(455,468,o),
(483,417,c),
(532,470,o),
(598,504,o),
(677,504,cs),
(820,504,o),
(883,393,o),
(873,262,c),
(485,171,l),
(498,111,o),
(540,69,o),
(620,69,cs),
(694,69,o),
(744,89,o),
(806,142,c)
);
},
{
closed = 1;
nodes = (
(383,227,l),
(355,244,o),
(318,261,o),
(261,261,cs),
(197,261,o),
(123,232,o),
(111,163,cs),
(99,96,o),
(152,65,o),
(219,65,cs),
(279,65,o),
(327,88,o),
(365,125,c)
);
},
{
closed = 1;
nodes = (
(783,317,l),
(776,377,o),
(735,422,o),
(663,422,cs),
(569,422,o),
(505,339,o),
(489,251,c)
);
}
);
width = 906;
},
{
layerId = "7F84CDEE-FC45-41A5-88A7-11DFAD5E6C3A";
shapes = (
{
closed = 1;
nodes = (
(779,44,l),
(733,12,o),
(671,-11,o),
(599,-11,cs),
(522,-11,o),
(457,18,o),
(420,80,c),
(350,19,o),
(267,-11,o),
(182,-11,cs),
(76,-11,o),
(-5,60,o),
(14,171,cs),
(36,296,o),
(154,333,o),
(254,333,cs),
(311,333,o),
(361,324,o),
(400,299,c),
(403,318,ls),
(416,394,o),
(361,422,o),
(277,422,cs),
(212,422,o),
(144,407,o),
(82,372,c),
(95,450,l),
(144,470,o),
(217,492,o),
(293,492,cs),
(367,492,o),
(442,466,o),
(473,402,c),
(522,459,o),
(589,495,o),
(669,495,cs),
(807,495,o),
(868,390,o),
(862,266,c),
(471,175,l),
(482,107,o),
(528,59,o),
(616,59,cs),
(691,59,o),
(732,79,o),
(794,132,c)
);
},
{
closed = 1;
nodes = (
(387,228,l),
(358,247,o),
(318,266,o),
(254,266,cs),
(189,266,o),
(108,238,o),
(94,161,cs),
(82,90,o),
(140,57,o),
(212,57,cs),
(277,57,o),
(328,82,o),
(369,122,c)
);
},
{
closed = 1;
nodes = (
(788,316,l),
(781,377,o),
(736,425,o),
(660,425,cs),
(563,425,o),
(491,340,o),
(475,247,c)
);
}
);
width = 895;
}
);
unicode = 230;
},
{
color = 5;
glyphname = eth;
layers = (
{
layerId = "EE0A04B7-467B-4BD9-A2DD-E8921F00673F";
shapes = (
{
closed = 1;
nodes = (
(316,787,l),
(348,766,o),
(372,744,o),
(402,714,c),
(528,780,l),
(573,722,l),
(454,659,l),
(559,545,o),
(599,414,o),
(573,268,cs),
(537,61,o),
(374,-13,o),
(252,-13,cs),
(121,-13,o),
(-5,69,o),
(25,239,cs),
(52,394,o),
(185,483,o),
(310,483,cs),
(347,483,o),
(370,476,o),
(386,470,c),
(365,515,o),
(341,550,o),
(310,586,c),
(182,519,l),
(135,578,l),
(257,640,l),
(231,667,o),
(208,685,o),
(181,708,c)
);
},
{
closed = 1;
nodes = (
(200,186,o),
(228,140,o),
(280,140,cs),
(332,140,o),
(376,186,o),
(385,238,cs),
(394,289,o),
(369,339,o),
(315,339,cs),
(258,339,o),
(220,299,o),
(209,238,cs)
);
}
);
width = 603;
},
{
layerId = "179DD43A-A894-42A9-B4B6-A7F9368B08A7";
shapes = (
{
closed = 1;
nodes = (
(238,780,l),
(290,745,o),
(310,728,o),
(346,691,c),
(486,773,l),
(519,732,l),
(383,652,l),
(431,594,o),
(542,455,o),
(505,245,cs),
(473,64,o),
(330,-11,o),
(223,-11,cs),
(94,-11,o),
(3,88,o),
(26,223,cs),
(48,347,o),
(162,456,o),
(294,456,cs),
(369,456,o),
(404,419,o),
(420,403,c),
(403,484,o),
(361,549,o),
(307,609,c),
(171,529,l),
(138,571,l),
(271,649,l),
(255,666,o),
(230,691,o),
(174,731,c)
);
},
{
closed = 1;
nodes = (
(302,80,o),
(370,132,o),
(392,208,cs),
(412,278,o),
(382,352,o),
(304,360,cs),
(231,368,o),
(161,317,o),
(138,241,cs),
(115,169,o),
(136,98,o),
(227,88,cs)
);
}
);
width = 543;
},
{
layerId = "7F84CDEE-FC45-41A5-88A7-11DFAD5E6C3A";
shapes = (
{
closed = 1;
nodes = (
(221,778,l),
(278,738,o),
(298,724,o),
(334,686,c),
(478,772,l),
(508,734,l),
(369,650,l),
(407,604,o),
(531,464,o),
(491,240,cs),
(460,64,o),
(320,-11,o),
(217,-11,cs),
(88,-11,o),
(4,92,o),
(27,220,cs),
(47,337,o),
(157,450,o),
(291,450,cs),
(373,450,o),
(412,408,o),
(427,390,c),
(411,478,o),
(364,550,o),
(307,614,c),
(169,531,l),
(138,569,l),
(275,651,l),
(261,666,o),
(233,692,o),
(173,735,c)
);
},
{
closed = 1;
nodes = (
(323,58,o),
(398,133,o),
(414,221,cs),
(429,306,o),
(382,384,o),
(289,384,cs),
(197,384,o),
(121,313,o),
(103,221,cs),
(86,133,o),
(122,58,o),
(230,58,cs)
);
}
);
width = 531;
}
);
unicode = 240;
},
{
color = 5;
glyphname = divide;
layers = (
{
layerId = "EE0A04B7-467B-4BD9-A2DD-E8921F00673F";
shapes = (
{
closed = 1;
nodes = (
(87,302,l),
(105,402,l),
(628,402,l),
(610,302,l)
);
},
{
closed = 1;
nodes = (
(328,432,o),
(303,466,o),
(310,506,cs),
(316,545,o),
(353,577,o),
(397,577,cs),
(441,577,o),
(465,545,o),
(459,506,cs),
(453,462,o),
(413,432,o),
(372,432,cs)
);
},
{
closed = 1;
nodes = (
(275,128,o),
(250,162,o),
(257,202,cs),
(263,241,o),
(300,273,o),
(344,273,cs),
(388,273,o),
(412,241,o),
(406,202,cs),
(400,158,o),
(360,128,o),
(319,128,cs)
);
}
);
width = 685;
},
{
layerId = "179DD43A-A894-42A9-B4B6-A7F9368B08A7";
shapes = (
{
closed = 1;
nodes = (
(62,317,l),
(75,389,l),
(587,389,l),
(574,317,l)
);
},
{
closed = 1;
nodes = (
(305,453,o),
(285,481,o),
(291,513,cs),
(297,548,o),
(326,572,o),
(362,572,cs),
(399,572,o),
(420,548,o),
(413,513,cs),
(405,476,o),
(381,453,o),
(341,453,cs)
);
},
{
closed = 1;
nodes = (
(249,135,o),
(230,163,o),
(235,195,c),
(242,230,o),
(270,254,o),
(306,254,cs),
(343,254,o),
(364,230,o),
(357,195,cs),
(349,158,o),
(326,135,o),
(285,135,cs)
);
}
);
width = 618;
},
{
layerId = "7F84CDEE-FC45-41A5-88A7-11DFAD5E6C3A";
shapes = (
{
closed = 1;
nodes = (
(55,314,l),
(68,386,l),
(580,386,l),
(566,314,l)
);
},
{
closed = 1;
nodes = (
(299,457,o),
(282,484,o),
(287,515,cs),
(293,548,o),
(319,571,o),
(354,571,cs),
(389,571,o),
(408,548,o),
(403,515,cs),
(396,473,o),
(364,457,o),
(337,457,cs)
);
},
{
closed = 1;
nodes = (
(243,136,o),
(226,163,o),
(231,194,cs),
(237,227,o),
(263,250,o),
(298,250,cs),
(333,250,o),
(352,227,o),
(347,194,cs),
(340,152,o),
(308,136,o),
(281,136,cs)
);
}
);
width = 604;
}
);
unicode = 247;
},
{
color = 5;
glyphname = oslash;
layers = (
{
layerId = "EE0A04B7-467B-4BD9-A2DD-E8921F00673F";
shapes = (
{
closed = 1;
nodes = (
(288,148,l),
(300,143,o),
(315,140,o),
(331,140,cs),
(404,140,o),
(462,199,o),
(475,270,cs),
(478,289,o),
(478,306,o),
(474,322,c)
);
},
{
closed = 1;
nodes = (
(418,391,l),
(406,398,o),
(391,400,o),
(375,400,cs),
(302,400,o),
(243,341,o),
(231,270,cs),
(227,251,o),
(227,234,o),
(231,218,c)
);
},
{
closed = 1;
nodes = (
(89,87,l),
(55,136,o),
(41,198,o),
(54,270,cs),
(81,425,o),
(230,553,o),
(403,553,cs),
(459,553,o),
(509,539,o),
(548,515,c),
(642,608,l),
(708,540,l),
(616,454,l),
(650,405,o),
(664,342,o),
(652,270,cs),
(624,115,o),
(475,-13,o),
(302,-13,cs),
(245,-13,o),
(196,1,o),
(156,25,c),
(47,-70,l),
(-18,-3,l)
);
}
);
width = 687;
},
{
layerId = "179DD43A-A894-42A9-B4B6-A7F9368B08A7";
shapes = (
{
closed = 1;
nodes = (
(163,98,l),
(187,78,o),
(213,68,o),
(252,68,cs),
(353,68,o),
(431,144,o),
(449,242,cs),
(456,281,o),
(451,312,o),
(439,340,c)
);
},
{
closed = 1;
nodes = (
(406,384,l),
(385,404,o),
(356,415,o),
(316,415,cs),
(216,415,o),
(140,338,o),
(123,242,cs),
(115,201,o),
(116,171,o),
(132,142,c)
);
},
{
closed = 1;
nodes = (
(56,76,l),
(26,124,o),
(15,177,o),
(27,242,cs),
(52,384,o),
(178,495,o),
(329,495,cs),
(389,495,o),
(439,483,o),
(476,448,c),
(546,509,l),
(580,467,l),
(516,407,l),
(544,363,o),
(558,310,o),
(546,242,cs),
(520,98,o),
(391,-12,o),
(240,-12,cs),
(176,-12,o),
(132,4,o),
(95,37,c),
(9,-41,l),
(-27,3,l)
);
}
);
width = 573;
},
{
layerId = "7F84CDEE-FC45-41A5-88A7-11DFAD5E6C3A";
shapes = (
{
closed = 1;
nodes = (
(140,88,l),
(164,65,o),
(195,53,o),
(238,53,cs),
(344,53,o),
(427,133,o),
(446,236,cs),
(453,279,o),
(447,313,o),
(434,344,c)
);
},
{
closed = 1;
nodes = (
(405,382,l),
(382,405,o),
(351,418,o),
(306,418,cs),
(200,418,o),
(120,337,o),
(103,236,cs),
(95,191,o),
(96,158,o),
(113,127,c)
);
},
{
closed = 1;
nodes = (
(52,74,l),
(22,122,o),
(11,172,o),
(23,236,cs),
(47,376,o),
(169,483,o),
(316,483,cs),
(376,483,o),
(427,470,o),
(464,435,c),
(528,489,l),
(556,451,l),
(497,398,l),
(524,354,o),
(538,304,o),
(526,236,cs),
(501,95,o),
(376,-12,o),
(229,-12,cs),
(165,-12,o),
(121,4,o),
(84,39,c),
(3,-35,l),
(-29,4,l)
);
}
);
width = 550;
}
);
unicode = 248;
},
{
color = 5;
glyphname = thorn;
layers = (
{
layerId = "EE0A04B7-467B-4BD9-A2DD-E8921F00673F";
shapes = (
{
closed = 1;
nodes = (
(212,189,o),
(237,140,o),
(289,140,c),
(354,140,o),
(381,172,o),
(392,241,cs),
(401,289,o),
(377,339,o),
(324,339,cs),
(272,339,o),
(230,288,o),
(221,240,cs)
);
},
{
closed = 1;
nodes = (
(328,776,l),
(292,571,l),
(284,542,o),
(278,511,o),
(273,480,c),
(268,459,o),
(263,438,o),
(259,418,c),
(259,418,l),
(282,441,o),
(323,470,o),
(369,485,c),
(384,489,o),
(399,492,o),
(414,492,cs),
(550,492,o),
(601,366,o),
(579,243,cs),
(557,121,o),
(459,-13,o),
(323,-13,cs),
(311,-13,o),
(299,-11,o),
(287,-8,cs),
(249,1,o),
(213,24,o),
(200,55,c),
(196,55,l),
(187,-20,l),
(151,-225,l),
(-35,-225,l),
(142,776,l)
);
}
);
width = 612;
},
{
layerId = "179DD43A-A894-42A9-B4B6-A7F9368B08A7";
shapes = (
{
closed = 1;
nodes = (
(133,147,o),
(169,71,o),
(254,71,c),
(331,68,o),
(398,114,o),
(418,227,cs),
(432,308,o),
(391,376,o),
(306,376,cs),
(225,376,o),
(161,304,o),
(147,228,cs)
);
},
{
closed = 1;
nodes = (
(247,773,l),
(211,567,ls),
(206,539,o),
(201,511,o),
(196,483,cs),
(189,450,o),
(183,416,o),
(178,384,c),
(180,384,l),
(223,429,o),
(276,455,o),
(336,458,c),
(352,458,o),
(366,458,o),
(380,455,cs),
(484,436,o),
(532,333,o),
(512,223,cs),
(493,111,o),
(411,11,o),
(299,-8,cs),
(283,-11,o),
(269,-12,o),
(253,-11,c),
(196,-10,o),
(149,16,o),
(124,61,c),
(121,61,l),
(109,-13,l),
(68,-243,l),
(-25,-243,l),
(154,773,l)
);
}
);
width = 553;
},
{
layerId = "7F84CDEE-FC45-41A5-88A7-11DFAD5E6C3A";
shapes = (
{
closed = 1;
nodes = (
(117,139,o),
(153,57,o),
(246,57,c),
(325,57,o),
(404,110,o),
(422,224,cs),
(436,313,o),
(396,383,o),
(303,383,cs),
(216,383,o),
(146,308,o),
(132,225,cs)
);
},
{
closed = 1;
nodes = (
(231,772,l),
(195,566,ls),
(190,538,o),
(185,511,o),
(180,483,cs),
(174,448,o),
(168,412,o),
(161,377,c),
(163,377,l),
(209,426,o),
(268,452,o),
(329,452,cs),
(345,452,o),
(359,450,o),
(374,447,c),
(471,423,o),
(518,327,o),
(499,219,cs),
(479,110,o),
(401,14,o),
(294,-7,cs),
(278,-10,o),
(263,-12,o),
(246,-12,cs),
(186,-12,o),
(135,14,o),
(108,62,c),
(106,62,l),
(93,-12,l),
(51,-247,l),
(-24,-247,l),
(156,772,l)
);
}
);
width = 541;
}
);
unicode = 254;
},
{
color = 5;
glyphname = dcroat;
layers = (
{
layerId = "EE0A04B7-467B-4BD9-A2DD-E8921F00673F";
shapes = (
{
closed = 1;
nodes = (
(399,72,l),
(354,27,o),
(300,-12,o),
(220,-12,cs),
(92,-12,o),
(-1,95,o),
(30,270,cs),
(61,446,o),
(191,553,o),
(319,553,cs),
(400,553,o),
(441,516,o),
(470,475,c),
(515,730,l),
(705,730,l),
(574,-12,l)
);
},
{
closed = 1;
nodes = (
(366,147,o),
(424,197,o),
(437,272,cs),
(449,343,o),
(409,394,o),
(348,394,cs),
(289,394,o),
(230,344,o),
(217,270,cs),
(207,208,o),
(227,147,o),
(305,147,cs)
);
},
{
closed = 1;
nodes = (
(404,542,l),
(433,709,l),
(761,709,l),
(732,542,l)
);
}
);
width = 681;
},
{
layerId = "179DD43A-A894-42A9-B4B6-A7F9368B08A7";
shapes = (
{
closed = 1;
nodes = (
(410,76,l),
(358,25,o),
(304,-10,o),
(224,-10,cs),
(93,-10,o),
(3,89,o),
(30,246,cs),
(58,403,o),
(185,504,o),
(313,504,cs),
(394,504,o),
(447,467,o),
(477,411,c),
(534,732,l),
(634,732,l),
(505,-1,l)
);
},
{
closed = 1;
nodes = (
(347,75,o),
(434,147,o),
(452,247,cs),
(469,346,o),
(405,419,o),
(318,419,cs),
(233,419,o),
(148,350,o),
(132,247,cs),
(119,157,o),
(145,75,o),
(257,75,cs)
);
},
{
closed = 1;
nodes = (
(379,577,l),
(395,669,l),
(675,669,l),
(659,577,l)
);
}
);
width = 599;
},
{
layerId = "7F84CDEE-FC45-41A5-88A7-11DFAD5E6C3A";
shapes = (
{
closed = 1;
nodes = (
(413,77,l),
(359,24,o),
(304,-10,o),
(225,-10,cs),
(94,-10,o),
(4,88,o),
(30,241,cs),
(57,394,o),
(183,494,o),
(311,494,cs),
(392,494,o),
(449,458,o),
(479,398,c),
(538,732,l),
(620,732,l),
(491,1,l)
);
},
{
closed = 1;
nodes = (
(343,60,o),
(436,137,o),
(455,242,cs),
(473,347,o),
(404,424,o),
(312,424,cs),
(220,424,o),
(131,351,o),
(114,242,cs),
(100,146,o),
(128,60,o),
(248,60,cs)
);
},
{
closed = 1;
nodes = (
(373,584,l),
(387,661,l),
(658,661,l),
(644,584,l)
);
}
);
width = 583;
}
);
unicode = 273;
},
{
color = 5;
glyphname = kgreenlandic;
layers = (
{
layerId = "EE0A04B7-467B-4BD9-A2DD-E8921F00673F";
shapes = (
{
closed = 1;
nodes = (
(436,541,l),
(651,541,l),
(425,324,l),
(561,0,l),
(352,0,l),
(244,283,l),
(194,0,l),
(4,0,l),
(99,541,l),
(289,541,l),
(257,360,l)
);
}
);
width = 609;
},
{
layerId = "179DD43A-A894-42A9-B4B6-A7F9368B08A7";
shapes = (
{
closed = 1;
nodes = (
(382,492,l),
(506,492,l),
(252,266,l),
(427,0,l),
(308,0,l),
(157,227,l),
(117,0,l),
(17,0,l),
(104,492,l),
(204,492,l),
(169,294,l)
);
}
);
width = 480;
},
{
layerId = "7F84CDEE-FC45-41A5-88A7-11DFAD5E6C3A";
shapes = (
{
closed = 1;
nodes = (
(371,482,l),
(476,482,l),
(217,254,l),
(400,0,l),
(299,0,l),
(140,216,l),
(102,0,l),
(20,0,l),
(105,482,l),
(187,482,l),
(152,281,l)
);
}
);
width = 454;
}
);
unicode = 312;
},
{
color = 5;
glyphname = Eng;
layers = (
{
layerId = "EE0A04B7-467B-4BD9-A2DD-E8921F00673F";
shapes = (
{
closed = 1;
nodes = (
(315,700,l),
(538,330,l),
(603,700,l),
(795,700,l),
(686,81,l),
(676,24,ls),
(652,-113,o),
(573,-163,o),
(450,-163,cs),
(419,-163,o),
(396,-160,o),
(373,-156,c),
(397,-23,l),
(411,-28,o),
(422,-31,o),
(434,-31,cs),
(458,-31,o),
(479,-16,o),
(486,25,c),
(487,26,l),
(271,384,l),
(203,0,l),
(11,0,l),
(134,700,l)
);
}
);
width = 778;
},
{
layerId = "179DD43A-A894-42A9-B4B6-A7F9368B08A7";
shapes = (
{
closed = 1;
nodes = (
(253,700,l),
(556,160,l),
(652,704,l),
(752,704,l),
(630,14,l),
(623,-27,ls),
(607,-121,o),
(572,-189,o),
(468,-189,cs),
(445,-189,o),
(429,-186,o),
(414,-182,c),
(428,-103,l),
(439,-107,o),
(450,-109,o),
(461,-109,cs),
(501,-109,o),
(515,-81,o),
(521,-48,cs),
(529,1,l),
(226,545,l),
(130,0,l),
(29,0,l),
(152,700,l)
);
}
);
width = 751;
},
{
layerId = "7F84CDEE-FC45-41A5-88A7-11DFAD5E6C3A";
shapes = (
{
closed = 1;
nodes = (
(241,700,l),
(559,126,l),
(661,705,l),
(743,705,l),
(619,0,l),
(612,-37,ls),
(597,-122,o),
(572,-194,o),
(471,-194,cs),
(451,-194,o),
(436,-191,o),
(422,-187,c),
(434,-119,l),
(444,-123,o),
(455,-125,o),
(466,-125,cs),
(509,-125,o),
(521,-94,o),
(527,-62,cs),
(537,-4,l),
(217,577,l),
(115,0,l),
(33,0,l),
(156,700,l)
);
}
);
width = 746;
}
);
unicode = 330;
},
{
color = 5;
glyphname = eng;
layers = (
{
layerId = "EE0A04B7-467B-4BD9-A2DD-E8921F00673F";
shapes = (
{
closed = 1;
nodes = (
(276,465,l),
(319,510,o),
(377,553,o),
(454,553,cs),
(559,553,o),
(624,477,o),
(602,354,cs),
(544,24,ls),
(520,-113,o),
(441,-163,o),
(318,-163,cs),
(287,-163,o),
(264,-160,o),
(241,-156,c),
(265,-23,l),
(279,-28,o),
(290,-31,o),
(302,-31,cs),
(326,-31,o),
(347,-15,o),
(356,32,cs),
(402,293,ls),
(412,352,o),
(385,384,o),
(342,384,cs),
(299,384,o),
(256,352,o),
(246,293,cs),
(194,0,l),
(4,0,l),
(99,541,l)
);
}
);
width = 635;
},
{
layerId = "179DD43A-A894-42A9-B4B6-A7F9368B08A7";
shapes = (
{
closed = 1;
nodes = (
(194,428,l),
(238,472,o),
(296,503,o),
(365,503,cs),
(472,503,o),
(529,436,o),
(507,312,cs),
(447,-27,ls),
(431,-121,o),
(395,-189,o),
(291,-189,cs),
(268,-189,o),
(252,-186,o),
(237,-182,c),
(251,-103,l),
(262,-107,o),
(273,-109,o),
(284,-109,cs),
(324,-109,o),
(338,-81,o),
(344,-46,cs),
(402,282,ls),
(419,382,o),
(368,415,o),
(314,415,cs),
(261,415,o),
(185,383,o),
(167,282,cs),
(117,0,l),
(17,0,l),
(104,492,l)
);
}
);
width = 558;
},
{
layerId = "7F84CDEE-FC45-41A5-88A7-11DFAD5E6C3A";
shapes = (
{
closed = 1;
nodes = (
(178,421,l),
(222,464,o),
(278,493,o),
(347,493,cs),
(453,493,o),
(509,428,o),
(487,303,cs),
(427,-37,ls),
(412,-122,o),
(385,-194,o),
(285,-194,cs),
(265,-194,o),
(250,-191,o),
(236,-187,c),
(248,-119,l),
(258,-123,o),
(269,-125,o),
(280,-125,cs),
(323,-125,o),
(335,-94,o),
(341,-62,cs),
(401,280,ls),
(420,388,o),
(365,421,o),
(308,421,cs),
(253,421,o),
(170,390,o),
(151,280,cs),
(102,0,l),
(20,0,l),
(105,482,l)
);
}
);
width = 542;
}
);
unicode = 331;
},
{
color = 5;
glyphname = OE;
layers = (
{
layerId = "EE0A04B7-467B-4BD9-A2DD-E8921F00673F";
shapes = (
{
closed = 1;
nodes = (
(495,189,l),
(465,170,o),
(429,161,o),
(394,161,cs),
(289,161,o),
(232,251,o),
(250,352,cs),
(268,453,o),
(354,539,o),
(460,539,cs),
(493,539,o),
(525,530,o),
(552,510,c)
);
},
{
closed = 1;
nodes = (
(1039,276,l),
(1066,429,l),
(730,429,l),
(748,535,l),
(1119,535,l),
(1148,700,l),
(596,700,l),
(563,709,o),
(531,714,o),
(492,714,cs),
(276,714,o),
(86,551,o),
(51,350,cs),
(15,149,o),
(147,-14,o),
(363,-14,cs),
(397,-14,o),
(438,-10,o),
(471,0,c),
(1030,0,l),
(1059,165,l),
(683,165,l),
(703,276,l)
);
}
);
width = 1127;
},
{
layerId = "179DD43A-A894-42A9-B4B6-A7F9368B08A7";
shapes = (
{
closed = 1;
nodes = (
(481,97,l),
(453,86,o),
(418,80,o),
(387,80,cs),
(230,80,o),
(144,212,o),
(169,354,cs),
(196,508,o),
(327,625,o),
(484,625,cs),
(516,625,o),
(545,618,o),
(571,607,c)
);
},
{
closed = 1;
nodes = (
(966,314,l),
(982,402,l),
(639,402,l),
(676,613,l),
(1049,613,l),
(1065,704,l),
(599,704,l),
(569,713,o),
(535,718,o),
(498,718,cs),
(285,718,o),
(100,554,o),
(64,351,cs),
(27,141,o),
(166,-13,o),
(377,-13,cs),
(412,-13,o),
(449,-8,o),
(483,0,c),
(951,0,l),
(967,91,l),
(584,91,l),
(623,314,l)
);
}
);
width = 1062;
},
{
layerId = "7F84CDEE-FC45-41A5-88A7-11DFAD5E6C3A";
shapes = (
{
closed = 1;
nodes = (
(478,78,l),
(451,69,o),
(411,63,o),
(382,63,cs),
(214,63,o),
(125,192,o),
(153,354,cs),
(182,514,o),
(319,642,o),
(484,642,cs),
(517,642,o),
(547,637,o),
(574,626,c)
);
},
{
closed = 1;
nodes = (
(952,321,l),
(965,397,l),
(620,397,l),
(661,629,l),
(1035,629,l),
(1048,705,l),
(599,705,l),
(569,714,o),
(535,719,o),
(499,719,cs),
(286,719,o),
(102,555,o),
(66,351,cs),
(29,143,o),
(162,-14,o),
(368,-14,cs),
(403,-14,o),
(440,-10,o),
(473,0,c),
(935,0,l),
(948,76,l),
(563,76,l),
(607,321,l)
);
}
);
width = 1049;
}
);
unicode = 338;
},
{
color = 5;
glyphname = oe;
layers = (
{
layerId = "EE0A04B7-467B-4BD9-A2DD-E8921F00673F";
shapes = (
{
closed = 1;
nodes = (
(906,42,l),
(829,-3,o),
(740,-17,o),
(681,-17,cs),
(597,-17,o),
(535,11,o),
(496,62,c),
(435,15,o),
(359,-13,o),
(278,-13,cs),
(105,-13,o),
(2,115,o),
(30,270,cs),
(57,425,o),
(207,553,o),
(380,553,cs),
(464,553,o),
(531,523,o),
(575,475,c),
(631,522,o),
(701,548,o),
(781,548,cs),
(957,548,o),
(1023,401,o),
(994,240,c),
(623,148,l),
(644,128,o),
(672,121,o),
(708,121,cs),
(787,121,o),
(868,140,o),
(933,190,c)
);
},
{
closed = 1;
nodes = (
(280,392,o),
(226,337,o),
(215,272,cs),
(203,205,o),
(241,148,o),
(308,148,cs),
(377,148,o),
(432,205,o),
(443,270,cs),
(454,334,o),
(427,392,o),
(349,392,cs)
);
},
{
closed = 1;
nodes = (
(822,319,l),
(820,375,o),
(792,407,o),
(745,407,cs),
(675,407,o),
(636,332,o),
(630,272,c)
);
}
);
width = 1030;
},
{
layerId = "179DD43A-A894-42A9-B4B6-A7F9368B08A7";
shapes = (
{
closed = 1;
nodes = (
(878,44,l),
(828,10,o),
(760,-12,o),
(691,-12,cs),
(590,-12,o),
(523,35,o),
(498,115,c),
(440,39,o),
(349,-11,o),
(248,-11,cs),
(96,-11,o),
(5,102,o),
(30,245,cs),
(56,389,o),
(187,504,o),
(340,504,cs),
(441,504,o),
(514,455,o),
(546,379,c),
(594,455,o),
(670,504,o),
(766,504,cs),
(909,504,o),
(972,393,o),
(962,262,c),
(584,171,l),
(597,111,o),
(630,69,o),
(709,69,cs),
(785,69,o),
(836,91,o),
(895,142,c)
);
},
{
closed = 1;
nodes = (
(225,420,o),
(147,343,o),
(131,247,cs),
(113,149,o),
(171,74,o),
(264,74,cs),
(360,74,o),
(442,154,o),
(460,246,cs),
(478,341,o),
(439,420,o),
(324,420,cs)
);
},
{
closed = 1;
nodes = (
(857,317,l),
(851,377,o),
(809,422,o),
(737,422,cs),
(644,422,o),
(600,342,o),
(585,255,c)
);
}
);
width = 997;
},
{
layerId = "7F84CDEE-FC45-41A5-88A7-11DFAD5E6C3A";
shapes = (
{
closed = 1;
nodes = (
(872,44,l),
(826,12,o),
(763,-11,o),
(692,-11,cs),
(588,-11,o),
(519,41,o),
(498,126,c),
(441,45,o),
(347,-10,o),
(242,-10,cs),
(94,-10,o),
(5,99,o),
(30,240,cs),
(55,382,o),
(183,494,o),
(332,494,cs),
(436,494,o),
(511,440,o),
(539,360,c),
(587,441,o),
(662,495,o),
(762,495,cs),
(900,495,o),
(961,390,o),
(955,266,c),
(576,176,l),
(587,108,o),
(621,59,o),
(709,59,cs),
(786,59,o),
(827,81,o),
(887,132,c)
);
},
{
closed = 1;
nodes = (
(215,425,o),
(131,343,o),
(114,242,cs),
(95,138,o),
(156,59,o),
(255,59,cs),
(357,59,o),
(445,142,o),
(463,241,cs),
(482,342,o),
(442,425,o),
(319,425,cs)
);
},
{
closed = 1;
nodes = (
(864,316,l),
(857,377,o),
(812,425,o),
(736,425,cs),
(639,425,o),
(592,344,o),
(575,251,c)
);
}
);
width = 990;
}
);
unicode = 339;
},
{
color = 5;
glyphname = florin;
layers = (
{
layerId = "EE0A04B7-467B-4BD9-A2DD-E8921F00673F";
shapes = (
{
closed = 1;
nodes = (
(28,329,l),
(83,473,l),
(139,473,l),
(180,571,ls),
(226,687,o),
(299,743,o),
(428,743,cs),
(467,743,o),
(505,738,o),
(532,731,c),
(483,596,l),
(469,599,o),
(457,599,o),
(446,599,cs),
(398,599,o),
(374,580,o),
(357,536,c),
(330,473,l),
(444,473,l),
(389,329,l),
(279,329,l),
(101,-163,l),
(-89,-163,l),
(89,329,l)
);
}
);
width = 463;
},
{
layerId = "179DD43A-A894-42A9-B4B6-A7F9368B08A7";
shapes = (
{
closed = 1;
nodes = (
(17,364,l),
(47,445,l),
(127,445,l),
(163,538,ls),
(216,677,o),
(303,718,o),
(383,718,cs),
(410,718,o),
(432,715,o),
(452,708,c),
(421,625,l),
(410,632,o),
(395,634,o),
(380,634,cs),
(327,634,o),
(286,606,o),
(250,506,cs),
(227,445,l),
(330,445,l),
(301,364,l),
(198,364,l),
(9,-113,l),
(-88,-113,l),
(97,364,l)
);
}
);
width = 396;
},
{
layerId = "7F84CDEE-FC45-41A5-88A7-11DFAD5E6C3A";
shapes = (
{
closed = 1;
nodes = (
(15,371,l),
(40,439,l),
(124,439,l),
(160,531,ls),
(214,675,o),
(305,713,o),
(374,713,cs),
(397,713,o),
(417,710,o),
(436,703,c),
(409,631,l),
(398,638,o),
(382,641,o),
(366,641,cs),
(310,641,o),
(270,611,o),
(229,500,cs),
(206,439,l),
(307,439,l),
(283,371,l),
(181,371,l),
(-9,-103,l),
(-87,-103,l),
(98,371,l)
);
}
);
width = 382;
}
);
unicode = 402;
},
{
color = 5;
glyphname = Aringacute;
layers = (
{
layerId = "EE0A04B7-467B-4BD9-A2DD-E8921F00673F";
shapes = (
{
closed = 1;
nodes = (
(474,700,o),
(487,709,o),
(490,723,cs),
(493,737,o),
(483,747,o),
(471,747,cs),
(456,747,o),
(444,737,o),
(442,724,cs),
(440,709,o),
(449,700,o),
(461,700,cs)
);
},
{
closed = 1;
nodes = (
(356,646,l),
(341,667,o),
(335,692,o),
(340,723,cs),
(352,790,o),
(420,843,o),
(485,843,cs),
(553,843,o),
(599,790,o),
(588,724,cs),
(582,693,o),
(566,667,o),
(545,646,c),
(728,0,l),
(520,0,l),
(497,95,l),
(206,95,l),
(149,0,l),
(-55,0,l)
);
},
{
closed = 1;
nodes = (
(411,438,l),
(296,246,l),
(459,246,l)
);
},
{
closed = 1;
nodes = (
(727,999,l),
(558,871,l),
(424,871,l),
(560,1056,l)
);
}
);
width = 767;
},
{
layerId = "179DD43A-A894-42A9-B4B6-A7F9368B08A7";
shapes = (
{
closed = 1;
nodes = (
(441,663,o),
(466,685,o),
(471,713,cs),
(476,741,o),
(459,765,o),
(428,765,cs),
(397,765,o),
(372,742,o),
(367,714,cs),
(359,673,o),
(390,663,o),
(410,663,cs)
);
},
{
closed = 1;
nodes = (
(348,627,l),
(320,646,o),
(306,676,o),
(313,713,cs),
(323,772,o),
(380,817,o),
(435,817,cs),
(494,817,o),
(534,771,o),
(524,712,cs),
(517,673,o),
(489,641,o),
(454,625,c),
(634,0,l),
(522,0,l),
(481,155,l),
(152,155,l),
(57,0,l),
(-53,0,l)
);
},
{
closed = 1;
nodes = (
(385,536,l),
(206,243,l),
(460,243,l)
);
},
{
closed = 1;
nodes = (
(628,962,l),
(474,833,l),
(402,833,l),
(522,988,l)
);
}
);
width = 675;
},
{
layerId = "7F84CDEE-FC45-41A5-88A7-11DFAD5E6C3A";
shapes = (
{
closed = 1;
nodes = (
(435,656,o),
(461,680,o),
(466,711,cs),
(472,742,o),
(452,768,o),
(419,768,cs),
(386,768,o),
(358,743,o),
(352,712,cs),
(343,668,o),
(378,656,o),
(400,656,cs)
);
},
{
closed = 1;
nodes = (
(346,623,l),
(317,640,o),
(300,672,o),
(307,711,cs),
(317,767,o),
(372,812,o),
(425,812,cs),
(482,812,o),
(520,766,o),
(510,709,cs),
(503,669,o),
(474,636,o),
(436,621,c),
(615,0,l),
(522,0,l),
(478,167,l),
(141,167,l),
(39,0,l),
(-52,0,l)
);
},
{
closed = 1;
nodes = (
(379,555,l),
(188,242,l),
(460,242,l)
);
},
{
closed = 1;
nodes = (
(615,954,l),
(464,825,l),
(405,825,l),
(523,974,l)
);
}
);
width = 657;
}
);
unicode = 506;
},
{
color = 5;
glyphname = circumflex;
layers = (
{
layerId = "EE0A04B7-467B-4BD9-A2DD-E8921F00673F";
shapes = (
{
closed = 1;
nodes = (
(303,613,l),
(255,674,l),
(185,613,l),
(54,613,l),
(227,799,l),
(326,799,l),
(433,613,l)
);
}
);
width = 365;
},
{
layerId = "179DD43A-A894-42A9-B4B6-A7F9368B08A7";
shapes = (
{
closed = 1;
nodes = (
(313,623,l),
(252,702,l),
(165,623,l),
(88,623,l),
(226,772,l),
(304,772,l),
(389,623,l)
);
}
);
width = 352;
},
{
layerId = "7F84CDEE-FC45-41A5-88A7-11DFAD5E6C3A";
shapes = (
{
closed = 1;
nodes = (
(314,625,l),
(251,707,l),
(160,625,l),
(94,625,l),
(226,766,l),
(299,766,l),
(380,625,l)
);
}
);
width = 349;
}
);
unicode = 710;
},
{
color = 5;
glyphname = caron;
layers = (
{
layerId = "EE0A04B7-467B-4BD9-A2DD-E8921F00673F";
shapes = (
{
closed = 1;
nodes = (
(294,590,l),
(194,590,l),
(81,777,l),
(221,777,l),
(268,714,l),
(335,777,l),
(472,777,l)
);
}
);
width = 373;
},
{
layerId = "179DD43A-A894-42A9-B4B6-A7F9368B08A7";
shapes = (
{
closed = 1;
nodes = (
(274,603,l),
(195,603,l),
(105,754,l),
(188,754,l),
(247,672,l),
(336,754,l),
(418,754,l)
);
}
);
width = 351;
},
{
layerId = "7F84CDEE-FC45-41A5-88A7-11DFAD5E6C3A";
shapes = (
{
closed = 1;
nodes = (
(271,606,l),
(196,606,l),
(109,749,l),
(181,749,l),
(243,663,l),
(336,749,l),
(407,749,l)
);
}
);
width = 347;
}
);
unicode = 711;
},
{
color = 5;
glyphname = macron;
layers = (
{
layerId = "EE0A04B7-467B-4BD9-A2DD-E8921F00673F";
shapes = (
{
closed = 1;
nodes = (
(86,579,l),
(107,696,l),
(478,696,l),
(457,579,l)
);
}
);
width = 432;
},
{
layerId = "179DD43A-A894-42A9-B4B6-A7F9368B08A7";
shapes = (
{
closed = 1;
nodes = (
(105,606,l),
(117,673,l),
(430,673,l),
(418,606,l)
);
}
);
width = 401;
},
{
layerId = "7F84CDEE-FC45-41A5-88A7-11DFAD5E6C3A";
shapes = (
{
closed = 1;
nodes = (
(109,611,l),
(119,668,l),
(420,668,l),
(410,611,l)
);
}
);
width = 395;
}
);
unicode = 713;
},
{
color = 5;
glyphname = breve;
layers = (
{
layerId = "EE0A04B7-467B-4BD9-A2DD-E8921F00673F";
shapes = (
{
closed = 1;
nodes = (
(423,757,l),
(396,649,o),
(313,574,o),
(221,574,cs),
(130,574,o),
(73,649,o),
(84,757,c),
(188,757,l),
(193,716,o),
(215,691,o),
(244,691,cs),
(273,691,o),
(300,716,o),
(319,757,c)
);
}
);
width = 335;
},
{
layerId = "179DD43A-A894-42A9-B4B6-A7F9368B08A7";
shapes = (
{
closed = 1;
nodes = (
(411,744,l),
(388,656,o),
(315,597,o),
(231,597,cs),
(147,597,o),
(101,656,o),
(105,744,c),
(168,744,l),
(172,697,o),
(200,672,o),
(247,672,cs),
(292,672,o),
(329,697,o),
(349,744,c)
);
}
);
width = 348;
},
{
layerId = "7F84CDEE-FC45-41A5-88A7-11DFAD5E6C3A";
shapes = (
{
closed = 1;
nodes = (
(408,741,l),
(385,657,o),
(315,602,o),
(232,602,cs),
(149,602,o),
(105,657,o),
(109,741,c),
(163,741,l),
(166,694,o),
(198,668,o),
(247,668,cs),
(295,668,o),
(333,694,o),
(354,741,c)
);
}
);
width = 351;
}
);
unicode = 728;
},
{
color = 5;
glyphname = dotaccent;
layers = (
{
layerId = "EE0A04B7-467B-4BD9-A2DD-E8921F00673F";
shapes = (
{
closed = 1;
nodes = (
(268,777,o),
(310,745,o),
(299,681,cs),
(288,617,o),
(234,584,o),
(174,584,cs),
(114,584,o),
(72,617,o),
(84,681,cs),
(101,769,o),
(178,777,o),
(208,777,cs)
);
}
);
width = 239;
},
{
layerId = "179DD43A-A894-42A9-B4B6-A7F9368B08A7";
shapes = (
{
closed = 1;
nodes = (
(229,745,o),
(254,719,o),
(247,679,cs),
(240,642,o),
(206,613,o),
(167,613,cs),
(130,613,o),
(105,642,o),
(111,679,cs),
(118,732,o),
(163,745,o),
(190,745,cs)
);
}
);
width = 211;
},
{
layerId = "7F84CDEE-FC45-41A5-88A7-11DFAD5E6C3A";
shapes = (
{
closed = 1;
nodes = (
(221,739,o),
(243,712,o),
(237,678,cs),
(231,647,o),
(200,619,o),
(165,619,cs),
(132,619,o),
(111,647,o),
(116,682,cs),
(123,725,o),
(160,739,o),
(186,739,cs)
);
}
);
width = 205;
}
);
unicode = 729;
},
{
color = 5;
glyphname = ring;
layers = (
{
layerId = "EE0A04B7-467B-4BD9-A2DD-E8921F00673F";
shapes = (
{
closed = 1;
nodes = (
(138,591,o),
(89,643,o),
(101,711,cs),
(113,778,o),
(181,831,o),
(246,831,cs),
(314,831,o),
(360,778,o),
(349,712,cs),
(337,642,o),
(279,591,o),
(208,591,cs)
);
},
{
closed = 1;
nodes = (
(216,735,o),
(204,724,o),
(202,712,cs),
(199,697,o),
(207,687,o),
(220,687,cs),
(235,687,o),
(246,696,o),
(248,711,cs),
(251,724,o),
(242,735,o),
(229,735,cs)
);
}
);
width = 293;
},
{
layerId = "179DD43A-A894-42A9-B4B6-A7F9368B08A7";
shapes = (
{
closed = 1;
nodes = (
(139,609,o),
(98,653,o),
(108,711,cs),
(119,770,o),
(173,815,o),
(231,815,cs),
(289,815,o),
(329,769,o),
(318,710,cs),
(307,650,o),
(254,609,o),
(194,609,cs)
);
},
{
closed = 1;
nodes = (
(194,763,o),
(166,740,o),
(162,712,cs),
(156,680,o),
(176,661,o),
(205,661,cs),
(237,661,o),
(259,683,o),
(265,711,cs),
(274,755,o),
(241,763,o),
(223,763,cs)
);
}
);
width = 270;
},
{
layerId = "7F84CDEE-FC45-41A5-88A7-11DFAD5E6C3A";
shapes = (
{
closed = 1;
nodes = (
(139,612,o),
(99,655,o),
(109,711,cs),
(119,767,o),
(169,812,o),
(227,812,cs),
(287,812,o),
(323,766,o),
(312,709,cs),
(302,654,o),
(255,612,o),
(192,612,cs)
);
},
{
closed = 1;
nodes = (
(188,768,o),
(159,743,o),
(154,712,cs),
(147,677,o),
(170,656,o),
(202,656,cs),
(237,656,o),
(264,680,o),
(268,711,cs),
(275,754,o),
(246,768,o),
(221,768,cs)
);
}
);
width = 265;
}
);
unicode = 730;
},
{
color = 5;
glyphname = ogonek;
layers = (
{
layerId = "EE0A04B7-467B-4BD9-A2DD-E8921F00673F";
shapes = (
{
closed = 1;
nodes = (
(229,-211,l),
(190,-230,o),
(153,-238,o),
(120,-238,cs),
(47,-238,o),
(-1,-196,o),
(11,-128,cs),
(20,-77,o),
(60,-35,o),
(97,0,c),
(223,0,l),
(155,-67,o),
(140,-96,o),
(138,-109,cs),
(135,-126,o),
(148,-133,o),
(164,-133,cs),
(175,-133,o),
(191,-130,o),
(222,-118,c)
);
}
);
width = 401;
},
{
layerId = "179DD43A-A894-42A9-B4B6-A7F9368B08A7";
shapes = (
{
closed = 1;
nodes = (
(201,-187,l),
(172,-199,o),
(147,-204,o),
(124,-204,cs),
(59,-204,o),
(16,-169,o),
(27,-108,cs),
(34,-67,o),
(68,-31,o),
(97,0,c),
(168,0,l),
(131,-43,o),
(111,-66,o),
(106,-95,cs),
(101,-124,o),
(118,-145,o),
(150,-145,cs),
(163,-145,o),
(177,-143,o),
(198,-136,c)
);
}
);
width = 374;
},
{
layerId = "7F84CDEE-FC45-41A5-88A7-11DFAD5E6C3A";
shapes = (
{
closed = 1;
nodes = (
(195,-182,l),
(168,-193,o),
(145,-197,o),
(124,-197,cs),
(60,-197,o),
(18,-164,o),
(29,-104,cs),
(36,-65,o),
(68,-29,o),
(96,0,c),
(156,0,l),
(125,-39,o),
(104,-60,o),
(99,-92,cs),
(93,-124,o),
(112,-147,o),
(147,-147,cs),
(160,-147,o),
(173,-144,o),
(192,-139,c)
);
}
);
width = 369;
}
);
unicode = 731;
},
{
color = 5;
glyphname = tilde;
layers = (
{
layerId = "EE0A04B7-467B-4BD9-A2DD-E8921F00673F";
shapes = (
{
closed = 1;
nodes = (
(53,607,l),
(92,695,o),
(141,755,o),
(205,755,cs),
(253,755,o),
(292,720,o),
(318,720,cs),
(331,720,o),
(343,732,o),
(357,765,c),
(456,746,l),
(417,661,o),
(368,601,o),
(304,601,cs),
(256,601,o),
(222,636,o),
(195,636,cs),
(180,636,o),
(170,625,o),
(153,589,c)
);
}
);
width = 366;
},
{
layerId = "179DD43A-A894-42A9-B4B6-A7F9368B08A7";
shapes = (
{
closed = 1;
nodes = (
(86,616,l),
(118,684,o),
(160,728,o),
(215,728,cs),
(263,728,o),
(296,691,o),
(331,691,cs),
(354,691,o),
(367,705,o),
(384,736,c),
(443,724,l),
(411,656,o),
(373,614,o),
(324,614,cs),
(280,614,o),
(248,651,o),
(209,651,cs),
(186,651,o),
(162,638,o),
(146,605,c)
);
}
);
width = 388;
},
{
layerId = "7F84CDEE-FC45-41A5-88A7-11DFAD5E6C3A";
shapes = (
{
closed = 1;
nodes = (
(93,618,l),
(123,682,o),
(166,722,o),
(218,722,cs),
(266,722,o),
(299,685,o),
(335,685,cs),
(358,685,o),
(374,701,o),
(390,730,c),
(441,720,l),
(411,656,o),
(376,617,o),
(329,617,cs),
(286,617,o),
(254,654,o),
(212,654,cs),
(188,654,o),
(162,641,o),
(145,608,c)
);
}
);
width = 392;
}
);
unicode = 732;
},
{
color = 5;
glyphname = hungarumlaut;
layers = (
{
layerId = "EE0A04B7-467B-4BD9-A2DD-E8921F00673F";
shapes = (
{
closed = 1;
nodes = (
(39,600,l),
(207,796,l),
(356,767,l),
(168,600,l)
);
},
{
closed = 1;
nodes = (
(272,600,l),
(438,796,l),
(588,768,l),
(400,600,l)
);
}
);
width = 471;
},
{
layerId = "179DD43A-A894-42A9-B4B6-A7F9368B08A7";
shapes = (
{
closed = 1;
nodes = (
(76,605,l),
(209,762,l),
(306,744,l),
(152,605,l)
);
},
{
closed = 1;
nodes = (
(242,605,l),
(375,762,l),
(472,742,l),
(317,605,l)
);
}
);
width = 399;
},
{
layerId = "7F84CDEE-FC45-41A5-88A7-11DFAD5E6C3A";
shapes = (
{
closed = 1;
nodes = (
(84,606,l),
(211,755,l),
(297,739,l),
(150,606,l)
);
},
{
closed = 1;
nodes = (
(237,606,l),
(364,755,l),
(450,737,l),
(301,606,l)
);
}
);
width = 385;
}
);
unicode = 733;
},
{
color = 5;
glyphname = tonos;
layers = (
{
layerId = "EE0A04B7-467B-4BD9-A2DD-E8921F00673F";
shapes = (
{
closed = 1;
nodes = (
(524,842,l),
(284,657,l),
(150,657,l),
(286,842,l)
);
}
);
width = 493;
},
{
layerId = "179DD43A-A894-42A9-B4B6-A7F9368B08A7";
shapes = (
{
closed = 1;
nodes = (
(427,812,l),
(242,657,l),
(171,657,l),
(291,812,l)
);
}
);
width = 427;
},
{
layerId = "7F84CDEE-FC45-41A5-88A7-11DFAD5E6C3A";
shapes = (
{
closed = 1;
nodes = (
(407,806,l),
(234,657,l),
(175,657,l),
(292,806,l)
);
}
);
width = 414;
}
);
unicode = 900;
},
{
color = 5;
glyphname = dieresistonos;
layers = (
{
layerId = "EE0A04B7-467B-4BD9-A2DD-E8921F00673F";
shapes = (
{
closed = 1;
nodes = (
(269,807,o),
(292,768,o),
(286,729,cs),
(279,690,o),
(242,652,o),
(195,652,cs),
(145,652,o),
(127,691,o),
(134,729,cs),
(140,768,o),
(178,807,o),
(222,807,cs)
);
},
{
closed = 1;
nodes = (
(577,836,l),
(397,651,l),
(277,651,l),
(369,836,l)
);
},
{
closed = 1;
nodes = (
(531,768,o),
(569,807,o),
(613,807,cs),
(660,807,o),
(683,768,o),
(677,729,cs),
(670,690,o),
(633,652,o),
(586,652,cs),
(536,652,o),
(518,691,o),
(525,729,cs)
);
}
);
width = 647;
},
{
layerId = "179DD43A-A894-42A9-B4B6-A7F9368B08A7";
shapes = (
{
closed = 1;
nodes = (
(219,773,o),
(239,744,o),
(233,711,cs),
(227,676,o),
(197,649,o),
(160,649,cs),
(112,649,o),
(107,689,o),
(111,711,cs),
(117,744,o),
(147,773,o),
(182,773,cs)
);
},
{
closed = 1;
nodes = (
(467,806,l),
(292,651,l),
(223,651,l),
(336,806,l)
);
},
{
closed = 1;
nodes = (
(416,744,o),
(446,773,o),
(481,773,cs),
(518,773,o),
(538,744,o),
(532,711,cs),
(526,676,o),
(496,649,o),
(459,649,cs),
(411,649,o),
(406,689,o),
(410,711,cs)
);
}
);
width = 484;
},
{
layerId = "7F84CDEE-FC45-41A5-88A7-11DFAD5E6C3A";
shapes = (
{
closed = 1;
nodes = (
(208,766,o),
(227,739,o),
(222,707,cs),
(216,674,o),
(187,648,o),
(152,648,cs),
(110,648,o),
(102,684,o),
(106,707,cs),
(111,739,o),
(141,766,o),
(173,766,cs)
);
},
{
closed = 1;
nodes = (
(443,800,l),
(270,651,l),
(211,651,l),
(328,800,l)
);
},
{
closed = 1;
nodes = (
(391,739,o),
(421,766,o),
(453,766,cs),
(488,766,o),
(507,739,o),
(502,707,cs),
(496,674,o),
(467,648,o),
(432,648,cs),
(390,648,o),
(382,684,o),
(386,707,cs)
);
}
);
width = 451;
}
);
unicode = 901;
},
{
color = 5;
glyphname = Alpha;
layers = (
{
layerId = "EE0A04B7-467B-4BD9-A2DD-E8921F00673F";
shapes = (
{
closed = 1;
nodes = (
(149,0,l),
(-55,0,l),
(367,705,l),
(554,705,l),
(728,0,l),
(520,0,l),
(491,125,l),
(221,125,l)
);
},
{
closed = 1;
nodes = (
(462,276,l),
(419,475,l),
(305,276,l)
);
}
);
width = 767;
},
{
layerId = "179DD43A-A894-42A9-B4B6-A7F9368B08A7";
shapes = (
{
closed = 1;
nodes = (
(57,0,l),
(-53,0,l),
(378,705,l),
(467,705,l),
(651,0,l),
(538,0,l),
(493,185,l),
(170,185,l)
);
},
{
closed = 1;
nodes = (
(472,273,l),
(401,584,l),
(221,273,l)
);
}
);
width = 692;
},
{
layerId = "7F84CDEE-FC45-41A5-88A7-11DFAD5E6C3A";
shapes = (
{
closed = 1;
nodes = (
(39,0,l),
(-52,0,l),
(380,705,l),
(450,705,l),
(635,0,l),
(542,0,l),
(493,197,l),
(159,197,l)
);
},
{
closed = 1;
nodes = (
(474,272,l),
(398,606,l),
(204,272,l)
);
}
);
width = 677;
}
);
unicode = 913;
},
{
color = 5;
glyphname = Beta;
layers = (
{
layerId = "EE0A04B7-467B-4BD9-A2DD-E8921F00673F";
shapes = (
{
closed = 1;
nodes = (
(491,700,ls),
(638,700,o),
(718,635,o),
(698,524,cs),
(684,443,o),
(631,393,o),
(563,366,c),
(643,341,o),
(688,290,o),
(671,195,cs),
(650,75,o),
(539,0,o),
(370,0,cs),
(11,0,l),
(134,700,l)
);
},
{
closed = 1;
nodes = (
(395,421,ls),
(454,421,o),
(490,443,o),
(497,484,cs),
(504,523,o),
(478,544,o),
(421,544,cs),
(296,544,l),
(274,421,l)
);
},
{
closed = 1;
nodes = (
(377,156,ls),
(437,156,o),
(475,181,o),
(482,222,cs),
(489,260,o),
(461,285,o),
(397,285,cs),
(250,285,l),
(228,156,l)
);
}
);
width = 718;
},
{
layerId = "179DD43A-A894-42A9-B4B6-A7F9368B08A7";
shapes = (
{
closed = 1;
nodes = (
(380,704,ls),
(508,704,o),
(617,656,o),
(594,527,cs),
(581,451,o),
(535,391,o),
(463,366,c),
(572,349,o),
(610,281,o),
(594,194,cs),
(575,87,o),
(477,0,o),
(280,0,cs),
(29,0,l),
(153,704,l)
);
},
{
closed = 1;
nodes = (
(328,400,ls),
(425,400,o),
(478,447,o),
(489,510,cs),
(502,583,o),
(454,617,o),
(367,617,cs),
(240,617,l),
(202,400,l)
);
},
{
closed = 1;
nodes = (
(304,88,ls),
(421,88,o),
(480,129,o),
(493,202,cs),
(505,275,o),
(460,316,o),
(316,316,cs),
(187,316,l),
(147,88,l)
);
}
);
width = 651;
},
{
layerId = "7F84CDEE-FC45-41A5-88A7-11DFAD5E6C3A";
shapes = (
{
closed = 1;
nodes = (
(358,705,ls),
(482,705,o),
(596,660,o),
(573,527,cs),
(560,451,o),
(515,391,o),
(443,366,c),
(557,350,o),
(593,279,o),
(578,194,cs),
(560,89,o),
(465,0,o),
(262,0,cs),
(33,0,l),
(157,705,l)
);
},
{
closed = 1;
nodes = (
(314,396,ls),
(419,396,o),
(475,448,o),
(487,515,cs),
(501,595,o),
(447,631,o),
(355,631,cs),
(228,631,l),
(187,396,l)
);
},
{
closed = 1;
nodes = (
(289,74,ls),
(418,74,o),
(481,118,o),
(495,198,cs),
(509,278,o),
(460,322,o),
(300,322,cs),
(174,322,l),
(130,74,l)
);
}
);
width = 637;
}
);
unicode = 914;
},
{
color = 5;
glyphname = Gamma;
layers = (
{
layerId = "EE0A04B7-467B-4BD9-A2DD-E8921F00673F";
shapes = (
{
closed = 1;
nodes = (
(11,0,l),
(134,700,l),
(694,700,l),
(664,530,l),
(298,530,l),
(205,0,l)
);
}
);
width = 630;
},
{
layerId = "179DD43A-A894-42A9-B4B6-A7F9368B08A7";
shapes = (
{
closed = 1;
nodes = (
(29,0,l),
(153,704,l),
(628,704,l),
(612,613,l),
(241,613,l),
(133,0,l)
);
}
);
width = 560;
},
{
layerId = "7F84CDEE-FC45-41A5-88A7-11DFAD5E6C3A";
shapes = (
{
closed = 1;
nodes = (
(33,0,l),
(157,705,l),
(614,705,l),
(601,629,l),
(229,629,l),
(118,0,l)
);
}
);
width = 546;
}
);
unicode = 915;
},
{
color = 5;
glyphname = Epsilon;
layers = (
{
layerId = "EE0A04B7-467B-4BD9-A2DD-E8921F00673F";
shapes = (
{
closed = 1;
nodes = (
(608,165,l),
(579,0,l),
(11,0,l),
(134,700,l),
(697,700,l),
(668,535,l),
(297,535,l),
(279,429,l),
(615,429,l),
(588,276,l),
(252,276,l),
(232,165,l)
);
}
);
width = 675;
},
{
layerId = "179DD43A-A894-42A9-B4B6-A7F9368B08A7";
shapes = (
{
closed = 1;
nodes = (
(533,91,l),
(517,0,l),
(29,0,l),
(153,704,l),
(631,704,l),
(615,613,l),
(241,613,l),
(204,402,l),
(548,402,l),
(532,314,l),
(188,314,l),
(149,91,l)
);
}
);
width = 628;
},
{
layerId = "7F84CDEE-FC45-41A5-88A7-11DFAD5E6C3A";
shapes = (
{
closed = 1;
nodes = (
(517,76,l),
(504,0,l),
(33,0,l),
(157,705,l),
(617,705,l),
(604,629,l),
(230,629,l),
(189,397,l),
(534,397,l),
(521,321,l),
(176,321,l),
(132,76,l)
);
}
);
width = 618;
}
);
unicode = 917;
},
